<svg id="visual" viewBox="0 0 1920 1080" width="1920" height="1080" xmlns="http://www.w3.org/2000/svg" xmlns:xlink="http://www.w3.org/1999/xlink" version="1.1"><rect x="0" y="0" width="1920" height="1080" fill="#090910"></rect><path d="M0 739L45.7 731.5C91.3 724 182.7 709 274.2 698.7C365.7 688.3 457.3 682.7 548.8 696.5C640.3 710.3 731.7 743.7 823 761.2C914.3 778.7 1005.7 780.3 1097 783.7C1188.3 787 1279.7 792 1371.2 779.3C1462.7 766.7 1554.3 736.3 1645.8 735.5C1737.3 734.7 1828.7 763.3 1874.3 777.7L1920 792L1920 1081L1874.3 1081C1828.7 1081 1737.3 1081 1645.8 1081C1554.3 1081 1462.7 1081 1371.2 1081C1279.7 1081 1188.3 1081 1097 1081C1005.7 1081 914.3 1081 823 1081C731.7 1081 640.3 1081 548.8 1081C457.3 1081 365.7 1081 274.2 1081C182.7 1081 91.3 1081 45.7 1081L0 1081Z" fill="#0066ff"></path><path d="M0 859L45.7 853.7C91.3 848.3 182.7 837.7 274.2 818.3C365.7 799 457.3 771 548.8 770.7C640.3 770.3 731.7 797.7 823 803.2C914.3 808.7 1005.7 792.3 1097 775.7C1188.3 759 1279.7 742 1371.2 736C1462.7 730 1554.3 735 1645.8 748C1737.3 761 1828.7 782 1874.3 792.5L1920 803L1920 1081L1874.3 1081C1828.7 1081 1737.3 1081 1645.8 1081C1554.3 1081 1462.7 1081 1371.2 1081C1279.7 1081 1188.3 1081 1097 1081C1005.7 1081 914.3 1081 823 1081C731.7 1081 640.3 1081 548.8 1081C457.3 1081 365.7 1081 274.2 1081C182.7 1081 91.3 1081 45.7 1081L0 1081Z" fill="#007aff"></path><path d="M0 833L45.7 834.3C91.3 835.7 182.7 838.3 274.2 851C365.7 863.7 457.3 886.3 548.8 886.5C640.3 886.7 731.7 864.3 823 864.7C914.3 865 1005.7 888 1097 884.3C1188.3 880.7 1279.7 850.3 1371.2 841.3C1462.7 832.3 1554.3 844.7 1645.8 849C1737.3 853.3 1828.7 849.7 1874.3 847.8L1920 846L1920 1081L1874.3 1081C1828.7 1081 1737.3 1081 1645.8 1081C1554.3 1081 1462.7 1081 1371.2 1081C1279.7 1081 1188.3 1081 1097 1081C1005.7 1081 914.3 1081 823 1081C731.7 1081 640.3 1081 548.8 1081C457.3 1081 365.7 1081 274.2 1081C182.7 1081 91.3 1081 45.7 1081L0 1081Z" fill="#008cff"></path><path d="M0 947L45.7 933.3C91.3 919.7 182.7 892.3 274.2 887.3C365.7 882.3 457.3 899.7 548.8 901C640.3 902.3 731.7 887.7 823 891C914.3 894.3 1005.7 915.7 1097 915.3C1188.3 915 1279.7 893 1371.2 884.5C1462.7 876 1554.3 881 1645.8 881.5C1737.3 882 1828.7 878 1874.3 876L1920 874L1920 1081L1874.3 1081C1828.7 1081 1737.3 1081 1645.8 1081C1554.3 1081 1462.7 1081 1371.2 1081C1279.7 1081 1188.3 1081 1097 1081C1005.7 1081 914.3 1081 823 1081C731.7 1081 640.3 1081 548.8 1081C457.3 1081 365.7 1081 274.2 1081C182.7 1081 91.3 1081 45.7 1081L0 1081Z" fill="#2b9dfc"></path><path d="M0 1016L45.7 1009C91.3 1002 182.7 988 274.2 990.3C365.7 992.7 457.3 1011.3 548.8 1010.3C640.3 1009.3 731.7 988.7 823 984.8C914.3 981 1005.7 994 1097 996.7C1188.3 999.3 1279.7 991.7 1371.2 987.2C1462.7 982.7 1554.3 981.3 1645.8 984.3C1737.3 987.3 1828.7 994.7 1874.3 998.3L1920 1002L1920 1081L1874.3 1081C1828.7 1081 1737.3 1081 1645.8 1081C1554.3 1081 1462.7 1081 1371.2 1081C1279.7 1081 1188.3 1081 1097 1081C1005.7 1081 914.3 1081 823 1081C731.7 1081 640.3 1081 548.8 1081C457.3 1081 365.7 1081 274.2 1081C182.7 1081 91.3 1081 45.7 1081L0 1081Z" fill="#4facf7"></path></svg>