<?xml version="1.0" standalone="no"?>
<!DOCTYPE svg PUBLIC "-//W3C//DTD SVG 20010904//EN"
 "http://www.w3.org/TR/2001/REC-SVG-20010904/DTD/svg10.dtd">
<svg version="1.0" xmlns="http://www.w3.org/2000/svg"
 width="400.000000pt" height="400.000000pt" viewBox="0 0 400.000000 400.000000"
 preserveAspectRatio="xMidYMid meet">
<metadata>
Created by potrace 1.14, written by Peter Selinger 2001-2017
</metadata>
<g transform="translate(0.000000,400.000000) scale(0.100000,-0.100000)"
fill="#000000" stroke="none">
<path d="M0 3318 l0 -683 35 39 c19 21 35 36 35 33 0 -3 33 27 74 66 41 40
106 101 146 137 39 36 96 89 127 118 31 28 60 52 63 52 4 0 13 11 20 25 7 14
18 25 25 25 17 0 76 65 68 75 -5 4 -2 5 5 1 8 -5 22 3 38 21 13 15 29 33 34
38 4 6 25 23 44 39 20 15 33 33 29 39 -3 5 -1 7 5 3 6 -3 19 5 30 19 11 13 21
22 24 20 3 -3 11 6 18 20 7 14 17 25 22 25 4 0 16 8 27 18 102 95 245 230 306
288 41 39 77 69 80 66 3 -3 5 2 5 11 0 9 3 16 8 15 4 -2 41 30 82 69 41 40 84
79 95 87 18 14 -62 15 -712 16 l-733 0 0 -682z"/>
<path d="M1655 3967 c-17 -18 -55 -54 -85 -81 -30 -28 -117 -109 -194 -180
-76 -72 -147 -138 -157 -147 -10 -8 -75 -69 -145 -135 -70 -65 -135 -126 -145
-135 -10 -8 -80 -73 -156 -145 -76 -71 -165 -154 -198 -184 -32 -30 -73 -68
-90 -85 -18 -16 -58 -55 -91 -84 -97 -90 -194 -181 -297 -279 l-97 -93 0
-1210 0 -1209 1218 0 1218 0 61 58 c33 31 85 79 114 106 30 28 88 82 129 121
41 38 112 104 157 144 45 41 79 79 76 85 -3 6 -3 8 2 4 9 -9 43 19 185 155 58
56 104 105 102 109 -1 4 2 7 7 6 8 -3 120 98 276 247 17 17 76 71 130 120 54
50 119 110 144 135 26 25 76 72 113 105 l68 60 0 1273 0 1272 -1157 -1 -1158
-1 -30 -31z m296 -1380 c10 -38 11 -805 1 -842 -6 -23 -30 -45 -104 -95 -52
-36 -177 -120 -276 -187 l-181 -123 -133 0 -133 0 -275 188 -275 189 -3 433
c-2 448 -1 460 38 460 10 0 68 -41 129 -91 l111 -90 0 -282 0 -283 130 -87
130 -87 0 351 c0 200 4 358 9 368 12 22 223 171 243 171 37 0 38 -13 38 -457
l0 -434 58 37 c31 20 92 60 134 88 l78 51 0 282 0 283 33 29 c79 71 204 160
221 158 12 -1 23 -13 27 -30z m1289 -62 c15 -8 38 -27 49 -41 21 -26 21 -36
21 -449 l0 -422 -37 -26 c-89 -59 -222 -137 -236 -137 -9 0 -19 4 -22 10 -3 5
-6 201 -5 435 l0 425 -90 0 -90 0 0 -349 0 -350 -97 -67 c-54 -36 -120 -78
-146 -93 -79 -43 -77 -57 -77 436 l0 423 -85 0 -85 0 0 -447 -1 -448 -47 -29
c-26 -17 -85 -54 -131 -84 -65 -42 -88 -53 -100 -45 -14 9 -16 77 -19 629 -1
340 0 625 3 632 3 9 130 12 585 12 493 0 585 -2 610 -15z"/>
<path d="M1813 2452 l-63 -46 0 -281 c0 -210 -3 -285 -12 -297 -20 -25 -362
-248 -380 -248 -9 0 -19 4 -22 9 -3 5 -6 205 -6 445 -1 240 -3 436 -5 436 -2
0 -34 -21 -70 -46 l-65 -46 0 -383 c0 -335 -2 -386 -16 -399 -8 -9 -18 -16
-22 -16 -4 0 -89 55 -189 121 l-183 122 0 282 0 281 -52 45 c-29 25 -59 49
-65 53 -10 6 -13 -69 -13 -362 l0 -369 113 -76 c61 -41 175 -118 252 -171
l140 -96 103 0 103 0 237 160 c130 89 247 169 260 178 l22 17 -2 367 -3 366
-62 -46z"/>
<path d="M2110 1914 c0 -433 3 -544 13 -538 6 4 42 27 79 51 l68 44 2 457 3
457 153 3 c83 1 153 1 154 0 1 -2 5 -191 8 -420 l5 -417 83 55 82 55 0 349 c0
192 3 355 6 364 9 24 299 24 308 0 3 -9 6 -195 6 -415 0 -219 2 -399 5 -399 2
0 38 21 80 46 l75 47 0 388 c0 339 -2 390 -16 403 -14 14 -79 16 -565 16
l-549 0 0 -546z"/>
<path d="M3960 1218 c-19 -17 -96 -88 -170 -157 -133 -125 -414 -386 -436
-406 -6 -5 -45 -41 -85 -80 -111 -105 -209 -197 -359 -335 -74 -69 -162 -151
-195 -182 l-60 -58 673 0 672 0 0 625 c0 344 -1 625 -2 625 -2 0 -19 -15 -38
-32z"/>
</g>
</svg>
