<svg xmlns="http://www.w3.org/2000/svg" width="24" height="24" viewBox="0 0 24 24" fill="none" stroke="currentColor" stroke-width="2" stroke-linecap="round" stroke-linejoin="round" class="feather feather-youtube"><path d="M22.54 6.42a2.78 2.78 0 0 0-1.94-2A29 29 0 0 0 12 4a29 29 0 0 0-8.6.46 2.78 2.78 0 0 0-1.94 2A29 29 0 0 0 1 11.75a29 29 0 0 0 .46 5.33A2.78 2.78 0 0 0 3.4 19a29 29 0 0 0 8.6.46 29 29 0 0 0 8.6-.46 2.78 2.78 0 0 0 1.94-2 29 29 0 0 0 .46-5.25 29 29 0 0 0-.46-5.33z"></path><polygon points="9.75 15.02 15.5 11.75 9.75 8.48"></polygon></svg>
