<svg xmlns="http://www.w3.org/2000/svg" fill="none" viewBox="0 0 32 32">
  <path
    fill="#2B398F"
    d="M22.4417 0H9.5C8.1216 0 7 1.1216 7 2.5v25.0081c0 1.3786 1.1216 2.5 2.5 2.5h.8652v1.0544c0 .5178.4197.9375.9375.9375a.9374.9374 0 0 0 .9375-.9375v-1.0544h7.4612v1.0544c0 .5178.4197.9375.9375.9375a.9375.9375 0 0 0 .9375-.9375v-1.0544h.8653c1.3784 0 2.5-1.1214 2.5-2.5V2.5c0-1.3784-1.1216-2.5-2.5-2.5Zm.625 27.5081a.6258.6258 0 0 1-.625.625H9.5a.6256.6256 0 0 1-.625-.625V2.5c0-.3447.2803-.625.625-.625h12.9417c.3444 0 .625.2803.625.625v25.0081Z"
  />
  <path
    fill="#3749BB"
    d="M22.4417 0H9.5C8.1216 0 7 1.1216 7 2.5v25.0081c0 1.3786 1.1216 2.5 2.5 2.5h.8652v1.0544c0 .5178.4197.9375.9375.9375a.9374.9374 0 0 0 .9375-.9375v-1.0544h7.4612v1.0544c0 .5178.4197.9375.9375.9375a.9375.9375 0 0 0 .9375-.9375v-1.0544h.8653c1.3784 0 2.5-1.1214 2.5-2.5V2.5c0-1.3784-1.1216-2.5-2.5-2.5Zm.625 27.5081a.6258.6258 0 0 1-.625.625H9.5a.6256.6256 0 0 1-.625-.625V2.5c0-.3447.2803-.625.625-.625h12.9417c.3444 0 .625.2803.625.625v25.0081Z"
  />
  <path
    fill="#2B398F"
    d="M12.3608 7.246h7.1578a.9374.9374 0 0 0 .9375-.9374.9374.9374 0 0 0-.9375-.9375h-7.1578a.9374.9374 0 0 0-.9375.9375c0 .5178.4197.9375.9375.9375Z"
  />
  <path
    fill="#3749BB"
    d="M12.3608 7.246h7.1578a.9374.9374 0 0 0 .9375-.9374.9374.9374 0 0 0-.9375-.9375h-7.1578a.9374.9374 0 0 0-.9375.9375c0 .5178.4197.9375.9375.9375Z"
  />
  <path
    fill="#2B398F"
    d="M20.4561 10.1055a.9375.9375 0 0 0-.9375-.9375h-7.1578a.9375.9375 0 0 0-.9375.9375c0 .5178.4197.9375.9375.9375h7.1578a.9375.9375 0 0 0 .9375-.9375Z"
  />
  <path
    fill="#3749BB"
    d="M20.4561 10.1055a.9375.9375 0 0 0-.9375-.9375h-7.1578a.9375.9375 0 0 0-.9375.9375c0 .5178.4197.9375.9375.9375h7.1578a.9375.9375 0 0 0 .9375-.9375Z"
  />
  <path
    fill="#2B398F"
    d="M15.9707 24.1538a.9401.9401 0 0 0-.6602.273.9418.9418 0 0 0-.2734.6606c0 .2456.0996.4861.2734.6604a.9416.9416 0 0 0 .6602.2732.9419.9419 0 0 0 .6604-.2732.9417.9417 0 0 0 .2734-.6604.9418.9418 0 0 0-.2734-.6606.9413.9413 0 0 0-.6604-.273Z"
  />
  <path
    fill="#3749BB"
    d="M15.9707 24.1538a.9401.9401 0 0 0-.6602.273.9418.9418 0 0 0-.2734.6606c0 .2456.0996.4861.2734.6604a.9416.9416 0 0 0 .6602.2732.9419.9419 0 0 0 .6604-.2732.9417.9417 0 0 0 .2734-.6604.9418.9418 0 0 0-.2734-.6606.9413.9413 0 0 0-.6604-.273Z"
  />
</svg>
