<?xml version="1.0" encoding="utf-8"?>
<!-- Generator: Adobe Illustrator 25.4.1, SVG Export Plug-In . SVG Version: 6.00 Build 0)  -->
<svg width="32" height="32" version="1.1" id="Layer_1" xmlns="http://www.w3.org/2000/svg" xmlns:xlink="http://www.w3.org/1999/xlink" x="0px" y="0px"
	 viewBox="0 0 32 32" style="enable-background:new 0 0 32 32;" xml:space="preserve">
<style type="text/css">
	.st0{fill:#3749BB;}
</style>
<g>
	<path class="st0" d="M16,31.8c-4.3,0-8.5,0-12.8,0c-1.8,0-2.9-1.1-2.9-2.9c0-8.6,0-17.1,0-25.7c0-1.8,1.1-2.9,2.9-2.9
		c8.6,0,17.1,0,25.7,0c1.8,0,2.9,1.1,2.9,2.9c0,8.6,0,17.1,0,25.7c0,1.8-1.1,2.9-2.9,2.9C24.6,31.8,20.3,31.8,16,31.8z M30.7,16
		c0-4.3,0-8.6,0-12.9c0-1.2-0.6-1.8-1.8-1.8c-8.6,0-17.1,0-25.7,0C2,1.3,1.3,2,1.3,3.2c0,8.6,0,17.1,0,25.7c0,1.2,0.6,1.8,1.9,1.8
		c8.6,0,17.1,0,25.7,0c1.2,0,1.9-0.6,1.9-1.9C30.7,24.6,30.7,20.3,30.7,16z"/>
	<path class="st0" d="M2.4,16C2.4,8.5,8.5,2.4,16,2.4c7.5,0,13.6,6.1,13.6,13.6c0,7.5-6.1,13.6-13.7,13.6C8.5,29.6,2.4,23.4,2.4,16z
		 M3.5,16c0,6.9,5.6,12.5,12.5,12.5c6.9,0,12.5-5.6,12.5-12.5c0-6.9-5.6-12.5-12.5-12.5C9.1,3.5,3.5,9.1,3.5,16z"/>
	<path class="st0" d="M29.6,4c0,0.9-0.7,1.6-1.7,1.6c-0.9,0-1.6-0.7-1.6-1.6c0-0.9,0.7-1.6,1.7-1.6C28.9,2.4,29.6,3.2,29.6,4z
		 M27.9,4.6c0.3,0,0.5-0.2,0.6-0.5c0-0.3-0.2-0.6-0.5-0.6c-0.3,0-0.5,0.2-0.5,0.5C27.4,4.3,27.7,4.6,27.9,4.6z"/>
	<path class="st0" d="M5.7,28c0,0.9-0.7,1.6-1.6,1.6c-0.9,0-1.6-0.7-1.6-1.6c0-0.9,0.7-1.6,1.6-1.6C4.9,26.3,5.7,27.1,5.7,28z
		 M4.6,28c0-0.3-0.2-0.5-0.5-0.5c-0.3,0-0.5,0.2-0.5,0.5c0,0.3,0.3,0.6,0.6,0.6C4.3,28.5,4.6,28.2,4.6,28z"/>
	<path class="st0" d="M28,29.6c-0.9,0-1.6-0.8-1.6-1.7c0-0.9,0.7-1.6,1.6-1.6c0.9,0,1.6,0.7,1.6,1.6C29.6,28.9,28.9,29.6,28,29.6z
		 M28,28.5c0.3,0,0.5-0.2,0.5-0.5c0-0.3-0.2-0.6-0.6-0.6c-0.3,0-0.5,0.3-0.5,0.5C27.4,28.3,27.7,28.5,28,28.5z"/>
	<path class="st0" d="M5.7,4c0,0.9-0.7,1.6-1.6,1.6C3.1,5.7,2.4,4.9,2.4,4c0-0.9,0.7-1.6,1.6-1.6C4.9,2.4,5.7,3.1,5.7,4z M4,3.5
		C3.8,3.5,3.5,3.7,3.5,4c0,0.3,0.2,0.6,0.5,0.6c0.3,0,0.5-0.2,0.5-0.5C4.6,3.7,4.3,3.5,4,3.5z"/>
	<path class="st0" d="M18.2,13.2c1.2-0.3,2.3-0.7,3.4-1c2.5-0.7,4.9,0.6,5.6,3c0.1,0.5,0.2,1,0.2,1.6c0,0.5,0,1.1,0,1.6
		c0,1.4-1.3,2.1-2.5,1.5c-1.5-0.8-3-1.3-4.6-1.6c-0.5-0.1-1-0.1-1.5-0.2c0,0.1,0,0.2,0.1,0.3c0.3,1.1,0.6,2.2,0.9,3.2
		c0.8,2.9-1.3,5.7-4.3,5.7c-0.6,0-1.3,0-1.9,0c-1.4,0-2.1-1.3-1.5-2.5c1-1.8,1.6-3.8,1.7-5.8c0-0.1,0-0.2,0-0.3
		c-0.9,0.2-1.7,0.5-2.6,0.7c-0.5,0.1-1,0.3-1.6,0.4c-2.7,0.4-5-1.7-5.1-4.4c0-0.7,0-1.3,0-2c0-1.3,1.3-2.1,2.5-1.5
		c1.6,0.9,3.3,1.4,5.1,1.6c0.3,0,0.6,0.1,1,0.1c-0.2-0.7-0.4-1.4-0.6-2.1c-0.2-0.7-0.4-1.3-0.5-2c-0.4-2.8,1.7-5.1,4.5-5.1
		c0.6,0,1.3,0,1.9,0c1.3,0,2.1,1.3,1.5,2.5c-0.9,1.6-1.4,3.3-1.6,5.1C18.2,12.5,18.2,12.8,18.2,13.2z M12.9,14.9
		c-0.4-0.1-0.9-0.1-1.3-0.2c-1.8-0.3-3.4-0.8-5-1.7c-0.5-0.3-0.9,0-0.9,0.5c0,0.7,0,1.4,0,2c0,2,1.9,3.6,3.9,3.2
		c1.2-0.2,2.5-0.7,3.7-1c0,0,0,0,0-0.1C12.7,16.8,12.7,16.4,12.9,14.9z M19.1,17.1c0.1,0,0.1,0,0.2,0c2.2,0.1,4.3,0.8,6.2,1.8
		c0.5,0.2,0.8,0,0.8-0.5c0-0.7,0-1.3,0-2c0-2.1-1.9-3.7-3.9-3.3c-0.6,0.1-1.2,0.3-1.7,0.5c-0.7,0.2-1.3,0.4-2,0.6
		C19.3,15.1,19.4,16,19.1,17.1z M14.9,19.1c-0.1,0.5-0.1,0.9-0.2,1.4c-0.3,1.8-0.8,3.4-1.7,5c-0.3,0.5,0,0.9,0.6,0.9
		c0.7,0,1.3,0,2,0c2,0,3.5-1.9,3.2-3.8c-0.1-0.9-0.4-1.7-0.7-2.5c-0.1-0.4-0.2-0.8-0.4-1.3C16.9,19.3,16,19.4,14.9,19.1z M17.1,12.9
		c0-0.1,0-0.1,0-0.2c0.1-2.2,0.8-4.3,1.8-6.3c0.2-0.4,0-0.8-0.5-0.8c-0.7,0-1.4,0-2.1,0c-2,0-3.6,1.9-3.3,3.8c0.1,0.5,0.2,1,0.4,1.4
		c0.2,0.8,0.4,1.5,0.7,2.3C15.1,12.7,16,12.6,17.1,12.9z M18.2,16c0-1.2-1-2.2-2.2-2.2c-1.2,0-2.2,1-2.2,2.2c0,1.2,1,2.2,2.2,2.2
		C17.2,18.2,18.2,17.2,18.2,16z"/>
</g>
</svg>
