<svg xmlns="http://www.w3.org/2000/svg" xml:space="preserve" viewBox="0 0 32 32"><path fill="#3749bb" d="M16 31.8H3.2c-1.8 0-2.9-1.1-2.9-2.9V3.2C.3 1.4 1.4.3 3.2.3h25.7c1.8 0 2.9 1.1 2.9 2.9v25.7c0 1.8-1.1 2.9-2.9 2.9H16zM30.7 16V3.1c0-1.2-.6-1.8-1.8-1.8H3.2C2 1.3 1.3 2 1.3 3.2v25.7c0 1.2.6 1.8 1.9 1.8h25.7c1.2 0 1.9-.6 1.9-1.9-.1-4.2-.1-8.5-.1-12.8z"/><path d="M2.4 16C2.4 8.5 8.5 2.4 16 2.4S29.6 8.5 29.6 16s-6.1 13.6-13.7 13.6C8.5 29.6 2.4 23.4 2.4 16zm1.1 0c0 6.9 5.6 12.5 12.5 12.5S28.5 22.9 28.5 16 22.9 3.5 16 3.5 3.5 9.1 3.5 16zM29.6 4c0 .9-.7 1.6-1.7 1.6-.9 0-1.6-.7-1.6-1.6 0-.9.7-1.6 1.7-1.6.9 0 1.6.8 1.6 1.6zm-1.7.6c.3 0 .5-.2.6-.5 0-.3-.2-.6-.5-.6s-.5.2-.5.5c-.1.3.2.6.4.6zM5.7 28c0 .9-.7 1.6-1.6 1.6-.9 0-1.6-.7-1.6-1.6 0-.9.7-1.6 1.6-1.6.8-.1 1.6.7 1.6 1.6zm-1.1 0c0-.3-.2-.5-.5-.5s-.5.2-.5.5.3.6.6.6c.1-.1.4-.4.4-.6zM28 29.6c-.9 0-1.6-.8-1.6-1.7 0-.9.7-1.6 1.6-1.6.9 0 1.6.7 1.6 1.6 0 1-.7 1.7-1.6 1.7zm0-1.1c.3 0 .5-.2.5-.5s-.2-.6-.6-.6c-.3 0-.5.3-.5.5 0 .4.3.6.6.6zM5.7 4c0 .9-.7 1.6-1.6 1.6-1 .1-1.7-.7-1.7-1.6 0-.9.7-1.6 1.6-1.6.9 0 1.7.7 1.7 1.6zM4 3.5c-.2 0-.5.2-.5.5s.2.6.5.6.5-.2.5-.5c.1-.4-.2-.6-.5-.6z" fill="#3749bb"/><path d="M18.2 13.2c1.2-.3 2.3-.7 3.4-1 2.5-.7 4.9.6 5.6 3 .1.5.2 1 .2 1.6v1.6c0 1.4-1.3 2.1-2.5 1.5-1.5-.8-3-1.3-4.6-1.6-.5-.1-1-.1-1.5-.2 0 .1 0 .2.1.3.3 1.1.6 2.2.9 3.2.8 2.9-1.3 5.7-4.3 5.7h-1.9c-1.4 0-2.1-1.3-1.5-2.5 1-1.8 1.6-3.8 1.7-5.8v-.3c-.9.2-1.7.5-2.6.7-.5.1-1 .3-1.6.4-2.7.4-5-1.7-5.1-4.4v-2c0-1.3 1.3-2.1 2.5-1.5 1.6.9 3.3 1.4 5.1 1.6.3 0 .6.1 1 .1l-.6-2.1c-.2-.7-.4-1.3-.5-2-.4-2.8 1.7-5.1 4.5-5.1h1.9c1.3 0 2.1 1.3 1.5 2.5-.9 1.6-1.4 3.3-1.6 5.1-.1.5-.1.8-.1 1.2zm-5.3 1.7c-.4-.1-.9-.1-1.3-.2-1.8-.3-3.4-.8-5-1.7-.5-.3-.9 0-.9.5v2c0 2 1.9 3.6 3.9 3.2 1.2-.2 2.5-.7 3.7-1v-.1c-.6-.8-.6-1.2-.4-2.7zm6.2 2.2h.2c2.2.1 4.3.8 6.2 1.8.5.2.8 0 .8-.5v-2c0-2.1-1.9-3.7-3.9-3.3-.6.1-1.2.3-1.7.5-.7.2-1.3.4-2 .6.6.9.7 1.8.4 2.9zm-4.2 2c-.1.5-.1.9-.2 1.4-.3 1.8-.8 3.4-1.7 5-.3.5 0 .9.6.9h2c2 0 3.5-1.9 3.2-3.8-.1-.9-.4-1.7-.7-2.5-.1-.4-.2-.8-.4-1.3-.8.5-1.7.6-2.8.3zm2.2-6.2v-.2c.1-2.2.8-4.3 1.8-6.3.2-.4 0-.8-.5-.8h-2.1c-2 0-3.6 1.9-3.3 3.8.1.5.2 1 .4 1.4.2.8.4 1.5.7 2.3 1-.4 1.9-.5 3-.2zm1.1 3.1c0-1.2-1-2.2-2.2-2.2-1.2 0-2.2 1-2.2 2.2 0 1.2 1 2.2 2.2 2.2 1.2 0 2.2-1 2.2-2.2z" fill="#3749bb"/></svg>