<svg xmlns="http://www.w3.org/2000/svg" fill="none" viewBox="0 0 32 32">
  <path
    fill="#2B398F"
    d="M31.0625 14.4375A.9375.9375 0 0 0 32 13.5a.9375.9375 0 0 0-.9375-.9375h-4.125v-3.125h4.125A.9375.9375 0 0 0 32 8.5a.9375.9375 0 0 0-.9375-.9375h-4.125v-.625c0-1.0339-.8411-1.875-1.875-1.875h-.625V.9375A.9375.9375 0 0 0 23.5 0a.9375.9375 0 0 0-.9375.9375v4.125h-3.125V.9375A.9375.9375 0 0 0 18.5 0a.9375.9375 0 0 0-.9375.9375v4.125h-3.125V.9375A.9375.9375 0 0 0 13.5 0a.9375.9375 0 0 0-.9375.9375v4.125h-3.125V.9375a.9375.9375 0 0 0-1.875 0v4.125h-.625c-1.0339 0-1.875.8411-1.875 1.875v.625H.9375a.9375.9375 0 0 0 0 1.875h4.125v3.125H.9375A.9375.9375 0 0 0 0 13.5c0 .5178.4198.9375.9375.9375h4.125v3.125H.9375A.9375.9375 0 0 0 0 18.5c0 .5178.4198.9375.9375.9375h4.125v3.125H.9375A.9375.9375 0 0 0 0 23.5c0 .5178.4198.9375.9375.9375h4.125v.625c0 1.0339.8411 1.875 1.875 1.875h.625v4.125c0 .5178.4197.9375.9375.9375a.9375.9375 0 0 0 .9375-.9375v-4.125h3.125v4.125c0 .5178.4197.9375.9375.9375a.9375.9375 0 0 0 .9375-.9375v-4.125h3.125v4.125c0 .5178.4197.9375.9375.9375a.9375.9375 0 0 0 .9375-.9375v-4.125h3.125v4.125c0 .5178.4197.9375.9375.9375a.9375.9375 0 0 0 .9375-.9375v-4.125h.625c1.0339 0 1.875-.8411 1.875-1.875v-.625h4.125A.9375.9375 0 0 0 32 23.5a.9375.9375 0 0 0-.9375-.9375h-4.125v-3.125h4.125A.9375.9375 0 0 0 32 18.5a.9375.9375 0 0 0-.9375-.9375h-4.125v-3.125h4.125Zm-6 10.625H6.9375V6.9375h18.125c.0012 18.6287.0063 18.125 0 18.125Z"
  />
  <path
    fill="#3749BB"
    d="M31.0625 14.4375A.9375.9375 0 0 0 32 13.5a.9375.9375 0 0 0-.9375-.9375h-4.125v-3.125h4.125A.9375.9375 0 0 0 32 8.5a.9375.9375 0 0 0-.9375-.9375h-4.125v-.625c0-1.0339-.8411-1.875-1.875-1.875h-.625V.9375A.9375.9375 0 0 0 23.5 0a.9375.9375 0 0 0-.9375.9375v4.125h-3.125V.9375A.9375.9375 0 0 0 18.5 0a.9375.9375 0 0 0-.9375.9375v4.125h-3.125V.9375A.9375.9375 0 0 0 13.5 0a.9375.9375 0 0 0-.9375.9375v4.125h-3.125V.9375a.9375.9375 0 0 0-1.875 0v4.125h-.625c-1.0339 0-1.875.8411-1.875 1.875v.625H.9375a.9375.9375 0 0 0 0 1.875h4.125v3.125H.9375A.9375.9375 0 0 0 0 13.5c0 .5178.4198.9375.9375.9375h4.125v3.125H.9375A.9375.9375 0 0 0 0 18.5c0 .5178.4198.9375.9375.9375h4.125v3.125H.9375A.9375.9375 0 0 0 0 23.5c0 .5178.4198.9375.9375.9375h4.125v.625c0 1.0339.8411 1.875 1.875 1.875h.625v4.125c0 .5178.4197.9375.9375.9375a.9375.9375 0 0 0 .9375-.9375v-4.125h3.125v4.125c0 .5178.4197.9375.9375.9375a.9375.9375 0 0 0 .9375-.9375v-4.125h3.125v4.125c0 .5178.4197.9375.9375.9375a.9375.9375 0 0 0 .9375-.9375v-4.125h3.125v4.125c0 .5178.4197.9375.9375.9375a.9375.9375 0 0 0 .9375-.9375v-4.125h.625c1.0339 0 1.875-.8411 1.875-1.875v-.625h4.125A.9375.9375 0 0 0 32 23.5a.9375.9375 0 0 0-.9375-.9375h-4.125v-3.125h4.125A.9375.9375 0 0 0 32 18.5a.9375.9375 0 0 0-.9375-.9375h-4.125v-3.125h4.125Zm-6 10.625H6.9375V6.9375h18.125c.0012 18.6287.0063 18.125 0 18.125Z"
  />
  <path
    fill="#2B398F"
    d="M19.7879 10.3371a.9376.9376 0 0 0-.6629-.2746h-6.25a.9376.9376 0 0 0-.6629.2746l-1.875 1.875a.9376.9376 0 0 0-.2746.6629v6.25c0 .2486.0988.4871.2746.6629l1.875 1.875a.9376.9376 0 0 0 .6629.2746h6.25a.9376.9376 0 0 0 .6629-.2746l1.875-1.875a.9376.9376 0 0 0 .2746-.6629v-6.25a.9376.9376 0 0 0-.2746-.6629l-1.875-1.875Zm.2746 8.3996-1.3258 1.3258h-5.4733l-1.3259-1.3258v-5.4733l1.3258-1.3259h5.4733l1.3259 1.3258v5.4734Z"
  />
  <path
    fill="#3749BB"
    d="M19.7879 10.3371a.9376.9376 0 0 0-.6629-.2746h-6.25a.9376.9376 0 0 0-.6629.2746l-1.875 1.875a.9376.9376 0 0 0-.2746.6629v6.25c0 .2486.0988.4871.2746.6629l1.875 1.875a.9376.9376 0 0 0 .6629.2746h6.25a.9376.9376 0 0 0 .6629-.2746l1.875-1.875a.9376.9376 0 0 0 .2746-.6629v-6.25a.9376.9376 0 0 0-.2746-.6629l-1.875-1.875Zm.2746 8.3996-1.3258 1.3258h-5.4733l-1.3259-1.3258v-5.4733l1.3258-1.3259h5.4733l1.3259 1.3258v5.4734Z"
  />
</svg>
