<svg xmlns="http://www.w3.org/2000/svg" fill="none" viewBox="0 0 32 32">
  <path
    fill="#550A8A"
    d="M31.0625 5.75H5.625V2.9375A.9374.9374 0 0 0 4.6875 2h-3.75A.9374.9374 0 0 0 0 2.9375c0 .5178.4197.9375.9375.9375H3.75V9.5H.9375A.9374.9374 0 0 0 0 10.4375v11.25c0 .5178.4197.9375.9375.9375H3.75v6.5625c0 .5178.4197.9375.9375.9375a.9374.9374 0 0 0 .9375-.9375V26.375h1.9375v.9375c0 .5178.4197.9375.9375.9375a.9374.9374 0 0 0 .9375-.9375v-.9375h1.875v.9375c0 .5178.4197.9375.9375.9375a.9375.9375 0 0 0 .9375-.9375v-.9375h1.875v.9375c0 .5178.4197.9375.9375.9375a.9375.9375 0 0 0 .9375-.9375v-.9375h1.875v.9375c0 .5178.4197.9375.9375.9375a.9375.9375 0 0 0 .9375-.9375v-.9375h10.375A.9375.9375 0 0 0 32 25.4375v-18.75a.9374.9374 0 0 0-.9375-.9375ZM3.75 20.75H1.875v-1.875H3.75v1.875Zm0-3.75H1.875v-1.875H3.75V17Zm0-3.75H1.875v-1.875H3.75v1.875ZM30.125 24.5h-24.5V7.625h24.5V24.5Z"
  />
  <path
    fill="#6A0DAD"
    d="M31.0625 5.75H5.625V2.9375A.9374.9374 0 0 0 4.6875 2h-3.75A.9374.9374 0 0 0 0 2.9375c0 .5178.4197.9375.9375.9375H3.75V9.5H.9375A.9374.9374 0 0 0 0 10.4375v11.25c0 .5178.4197.9375.9375.9375H3.75v6.5625c0 .5178.4197.9375.9375.9375a.9374.9374 0 0 0 .9375-.9375V26.375h1.9375v.9375c0 .5178.4197.9375.9375.9375a.9374.9374 0 0 0 .9375-.9375v-.9375h1.875v.9375c0 .5178.4197.9375.9375.9375a.9375.9375 0 0 0 .9375-.9375v-.9375h1.875v.9375c0 .5178.4197.9375.9375.9375a.9375.9375 0 0 0 .9375-.9375v-.9375h1.875v.9375c0 .5178.4197.9375.9375.9375a.9375.9375 0 0 0 .9375-.9375v-.9375h10.375A.9375.9375 0 0 0 32 25.4375v-18.75a.9374.9374 0 0 0-.9375-.9375ZM3.75 20.75H1.875v-1.875H3.75v1.875Zm0-3.75H1.875v-1.875H3.75V17Zm0-3.75H1.875v-1.875H3.75v1.875ZM30.125 24.5h-24.5V7.625h24.5V24.5Z"
  />
  <path
    fill="#550A8A"
    d="M21.625 22.625c3.6528 0 6.6248-2.9436 6.625-6.562 0 .0002 0-.0003 0 0-.0002-3.6182-2.9719-6.5628-6.6245-6.563.0002 0-.0003 0 0 0-3.616.0002-6.563 2.9436-6.563 6.5625 0 3.6165 2.9436 6.5625 6.5625 6.5625Zm-3.6003-3.5647a4.6834 4.6834 0 0 1-.7835-1.3401c.2073.0366.419.0564.6338.0564.468 0 .9224-.0896 1.3438-.2595.0361.0598.0751.1174.1157.1743-.1216.6777-.6426 1.2183-1.3098 1.3689Zm5.2563 1.3953a3.6313 3.6313 0 0 0 .0581-.6431c0-.468-.0896-.9224-.2595-1.3437a2.9696 2.9696 0 0 0 .1743-.1155c.687.123 1.2336.6565 1.3753 1.3371a4.768 4.768 0 0 1-1.3482.7652Zm3.0735-3.9651a4.6033 4.6033 0 0 1-.4246 1.55 3.6115 3.6115 0 0 0-1.5747-1.3032 2.8966 2.8966 0 0 0 .0427-.207c.5782-.3994 1.3643-.4126 1.9566-.0398Zm-1.0889-3.4346c.3394.3997.6123.8557.8028 1.3516a3.7595 3.7595 0 0 0-.6622-.0591c-.4804 0-.9448.0903-1.3732.2622a2.961 2.961 0 0 0-.1172-.177c.1238-.6912.6631-1.2402 1.3498-1.3777Zm-3.2131-1.6609a4.7589 4.7589 0 0 1 1.5115.3899 3.61 3.61 0 0 0-1.2644 1.5474 2.7405 2.7405 0 0 0-.2078-.0427c-.3926-.5657-.4058-1.3167-.0393-1.8946Zm-1.365 4.6673c0-.5169.4207-.9373.9375-.9373.5168 0 .9375.4204.9375.9373 0 .5168-.4204.9377-.9373.9377.0003 0-.0002 0 0 0-.5168 0-.9375-.4209-.9377-.9377 0-.0003 0 .0002 0 0Zm.2627 2.7304c.0684.0169.1377.031.2078.0427.3928.5655.406 1.3162.0398 1.8943a4.6546 4.6546 0 0 1-1.5018-.3967 3.6107 3.6107 0 0 0 1.2542-1.5403Zm-.9829-7.114a3.6426 3.6426 0 0 0-.0564.6338c0 .468.0896.9224.2595 1.3437a2.9696 2.9696 0 0 0-.1743.1155c-.6777-.1213-1.2183-.6423-1.3689-1.3095a4.688 4.688 0 0 1 1.3401-.7835Zm-2.6128 2.4548a3.6107 3.6107 0 0 0 1.5403 1.2542 2.7608 2.7608 0 0 0-.0427.2078c-.5655.3928-1.3162.406-1.8943.0398a4.6546 4.6546 0 0 1 .3967-1.5018Z"
  />
  <path
    fill="#6A0DAD"
    d="M21.625 22.625c3.6528 0 6.6248-2.9436 6.625-6.562 0 .0002 0-.0003 0 0-.0002-3.6182-2.9719-6.5628-6.6245-6.563.0002 0-.0003 0 0 0-3.616.0002-6.563 2.9436-6.563 6.5625 0 3.6165 2.9436 6.5625 6.5625 6.5625Zm-3.6003-3.5647a4.6834 4.6834 0 0 1-.7835-1.3401c.2073.0366.419.0564.6338.0564.468 0 .9224-.0896 1.3438-.2595.0361.0598.0751.1174.1157.1743-.1216.6777-.6426 1.2183-1.3098 1.3689Zm5.2563 1.3953a3.6313 3.6313 0 0 0 .0581-.6431c0-.468-.0896-.9224-.2595-1.3437a2.9696 2.9696 0 0 0 .1743-.1155c.687.123 1.2336.6565 1.3753 1.3371a4.768 4.768 0 0 1-1.3482.7652Zm3.0735-3.9651a4.6033 4.6033 0 0 1-.4246 1.55 3.6115 3.6115 0 0 0-1.5747-1.3032 2.8966 2.8966 0 0 0 .0427-.207c.5782-.3994 1.3643-.4126 1.9566-.0398Zm-1.0889-3.4346c.3394.3997.6123.8557.8028 1.3516a3.7595 3.7595 0 0 0-.6622-.0591c-.4804 0-.9448.0903-1.3732.2622a2.961 2.961 0 0 0-.1172-.177c.1238-.6912.6631-1.2402 1.3498-1.3777Zm-3.2131-1.6609a4.7589 4.7589 0 0 1 1.5115.3899 3.61 3.61 0 0 0-1.2644 1.5474 2.7405 2.7405 0 0 0-.2078-.0427c-.3926-.5657-.4058-1.3167-.0393-1.8946Zm-1.365 4.6673c0-.5169.4207-.9373.9375-.9373.5168 0 .9375.4204.9375.9373 0 .5168-.4204.9377-.9373.9377.0003 0-.0002 0 0 0-.5168 0-.9375-.4209-.9377-.9377 0-.0003 0 .0002 0 0Zm.2627 2.7304c.0684.0169.1377.031.2078.0427.3928.5655.406 1.3162.0398 1.8943a4.6546 4.6546 0 0 1-1.5018-.3967 3.6107 3.6107 0 0 0 1.2542-1.5403Zm-.9829-7.114a3.6426 3.6426 0 0 0-.0564.6338c0 .468.0896.9224.2595 1.3437a2.9696 2.9696 0 0 0-.1743.1155c-.6777-.1213-1.2183-.6423-1.3689-1.3095a4.688 4.688 0 0 1 1.3401-.7835Zm-2.6128 2.4548a3.6107 3.6107 0 0 0 1.5403 1.2542 2.7608 2.7608 0 0 0-.0427.2078c-.5655.3928-1.3162.406-1.8943.0398a4.6546 4.6546 0 0 1 .3967-1.5018Z"
  />
  <path
    fill="#550A8A"
    d="M8.5 15.125h3.75a.9375.9375 0 0 0 .9375-.9375.9375.9375 0 0 0-.9375-.9375H8.5a.9374.9374 0 0 0-.9375.9375c0 .5178.4197.9375.9375.9375Z"
  />
  <path
    fill="#6A0DAD"
    d="M8.5 15.125h3.75a.9375.9375 0 0 0 .9375-.9375.9375.9375 0 0 0-.9375-.9375H8.5a.9374.9374 0 0 0-.9375.9375c0 .5178.4197.9375.9375.9375Z"
  />
  <path
    fill="#550A8A"
    d="M8.5 18.875h3.75a.9375.9375 0 0 0 .9375-.9375A.9375.9375 0 0 0 12.25 17H8.5a.9374.9374 0 0 0-.9375.9375c0 .5178.4197.9375.9375.9375Z"
  />
  <path
    fill="#6A0DAD"
    d="M8.5 18.875h3.75a.9375.9375 0 0 0 .9375-.9375A.9375.9375 0 0 0 12.25 17H8.5a.9374.9374 0 0 0-.9375.9375c0 .5178.4197.9375.9375.9375Z"
  />
  <path
    fill="#550A8A"
    d="M8.5 22.625h3.75a.9375.9375 0 0 0 .9375-.9375.9375.9375 0 0 0-.9375-.9375H8.5a.9374.9374 0 0 0-.9375.9375c0 .5178.4197.9375.9375.9375Z"
  />
  <path
    fill="#6A0DAD"
    d="M8.5 22.625h3.75a.9375.9375 0 0 0 .9375-.9375.9375.9375 0 0 0-.9375-.9375H8.5a.9374.9374 0 0 0-.9375.9375c0 .5178.4197.9375.9375.9375Z"
  />
  <path
    fill="#550A8A"
    d="M9.4375 10.4375a.9374.9374 0 0 1-.9375.9375.9374.9374 0 0 1-.9375-.9375A.9374.9374 0 0 1 8.5 9.5a.9374.9374 0 0 1 .9375.9375Z"
  />
  <path
    fill="#6A0DAD"
    d="M9.4375 10.4375a.9374.9374 0 0 1-.9375.9375.9374.9374 0 0 1-.9375-.9375A.9374.9374 0 0 1 8.5 9.5a.9374.9374 0 0 1 .9375.9375Z"
  />
  <path
    fill="#550A8A"
    d="M13.1875 10.4375a.9375.9375 0 0 1-.9375.9375.9375.9375 0 0 1-.9375-.9375A.9374.9374 0 0 1 12.25 9.5a.9374.9374 0 0 1 .9375.9375Z"
  />
  <path
    fill="#6A0DAD"
    d="M13.1875 10.4375a.9375.9375 0 0 1-.9375.9375.9375.9375 0 0 1-.9375-.9375A.9374.9374 0 0 1 12.25 9.5a.9374.9374 0 0 1 .9375.9375Z"
  />
</svg>
