<svg xmlns="http://www.w3.org/2000/svg" fill="none" viewBox="0 0 32 32"><path fill="#2B398F" d="M25 0H5.875C4.8411 0 4 .8411 4 1.875v28.25C4 31.1589 4.8411 32 5.875 32H25c1.0339 0 1.875-.8411 1.875-1.875V1.875C26.875.8411 26.0339 0 25 0Zm0 30.125H5.875V1.875H25c.0012 28.8556.0063 28.25 0 28.25Z"/><path fill="#3749BB" d="M25 0H5.875C4.8411 0 4 .8411 4 1.875v28.25C4 31.1589 4.8411 32 5.875 32H25c1.0339 0 1.875-.8411 1.875-1.875V1.875C26.875.8411 26.0339 0 25 0Zm0 30.125H5.875V1.875H25c.0012 28.8556.0063 28.25 0 28.25Z"/><path fill="#2B398F" d="M22.6134 22.0881c-.1829-.4767-.7008-1.395-3.0469-3.871 2.0431-1.3635 3.3085-3.6732 3.3085-6.1865 0-4.101-3.3364-7.4375-7.4375-7.4375C11.3364 4.5931 8 7.9296 8 12.0306c0 3.8835 3.0217 7.1765 6.9515 7.4226-.0426 1.291-.1313 4.3072.31 5.4571.7804 2.033 3.0656 3.0407 5.0871 2.2648 2.0315-.7797 3.0448-3.0551 2.2648-5.087.0001 0 .0001 0 0 0ZM9.875 12.0306c0-3.0672 2.4953-5.5625 5.5625-5.5625S21 8.9634 21 12.0306a5.5636 5.5636 0 0 1-2.7694 4.8113c-.8546-.8601-1.5034-1.4806-1.5125-1.4893-.5705-.545-1.5229-.1817-1.5824.6074-.0008.0108-.05.6694-.1015 1.6192-2.9355-.2048-5.1592-2.6737-5.1592-5.5486Zm9.8016 13.3941c-1.0617.4074-2.2571-.1247-2.6646-1.1863-.3523-.9179-.1798-5.1119-.1317-6.0986.7181.7234 3.6211 3.6781 3.9828 4.6203.4084 1.064-.1221 2.2561-1.1865 2.6646Z"/><path fill="#3749BB" d="M22.6134 22.0881c-.1829-.4767-.7008-1.395-3.0469-3.871 2.0431-1.3635 3.3085-3.6732 3.3085-6.1865 0-4.101-3.3364-7.4375-7.4375-7.4375C11.3364 4.5931 8 7.9296 8 12.0306c0 3.8835 3.0217 7.1765 6.9515 7.4226-.0426 1.291-.1313 4.3072.31 5.4571.7804 2.033 3.0656 3.0407 5.0871 2.2648 2.0315-.7797 3.0448-3.0551 2.2648-5.087.0001 0 .0001 0 0 0ZM9.875 12.0306c0-3.0672 2.4953-5.5625 5.5625-5.5625S21 8.9634 21 12.0306a5.5636 5.5636 0 0 1-2.7694 4.8113c-.8546-.8601-1.5034-1.4806-1.5125-1.4893-.5705-.545-1.5229-.1817-1.5824.6074-.0008.0108-.05.6694-.1015 1.6192-2.9355-.2048-5.1592-2.6737-5.1592-5.5486Zm9.8016 13.3941c-1.0617.4074-2.2571-.1247-2.6646-1.1863-.3523-.9179-.1798-5.1119-.1317-6.0986.7181.7234 3.6211 3.6781 3.9828 4.6203.4084 1.064-.1221 2.2561-1.1865 2.6646Z"/><path fill="#2B398F" d="M15.958 12.81c.4334-.2932.5441-.8675.2588-1.3-.4448-.6755-1.5243-.5023-1.6988.3375-.1569.8344.7508 1.4154 1.44.9625Z"/><path fill="#3749BB" d="M15.958 12.81c.4334-.2932.5441-.8675.2588-1.3-.4448-.6755-1.5243-.5023-1.6988.3375-.1569.8344.7508 1.4154 1.44.9625Z"/><path fill="#2B398F" d="M9.8572 26.3168c-.1167-.5586-.674-.8708-1.1913-.7137a.9374.9374 0 0 0-.625 1.1694c.1771.5435.7263.7655 1.1694.6237.4554-.1382.7377-.5934.6469-1.0794Z"/><path fill="#3749BB" d="M9.8572 26.3168c-.1167-.5586-.674-.8708-1.1913-.7137a.9374.9374 0 0 0-.625 1.1694c.1771.5435.7263.7655 1.1694.6237.4554-.1382.7377-.5934.6469-1.0794Z"/></svg>