<?xml version="1.0" encoding="utf-8"?>
<!-- Generator: Adobe Illustrator 25.4.1, SVG Export Plug-In . SVG Version: 6.00 Build 0)  -->
<svg width="32" height="32" version="1.1" id="Layer_1" xmlns="http://www.w3.org/2000/svg" xmlns:xlink="http://www.w3.org/1999/xlink" x="0px" y="0px"
	 viewBox="0 0 32 32" style="enable-background:new 0 0 32 32;" xml:space="preserve">
<style type="text/css">
	.st0{fill:#3749BB;}
</style>
<path class="st0" d="M23.6,31.7c-0.4-0.2-0.5-0.5-0.5-1c0-4.1,0-8.2,0-12.3c0-0.7,0.2-1,1-1c0.7,0,1.4,0,2.2,0
	c1.1,0.1,2.1,0.9,2.4,1.9c0,0.1,0.1,0.2,0.2,0.3c0-0.7,0-1.5,0-2.2c0-2.8-0.7-5.4-2.1-7.8c-1.7-2.9-4.1-5-7.3-5.9
	c-3.6-1.1-7-0.5-10.1,1.6c-3.1,2.2-4.9,5.2-5.8,8.9c-0.4,1.8-0.3,3.6-0.3,5.4c0,0,0,0.1,0,0.1c0.2-0.3,0.3-0.7,0.5-1
	c0.6-0.8,1.4-1.2,2.4-1.2c0.6,0,1.2,0,1.9,0c0.6,0,0.9,0.3,0.9,0.9c0,4.2,0,8.4,0,12.5c0,0.4-0.2,0.7-0.5,0.8c-0.9,0-1.8,0-2.6,0
	c0,0-0.1,0-0.1,0c-1.3-0.2-2.3-1.3-2.4-2.6c0-0.9,0-1.8,0-2.7c0-0.1,0-0.2,0-0.4c-0.7,0-1.3,0-1.9,0c-0.7,0-0.9-0.3-0.9-0.9
	c0-2.5,0-5,0-7.5c0-0.7,0-1.4,0.1-2.1C0.8,12,2.1,8.9,4.2,6.2C7,2.8,10.5,0.7,15,0.4c3.1-0.2,6,0.4,8.6,2.1
	c4.6,2.9,7.1,7.1,7.9,12.5c0.1,0.5,0.1,1,0.2,1.5c0,3,0,6,0,9c-0.2,0.4-0.5,0.6-0.9,0.6c-0.6,0-1.2,0-1.9,0c0,0.1,0,0.2,0,0.3
	c0,0.8,0,1.6,0,2.4c0,1-0.3,1.9-1.2,2.4c-0.4,0.3-0.9,0.4-1.4,0.6C25.4,31.7,24.5,31.7,23.6,31.7z"/>
</svg>
