<svg
  xmlns="http://www.w3.org/2000/svg"
  xml:space="preserve"
  viewBox="0 0 32 32"
>
  <path
    fill="#3749bb"
    d="M23.6 31.7c-.4-.2-.5-.5-.5-1V18.4c0-.7.2-1 1-1h2.2c1.1.1 2.1.9 2.4 1.9 0 .1.1.2.2.3v-2.2c0-2.8-.7-5.4-2.1-7.8-1.7-2.9-4.1-5-7.3-5.9-3.6-1.1-7-.5-10.1 1.6-3.1 2.2-4.9 5.2-5.8 8.9-.4 1.8-.3 3.6-.3 5.4v.1c.2-.3.3-.7.5-1 .6-.8 1.4-1.2 2.4-1.2h1.9c.6 0 .9.3.9.9v12.5c0 .4-.2.7-.5.8H5.8c-1.3-.2-2.3-1.3-2.4-2.6V26H1.5c-.7 0-.9-.3-.9-.9v-7.5c0-.7 0-1.4.1-2.1.1-3.5 1.4-6.6 3.5-9.3C7 2.8 10.5.7 15 .4c3.1-.2 6 .4 8.6 2.1 4.6 2.9 7.1 7.1 7.9 12.5.1.5.1 1 .2 1.5v9c-.2.4-.5.6-.9.6h-1.9v2.7c0 1-.3 1.9-1.2 2.4-.4.3-.9.4-1.4.6-.9-.1-1.8-.1-2.7-.1z"
  />
</svg>
