<svg xmlns="http://www.w3.org/2000/svg" fill="none" viewBox="0 0 32 32"><path fill="#2B398F" d="M30.125 12.5625H18.7668c1.0998-1.132 2.1707-2.812 2.1707-5.0625 0-2.2153.5134-2.9101.9607-3.268.6869-.5494 1.9519-.7945 4.1018-.7945a.9376.9376 0 0 0 0-1.875c-2.6752 0-4.2029.3493-5.2732 1.2054-1.4751 1.1802-1.6643 3.1489-1.6643 4.7321 0 2.9114-2.5952 4.6431-3.3059 5.0625H1.875c-1.0339 0-1.875.8411-1.875 1.875v14.125c0 1.0339.8411 1.875 1.875 1.875h28.25c1.0339 0 1.875-.8411 1.875-1.875v-14.125c0-1.0339-.8411-1.875-1.875-1.875Zm0 16H1.875v-14.125h28.25c.0012 14.4466.0063 14.125 0 14.125Z"/><path fill="#3749BB" d="M30.125 12.5625H18.7668c1.0998-1.132 2.1707-2.812 2.1707-5.0625 0-2.2153.5134-2.9101.9607-3.268.6869-.5494 1.9519-.7945 4.1018-.7945a.9376.9376 0 0 0 0-1.875c-2.6752 0-4.2029.3493-5.2732 1.2054-1.4751 1.1802-1.6643 3.1489-1.6643 4.7321 0 2.9114-2.5952 4.6431-3.3059 5.0625H1.875c-1.0339 0-1.875.8411-1.875 1.875v14.125c0 1.0339.8411 1.875 1.875 1.875h28.25c1.0339 0 1.875-.8411 1.875-1.875v-14.125c0-1.0339-.8411-1.875-1.875-1.875Zm0 16H1.875v-14.125h28.25c.0012 14.4466.0063 14.125 0 14.125Z"/><path fill="#2B398F" d="M6 24.5625H5a.9376.9376 0 0 0 0 1.875h1a.9376.9376 0 0 0 0-1.875Z"/><path fill="#3749BB" d="M6 24.5625H5a.9376.9376 0 0 0 0 1.875h1a.9376.9376 0 0 0 0-1.875Z"/><path fill="#2B398F" d="M9.4375 21.5a.9376.9376 0 0 0-.9375-.9375h-1a.9376.9376 0 0 0 0 1.875h1a.9376.9376 0 0 0 .9375-.9375Z"/><path fill="#3749BB" d="M9.4375 21.5a.9376.9376 0 0 0-.9375-.9375h-1a.9376.9376 0 0 0 0 1.875h1a.9376.9376 0 0 0 .9375-.9375Z"/><path fill="#2B398F" d="M11.5625 21.5c0 .5177.4198.9375.9375.9375h1a.9376.9376 0 0 0 0-1.875h-1a.9376.9376 0 0 0-.9375.9375Z"/><path fill="#3749BB" d="M11.5625 21.5c0 .5177.4198.9375.9375.9375h1a.9376.9376 0 0 0 0-1.875h-1a.9376.9376 0 0 0-.9375.9375Z"/><path fill="#2B398F" d="M16.5625 21.5c0 .5177.4198.9375.9375.9375h1a.9376.9376 0 0 0 0-1.875h-1a.9376.9376 0 0 0-.9375.9375Z"/><path fill="#3749BB" d="M16.5625 21.5c0 .5177.4198.9375.9375.9375h1a.9376.9376 0 0 0 0-1.875h-1a.9376.9376 0 0 0-.9375.9375Z"/><path fill="#2B398F" d="M23.5 20.5625h-1a.9376.9376 0 0 0 0 1.875h1a.9376.9376 0 0 0 0-1.875Z"/><path fill="#3749BB" d="M23.5 20.5625h-1a.9376.9376 0 0 0 0 1.875h1a.9376.9376 0 0 0 0-1.875Z"/><path fill="#2B398F" d="M26.9375 17.5A.9376.9376 0 0 0 26 16.5625h-1a.9376.9376 0 0 0 0 1.875h1a.9376.9376 0 0 0 .9375-.9375Z"/><path fill="#3749BB" d="M26.9375 17.5A.9376.9376 0 0 0 26 16.5625h-1a.9376.9376 0 0 0 0 1.875h1a.9376.9376 0 0 0 .9375-.9375Z"/><path fill="#2B398F" d="M20 18.4375h1a.9376.9376 0 0 0 0-1.875h-1a.9376.9376 0 0 0 0 1.875Z"/><path fill="#3749BB" d="M20 18.4375h1a.9376.9376 0 0 0 0-1.875h-1a.9376.9376 0 0 0 0 1.875Z"/><path fill="#2B398F" d="M15 18.4375h1a.9376.9376 0 0 0 0-1.875h-1a.9376.9376 0 0 0 0 1.875Z"/><path fill="#3749BB" d="M15 18.4375h1a.9376.9376 0 0 0 0-1.875h-1a.9376.9376 0 0 0 0 1.875Z"/><path fill="#2B398F" d="M10 18.4375h1a.9376.9376 0 0 0 0-1.875h-1a.9376.9376 0 0 0 0 1.875Z"/><path fill="#3749BB" d="M10 18.4375h1a.9376.9376 0 0 0 0-1.875h-1a.9376.9376 0 0 0 0 1.875Z"/><path fill="#2B398F" d="M5 18.4375h1a.9376.9376 0 0 0 0-1.875H5a.9376.9376 0 0 0 0 1.875Z"/><path fill="#3749BB" d="M5 18.4375h1a.9376.9376 0 0 0 0-1.875H5a.9376.9376 0 0 0 0 1.875Z"/><path fill="#2B398F" d="M27 24.5625h-1a.9376.9376 0 0 0 0 1.875h1a.9376.9376 0 0 0 0-1.875Z"/><path fill="#3749BB" d="M27 24.5625h-1a.9376.9376 0 0 0 0 1.875h1a.9376.9376 0 0 0 0-1.875Z"/><path fill="#2B398F" d="M22 24.5625H10a.9376.9376 0 0 0 0 1.875h12a.9376.9376 0 0 0 0-1.875Z"/><path fill="#3749BB" d="M22 24.5625H10a.9376.9376 0 0 0 0 1.875h12a.9376.9376 0 0 0 0-1.875Z"/></svg>