<svg xmlns="http://www.w3.org/2000/svg" fill="none" viewBox="0 0 32 32">
  <path
    fill="#2B398F"
    d="M30.125 2H1.875C.8411 2 0 2.8411 0 3.875V22.5c0 1.0339.8411 1.875 1.875 1.875h9.1875V29H6a.9376.9376 0 0 0 0 1.875h20A.9376.9376 0 0 0 26 29h-5.0625v-4.625h9.1875c1.0339 0 1.875-.8411 1.875-1.875V3.875C32 2.8411 31.1589 2 30.125 2ZM19.0625 29h-6.125v-4.625h6.125V29Zm11.0625-6.5H1.875V3.875h28.25c.0012 19.0295.0063 18.625 0 18.625Z"
  />
  <path
    fill="#3749BB"
    d="M30.125 2H1.875C.8411 2 0 2.8411 0 3.875V22.5c0 1.0339.8411 1.875 1.875 1.875h9.1875V29H6a.9376.9376 0 0 0 0 1.875h20A.9376.9376 0 0 0 26 29h-5.0625v-4.625h9.1875c1.0339 0 1.875-.8411 1.875-1.875V3.875C32 2.8411 31.1589 2 30.125 2ZM19.0625 29h-6.125v-4.625h6.125V29Zm11.0625-6.5H1.875V3.875h28.25c.0012 19.0295.0063 18.625 0 18.625Z"
  />
</svg>
