<?xml version="1.0" encoding="utf-8"?>
<!-- Generator: Adobe Illustrator 25.4.1, SVG Export Plug-In . SVG Version: 6.00 Build 0)  -->
<svg width="32" height="32" version="1.1" id="Layer_1" xmlns="http://www.w3.org/2000/svg" xmlns:xlink="http://www.w3.org/1999/xlink" x="0px" y="0px"
	 viewBox="0 0 32 32" style="enable-background:new 0 0 32 32;" xml:space="preserve">
<style type="text/css">
	.st0{fill:#3749BB;}
</style>
<path class="st0" d="M3.9,31.8c0-4.6,0-9.2,0-13.8c-0.3-0.1-0.6-0.1-0.8-0.1c-0.4,0-0.5-0.1-0.5-0.5c0-2,0-4.1,0-6.1
	c0-3.6,0-7.1,0-10.7c0-0.2-0.1-0.4,0.2-0.6c0.4,0,0.9,0,1.5,0c1,1,1.9,2.1,2.9,3.1c0.9,0,1.7,0,2.7,0c0-0.3,0-0.5,0-0.8
	c0-0.3,0.1-0.4,0.4-0.4c0.1,0,0.2,0,0.3,0c2.9,0,5.8,0,8.7,0c0.2,0,0.3,0,0.5,0c0.4,0.4,0.8,0.8,1.1,1.2c1,0,2,0,2.9,0
	c1.7,0,3.4,0,5.1,0c0.5,0,0.6,0,0.6,0.6c0,4.4,0,8.9,0,13.3c0,4.8,0,9.5,0,14.3c0,0.2,0,0.3,0,0.4C29.3,32,29,32,28.8,32
	c-2.7,0-5.5,0-8.2,0c-5.4,0-10.7,0-16.1,0C4.3,32,4.1,32.1,3.9,31.8z M28.7,3.8c-2.4,0-4.8,0-7.2,0c0.1,0.1,0.2,0.2,0.2,0.4
	c0,0.2-0.1,0.3-0.3,0.4C20.3,5.3,19.2,6.1,18,7c-0.1,0.1-0.3,0.2-0.5,0.2c-2.4,0-4.8,0-7.3,0c-0.2,0-0.3,0-0.4-0.3c0-1,0-2,0-3.1
	c-0.7,0-1.3,0-2,0c0.5,0.5,0.9,1,1.3,1.4c0.2,0.2,0.3,0.4,0.3,0.7c0,2.1,0,4.1,0,6.2c0,0.3-0.1,0.4-0.2,0.6
	c-0.8,0.9-1.6,1.7-2.4,2.6c-0.7,0.8-1.5,1.7-2.2,2.4c0,1.2,0,2.4,0,3.6c0.1,0,0.2,0,0.3,0c0.6,0,1.1,0,1.7,0c0.2,0,0.4,0.1,0.4,0.3
	c0,0.2-0.2,0.3-0.4,0.3c-0.1,0-0.2,0-0.4,0c-0.6,0-1.1,0-1.7,0c0,0.3,0,0.5,0,0.8c0.7,0,1.3,0,2,0c0.2,0,0.3,0,0.4,0.2
	c0.1,0.2,0,0.3-0.2,0.4c-0.7,0-1.4,0-2.2,0c0,0.3,0,0.5,0,0.8c0.8,0,1.5,0,2.2,0C7,24.3,7,24.5,6.9,24.6c-0.1,0.2-0.2,0.2-0.4,0.2
	c-0.7,0-1.3,0-2,0c0,0.3,0,0.5,0,0.8c0.6,0,1.3,0,1.9,0c0.2,0,0.5,0,0.5,0.3c0,0.3-0.3,0.3-0.5,0.3c-0.6,0-1.3,0-1.9,0
	c0,0.3,0,0.5,0,0.8c0.1,0,0.3,0,0.4,0c0.5,0,1,0,1.5,0C6.7,27,7,27,7,27.3c0,0.3-0.2,0.3-0.5,0.3c-0.2,0-0.4,0-0.6,0
	c-0.4,0-0.9,0-1.3,0c0,1.3,0,2.5,0,3.7c8.1,0,16.1,0,24.2,0C28.7,22.2,28.7,13,28.7,3.8z M4.1,17.3c1.5-1.7,3.1-3.4,4.6-5.1
	c0-2.2,0-4.3,0-6.4C7.2,4,5.6,2.3,4,0.6c-0.3,0-0.5,0-0.8,0c0,5.6,0,11.1,0,16.6C3.5,17.3,3.8,17.3,4.1,17.3z M10.5,2.6
	c0,0.5,0,0.9,0,1.3c0.2,0,0.3,0,0.4,0c1.9,0,3.9,0,5.8,0c0.2,0,0.3,0,0.4,0.2c0.1,0.2,0,0.3-0.1,0.4c-2.1,0-4.3,0-6.5,0
	c0,0.7,0,1.3,0,1.9c0.1,0,0.1,0,0.2,0c2.2,0,4.4,0,6.7,0c0.3,0,0.5-0.2,0.8-0.4c-1.8,0-3.4,0-5.1,0c-0.1,0-0.2,0-0.3,0
	c-0.1,0-0.2-0.1-0.2-0.3c0-0.2,0.1-0.3,0.2-0.3c0.1,0,0.2,0,0.3,0c1.9,0,3.8,0,5.7,0c0.1,0,0.3,0,0.4,0c0.6-0.4,1.2-0.9,1.8-1.3
	c-0.5-0.5-1-1-1.5-1.5C16.4,2.6,13.5,2.6,10.5,2.6z"/>
<path class="st0" d="M16.5,12.6c0,0.3,0,0.6,0,0.9c0.3,0.1,0.6,0,0.9,0c0.4,0,0.5,0.2,0.3,0.6c-0.4,0.1-0.8,0-1.2,0
	c-0.1,0.3,0,0.6-0.1,0.8c-0.2,0.2-0.5,0-0.8,0.2c0,0.4,0,0.8,0,1.1c-0.1,0.2-0.3,0.3-0.4,0.2C15,16.3,15,16.2,15,16
	c0-0.3,0-0.6,0-0.9c-0.3-0.1-0.5,0-0.8,0c0,0.4,0,0.8,0,1.1c-0.1,0.2-0.3,0.3-0.4,0.2c-0.1-0.1-0.2-0.2-0.2-0.4c0-0.3,0-0.6,0-0.9
	c-0.3-0.1-0.6,0-0.9,0c0,0.4,0,0.8,0,1.1c-0.1,0.2-0.3,0.3-0.4,0.2C12,16.3,12,16.2,12,16c0-0.3,0-0.6,0-0.9c-0.2,0-0.5,0-0.7,0
	c-0.3-0.2-0.1-0.6-0.2-0.9c-0.4-0.2-1,0.2-1.4-0.3c0.3-0.6,0.9-0.2,1.4-0.4c0-0.2,0-0.4,0-0.7c-0.4-0.2-1,0.2-1.3-0.3
	c0.1-0.4,0.3-0.4,0.6-0.4c0.2,0,0.5,0,0.8,0c0.1-0.3,0-0.6,0-0.9c-0.3,0-0.6,0-0.9,0c-0.2,0-0.4,0-0.4-0.3c0-0.3,0.2-0.3,0.4-0.3
	c0.3,0,0.6,0,0.9,0c0.1-0.3-0.1-0.6,0.1-0.8c0.2-0.2,0.5-0.1,0.7-0.2c0.2-0.4-0.2-1,0.3-1.3c0.2,0,0.3,0.1,0.4,0.2
	c0,0.3,0,0.7,0,1.1c0.3,0,0.5,0,0.7,0c0.2-0.4-0.2-1,0.4-1.4c0.6,0.4,0.2,0.9,0.4,1.4c0.3,0,0.5,0,0.9,0c0-0.3,0-0.6,0-0.9
	c0-0.2,0.1-0.4,0.3-0.4c0.2,0,0.3,0.2,0.3,0.4c0,0.3,0,0.6,0,0.9c0.3,0.1,0.6-0.1,0.8,0.2c0.1,0.2,0,0.5,0.1,0.7
	c0.3,0.1,0.6,0,0.9,0c0.2,0,0.3,0,0.4,0.2c0.1,0.2,0,0.3-0.1,0.4c-0.4,0.1-0.8,0-1.2,0.1c0,0.2,0,0.5,0,0.7c0.3,0.1,0.6,0,0.9,0
	c0.4,0,0.5,0.2,0.3,0.6C17.3,12.6,16.9,12.5,16.5,12.6z M11.8,14.4c1.3,0,2.7,0,4,0c0-1.4,0-2.8,0-4.2c-1.4,0-2.7,0-4,0
	C11.8,11.7,11.8,13,11.8,14.4z"/>
<path class="st0" d="M26.5,25.7c-0.2,0.2-0.3,0.2-0.5,0.2c-1.6,0-3.1,0-4.7,0c-0.2,0-0.4-0.1-0.6-0.2c-0.5-0.5-1-1-1.5-1.5
	c-0.1-0.1-0.2-0.3-0.2-0.5c0-1.6,0-3.1,0-4.7c0-0.4,0.1-0.5,0.5-0.5c1.6,0,3.1,0,4.7,0c0.2,0,0.4,0.1,0.5,0.2c0.5,0.5,1,1,1.5,1.5
	c0.1,0.1,0.2,0.2,0.2,0.4c0,1.7,0,3.3,0,5C26.5,25.6,26.5,25.7,26.5,25.7z M19.7,19.1c0,1.6,0,3.1,0,4.6c0.5,0.5,1.1,1.1,1.6,1.6
	c0.5,0,1,0,1.5,0c0-0.2-0.2-0.2-0.2-0.3c-0.5-0.5-0.9-0.9-1.4-1.4c-0.1-0.1-0.2-0.3,0-0.5c0.1-0.2,0.3-0.1,0.5,0
	c0.1,0.1,0.1,0.1,0.2,0.2c0.6,0.6,1.3,1.3,1.9,1.9c0.7,0,1.4,0,2.1,0c0-1.5,0-3.1,0-4.6c-0.5-0.5-1-1-1.5-1.5c-0.4,0-0.8,0-1.3,0
	c0.1,0.1,0.2,0.2,0.3,0.3c0.4,0.4,0.8,0.8,1.3,1.3c0.2,0.2,0.3,0.3,0.1,0.6c-0.2,0.2-0.4,0.1-0.6-0.1C24.1,21.1,24,21,24,20.9
	c-0.6-0.6-1.2-1.3-1.8-1.9C21.3,19.1,20.5,19.1,19.7,19.1z"/>
<path class="st0" d="M13.6,29.7c0.5-1,1.1-2.1,1.7-3.2c0.2,0,0.3,0,0.4,0c2.8,0,5.6,0,8.4,0c0.2,0,0.5,0,0.5,0.2
	c0,0.2-0.1,0.3-0.1,0.4c-0.6,0.9-1.1,1.8-1.7,2.6C22.7,30,22.5,30,22.2,30c-2.7,0-5.5,0-8.2,0C13.8,30,13.6,30,13.6,29.7z
	 M14.4,29.4c2.6,0,5.3,0,7.9,0c0.5-0.8,1-1.5,1.5-2.3c-2.7,0-5.4,0-8.1,0C15.2,27.9,14.8,28.6,14.4,29.4z"/>
<path class="st0" d="M25.1,12.5c0-1.6,0-3.1,0-4.7c0-0.5,0.1-0.5,0.5-0.5c0.3,0,0.5,0,0.8,0c0.5,0,0.6,0,0.6,0.6c0,2,0,4,0,5.9
	c0,1.2,0,2.4,0,3.6c0,0.4-0.1,0.5-0.5,0.5c-0.3,0-0.6,0-0.9,0c-0.5,0-0.5-0.1-0.5-0.5C25.1,15.7,25.1,14.1,25.1,12.5z M26.3,17.2
	c0-3.1,0-6.2,0-9.3c-0.2,0-0.4,0-0.6,0c0,3.1,0,6.2,0,9.3C25.9,17.2,26.1,17.2,26.3,17.2z"/>
<path class="st0" d="M20.5,12.6c0,1.6,0,3.2,0,4.8c0,0.5,0,0.5-0.6,0.6c-0.2,0-0.4,0-0.7,0c-0.6,0-0.6,0-0.6-0.7c0-1.8,0-3.6,0-5.5
	c0-1.3,0-2.6,0-3.9c0-0.5,0-0.5,0.6-0.6c0.2,0,0.4,0,0.7,0c0.6,0,0.6,0,0.6,0.6C20.5,9.4,20.5,11,20.5,12.6z M19.3,7.9
	c0,3.1,0,6.2,0,9.3c0.2,0,0.4,0,0.6,0c0-3.1,0-6.2,0-9.3C19.6,7.9,19.5,7.9,19.3,7.9z"/>
<path class="st0" d="M20.8,17.7c0-0.1,0-0.2,0-0.3c0-3.2,0-6.3,0-9.5c0-0.5,0-0.6,0.6-0.6c0.3,0,0.5,0,0.8,0c0.4,0,0.5,0.2,0.5,0.5
	c0,0.3,0,0.6,0,0.9c0,2.8,0,5.5,0,8.3c0,0.9,0,0.9-0.8,0.9c-0.2,0-0.4,0-0.6,0C21,17.9,20.9,17.8,20.8,17.7z M21.4,7.9
	c0,3.1,0,6.2,0,9.3c0.2,0,0.4,0,0.6,0c0-3.1,0-6.2,0-9.3C21.8,7.9,21.6,7.9,21.4,7.9z"/>
<path class="st0" d="M24.8,17.7c-0.1,0.2-0.3,0.2-0.4,0.2c-0.3,0-0.6,0-0.9,0c-0.4,0-0.5-0.2-0.5-0.5c0-0.5,0-1.1,0-1.6
	c0-2.6,0-5.3,0-7.9c0-0.5,0.1-0.6,0.6-0.6c0.3,0,0.6,0,0.9,0c0.2,0,0.4,0.1,0.4,0.4c0,0.1,0,0.1,0,0.2c0,3.2,0,6.4,0,9.6
	C24.8,17.5,24.8,17.6,24.8,17.7z M24.1,17.2c0-3.1,0-6.2,0-9.3c-0.2,0-0.4,0-0.6,0c0,3.1,0,6.2,0,9.3C23.8,17.2,23.9,17.2,24.1,17.2
	z"/>
<path class="st0" d="M12.5,30.4c-0.1,0.2-0.3,0.2-0.5,0.2c-1.1,0-2.3,0-3.4,0c-0.4,0-0.5-0.2-0.5-0.5c0-0.7,0-1.4,0-2.1
	c0-0.3,0.1-0.5,0.5-0.5c1.1,0,2.3,0,3.4,0c0.3,0,0.5,0.1,0.5,0.5C12.4,28.8,12.5,29.7,12.5,30.4z M9.3,28.8c0-0.2,0-0.4,0-0.6
	c-0.2,0-0.4,0-0.6,0c0,0.2,0,0.4,0,0.6C8.9,28.8,9.1,28.8,9.3,28.8z M10,28.2c0,0.2,0,0.4,0,0.6c0.2,0,0.4,0,0.6,0
	c0-0.2,0-0.4,0-0.6C10.4,28.2,10.2,28.2,10,28.2z M11.2,28.2c0,0.2,0,0.4,0,0.6c0.2,0,0.4,0,0.6,0c0-0.2,0-0.4,0-0.6
	C11.6,28.2,11.4,28.2,11.2,28.2z M8.7,29.4c0,0.2,0,0.4,0,0.6c0.2,0,0.4,0,0.6,0c0-0.2,0-0.4,0-0.6C9.1,29.4,8.9,29.4,8.7,29.4z
	 M10,30c0.2,0,0.4,0,0.6,0c0-0.2,0-0.4,0-0.6c-0.2,0-0.4,0-0.6,0C10,29.6,10,29.8,10,30z M11.8,30c0-0.2,0-0.4,0-0.6
	c-0.2,0-0.4,0-0.6,0c0,0.2,0,0.4,0,0.6C11.4,30,11.6,30,11.8,30z"/>
<path class="st0" d="M16.3,21c0.2,0.1,0.2,0.3,0.2,0.4c0,0.4,0,0.7,0,1.1c0,0.3-0.1,0.4-0.4,0.4c-2.3,0-4.5,0-6.8,0
	c-0.2,0-0.3-0.1-0.4-0.2c0-0.4,0-0.8,0-1.3c0-0.3,0.2-0.4,0.4-0.4c1,0,1.9,0,2.9,0C13.6,21,15,21,16.3,21z M9.6,22.2
	c2.1,0,4.2,0,6.3,0c0-0.2,0-0.4,0-0.6c-2.1,0-4.2,0-6.3,0C9.6,21.8,9.6,22,9.6,22.2z"/>
<path class="st0" d="M16.3,24c0.2,0.1,0.2,0.3,0.2,0.4c0,0.3,0,0.6,0,0.9c0,0.4-0.2,0.5-0.5,0.5c-1.7,0-3.4,0-5,0c-0.5,0-1,0-1.5,0
	c-0.4,0-0.5-0.1-0.5-0.5c0-0.3,0-0.7,0-1c0-0.2,0.1-0.4,0.4-0.4C11.6,23.9,13.9,23.9,16.3,24C16.3,24,16.3,24,16.3,24z M9.6,25.2
	c2.1,0,4.2,0,6.3,0c0-0.2,0-0.4,0-0.6c-2.1,0-4.2,0-6.3,0C9.6,24.8,9.6,25,9.6,25.2z"/>
<path class="st0" d="M7,19.7c-0.3,0-0.6,0.1-0.6-0.3c0-0.4,0.4-0.3,0.7-0.3c0.1-0.2,0-0.4,0-0.6c-0.3-0.1-0.7,0.1-0.7-0.4
	c0-0.4,0.4-0.2,0.7-0.3c0.1-0.6,0.1-0.6,0.7-0.6c0.5,0,0.9,0,1.4,0c0.6,0,0.6,0,0.6,0.6c0.2,0,0.4,0,0.5,0c0.2,0.1,0.2,0.3,0.1,0.4
	c-0.2,0.2-0.4,0.1-0.7,0.2c0,0.2,0,0.4,0,0.6c0.2,0.1,0.4,0,0.6,0.1c0.1,0.1,0.1,0.2,0.1,0.4c-0.2,0.2-0.4,0.1-0.7,0.2
	c0.1,0.5-0.2,0.5-0.6,0.5c-0.4,0-0.9,0-1.3,0C7.2,20.3,7.2,20.3,7,19.7z M7.7,17.9c0,0.6,0,1.1,0,1.7c0.5,0,0.9,0,1.3,0
	c0-0.6,0-1.1,0-1.7C8.6,17.9,8.2,17.9,7.7,17.9z"/>
<path class="st0" d="M14.8,20.4c-0.9,0-1.6-0.7-1.6-1.7c0-0.9,0.7-1.6,1.7-1.6c0.9,0,1.6,0.7,1.6,1.7C16.4,19.6,15.7,20.4,14.8,20.4
	z M14.8,17.7c-0.6,0-1,0.4-1,1c0,0.6,0.5,1,1,1c0.6,0,1-0.5,1-1C15.8,18.1,15.4,17.7,14.8,17.7z"/>
<path class="st0" d="M7,30c0,0.5-0.5,0.9-1,0.9c-0.5,0-0.9-0.5-0.9-1c0-0.5,0.4-0.9,0.9-0.9C6.6,29,7,29.5,7,30z M6.4,30
	c0-0.2-0.1-0.3-0.3-0.3c-0.2,0-0.3,0.1-0.3,0.3c0,0.2,0.1,0.3,0.3,0.3C6.2,30.3,6.3,30.1,6.4,30z"/>
<path class="st0" d="M28.2,5.2c0,0.5-0.4,0.9-1,0.9c-0.5,0-0.9-0.5-0.9-1c0-0.5,0.4-0.9,0.9-0.9C27.8,4.2,28.2,4.6,28.2,5.2z
	 M27.6,5.1c0-0.2-0.1-0.3-0.3-0.3C27.1,4.9,27,5,27,5.1c0,0.2,0.1,0.3,0.3,0.3C27.5,5.5,27.6,5.3,27.6,5.1z"/>
<path class="st0" d="M26.3,29.9c0-0.5,0.5-0.9,1-0.9c0.5,0,0.9,0.5,0.9,1c0,0.5-0.4,0.9-0.9,0.9C26.8,30.9,26.3,30.5,26.3,29.9z
	 M27.3,29.7c-0.2,0-0.3,0.1-0.3,0.3c0,0.2,0.1,0.3,0.3,0.3c0.2,0,0.3-0.1,0.3-0.3C27.6,29.8,27.5,29.7,27.3,29.7z"/>
<path class="st0" d="M4,6.5C3.9,6.3,3.9,6.1,4.1,6C4.3,6,4.4,6,4.5,6.2C5.7,7.3,6.8,8.5,8,9.7c0.1,0.1,0.2,0.3,0.1,0.5
	c-0.2,0.2-0.3,0.1-0.5,0C6.4,8.9,5.1,7.7,4,6.5z"/>
<path class="st0" d="M8.2,7c0,0.3-0.3,0.4-0.5,0.3c-0.1,0-0.1-0.1-0.2-0.2C6.4,6,5.3,4.9,4.2,3.8C4.1,3.7,4,3.7,4,3.6
	C3.9,3.5,3.9,3.3,4,3.2c0.1-0.1,0.2-0.1,0.4,0c0.1,0,0.1,0.1,0.1,0.1C5.7,4.4,6.8,5.6,8,6.7C8.1,6.8,8.2,6.9,8.2,7z"/>
<path class="st0" d="M4.2,8.9c0.1,0,0.2,0.1,0.3,0.2c0.8,0.8,1.5,1.5,2.3,2.3c0.2,0.2,0.3,0.3,0.1,0.5c-0.2,0.2-0.3,0.1-0.5,0
	C5.6,11,4.9,10.3,4.1,9.5C4,9.4,3.9,9.2,4,9.1C4,9,4.1,8.9,4.2,8.9z"/>
<path class="st0" d="M6,13.5c-0.2,0.4-0.3,0.4-0.6,0.2c-0.4-0.4-0.9-0.9-1.3-1.3c-0.1-0.1-0.2-0.3,0-0.5c0.1-0.1,0.3-0.1,0.4,0
	c0.5,0.5,1,1,1.5,1.5C5.9,13.4,6,13.4,6,13.5z"/>
<path class="st0" d="M15.5,10.7c0,1.1,0,2.2,0,3.4c-1.2,0-2.3,0-3.4,0C12,14,12,13.8,12,13.7c0-0.9,0-1.8,0-2.6
	c0-0.3,0.1-0.5,0.5-0.5c0.9,0,1.8,0,2.7,0C15.3,10.6,15.4,10.6,15.5,10.7z M12.6,11.2c0,0.8,0,1.5,0,2.3c0.8,0,1.5,0,2.3,0
	c0-0.8,0-1.5,0-2.3C14.2,11.2,13.4,11.2,12.6,11.2z"/>
<path class="st0" d="M15.8,29.2c-0.3,0-0.5-0.2-0.5-0.5c0-0.3,0.2-0.5,0.4-0.5c0.3,0,0.5,0.2,0.5,0.5C16.2,29,16.1,29.2,15.8,29.2z"
	/>
<path class="st0" d="M22.3,28.3c-0.3,0-0.5-0.2-0.5-0.5c0-0.3,0.2-0.5,0.5-0.5c0.3,0,0.5,0.2,0.5,0.5C22.8,28.1,22.6,28.2,22.3,28.3
	z"/>
</svg>
