<svg xmlns="http://www.w3.org/2000/svg" xml:space="preserve" viewBox="0 0 32 32"><path d="M3.9 31.8V18c-.3-.1-.6-.1-.8-.1-.4 0-.5-.1-.5-.5V.6c0-.2-.1-.4.2-.6h1.5c1 1 1.9 2.1 2.9 3.1h2.7v-.8c0-.3.1-.4.4-.4h9.5c.4.4.8.8 1.1 1.2h8c.5 0 .6 0 .6.6v28c-.2.3-.5.3-.7.3H4.5c-.2 0-.4.1-.6-.2zm24.8-28h-7.2c.1.1.2.2.2.4s-.1.3-.3.4c-1.1.7-2.2 1.5-3.4 2.4-.1.1-.3.2-.5.2h-7.3c-.2 0-.3 0-.4-.3V3.8h-2c.5.5.9 1 1.3 1.4.2.2.3.4.3.7v6.2c0 .3-.1.4-.2.6-.8.9-1.6 1.7-2.4 2.6-.7.8-1.5 1.7-2.2 2.4v3.6h2c.2 0 .4.1.4.3 0 .2-.2.3-.4.3H4.5v.8h2c.2 0 .3 0 .4.2.1.2 0 .3-.2.4H4.5v.8h2.2c.3.2.3.4.2.5-.1.2-.2.2-.4.2h-2v.8h1.9c.2 0 .5 0 .5.3s-.3.3-.5.3H4.5v.8h1.9c.3 0 .6 0 .6.3s-.2.3-.5.3H4.6v3.7h24.2c-.1-9.1-.1-18.3-.1-27.5zM4.1 17.3c1.5-1.7 3.1-3.4 4.6-5.1V5.8C7.2 4 5.6 2.3 4 .6h-.8v16.6c.3.1.6.1.9.1zm6.4-14.7v1.3h6.2c.2 0 .3 0 .4.2.1.2 0 .3-.1.4h-6.5v1.9h6.9c.3 0 .5-.2.8-.4h-5.4c-.1 0-.2-.1-.2-.3 0-.2.1-.3.2-.3h6.4c.6-.4 1.2-.9 1.8-1.3l-1.5-1.5h-9z" fill="#3749bb"/><path d="M16.5 12.6v.9c.3.1.6 0 .9 0 .4 0 .5.2.3.6-.4.1-.8 0-1.2 0-.1.3 0 .6-.1.8-.2.2-.5 0-.8.2v1.1c-.1.2-.3.3-.4.2-.2-.1-.2-.2-.2-.4v-.9c-.3-.1-.5 0-.8 0v1.1c-.1.2-.3.3-.4.2-.1-.1-.2-.2-.2-.4v-.9c-.3-.1-.6 0-.9 0v1.1c-.1.2-.3.3-.4.2-.3-.1-.3-.2-.3-.4v-.9h-.7c-.3-.2-.1-.6-.2-.9-.4-.2-1 .2-1.4-.3.3-.6.9-.2 1.4-.4v-.7c-.4-.2-1 .2-1.3-.3.1-.4.3-.4.6-.4h.8c.1-.3 0-.6 0-.9h-.9c-.2 0-.4 0-.4-.3s.2-.3.4-.3h.9c.1-.3-.1-.6.1-.8.2-.2.5-.1.7-.2.2-.4-.2-1 .3-1.3.2 0 .3.1.4.2v1.1h.7c.2-.4-.2-1 .4-1.4.6.4.2.9.4 1.4h.9v-.9c0-.2.1-.4.3-.4.2 0 .3.2.3.4v.9c.3.1.6-.1.8.2.1.2 0 .5.1.7.3.1.6 0 .9 0 .2 0 .3 0 .4.2.1.2 0 .3-.1.4-.4.1-.8 0-1.2.1v.7c.3.1.6 0 .9 0 .4 0 .5.2.3.6-.5.1-.9 0-1.3.1zm-4.7 1.8h4v-4.2h-4v4.2zm14.7 11.3c-.2.2-.3.2-.5.2h-4.7c-.2 0-.4-.1-.6-.2l-1.5-1.5c-.1-.1-.2-.3-.2-.5V19c0-.4.1-.5.5-.5h4.7c.2 0 .4.1.5.2l1.5 1.5c.1.1.2.2.2.4v5c.1 0 .1.1.1.1zm-6.8-6.6v4.6l1.6 1.6h1.5c0-.2-.2-.2-.2-.3l-1.4-1.4c-.1-.1-.2-.3 0-.5.1-.2.3-.1.5 0l.2.2 1.9 1.9h2.1v-4.6l-1.5-1.5h-1.3l.3.3 1.3 1.3c.2.2.3.3.1.6-.2.2-.4.1-.6-.1-.1-.1-.2-.2-.2-.3-.6-.6-1.2-1.3-1.8-1.9-.9.1-1.7.1-2.5.1zm-6.1 10.6c.5-1 1.1-2.1 1.7-3.2h8.8c.2 0 .5 0 .5.2s-.1.3-.1.4c-.6.9-1.1 1.8-1.7 2.6-.1.3-.3.3-.6.3H14c-.2 0-.4 0-.4-.3zm.8-.3h7.9c.5-.8 1-1.5 1.5-2.3h-8.1c-.5.8-.9 1.5-1.3 2.3zm10.7-16.9V7.8c0-.5.1-.5.5-.5h.8c.5 0 .6 0 .6.6v9.5c0 .4-.1.5-.5.5h-.9c-.5 0-.5-.1-.5-.5v-4.9zm1.2 4.7V7.9h-.6v9.3h.6zm-5.8-4.6v4.8c0 .5 0 .5-.6.6h-.7c-.6 0-.6 0-.6-.7V7.9c0-.5 0-.5.6-.6h.7c.6 0 .6 0 .6.6v4.7zm-1.2-4.7v9.3h.6V7.9h-.6zm1.5 9.8V7.9c0-.5 0-.6.6-.6h.8c.4 0 .5.2.5.5V17c0 .9 0 .9-.8.9h-.6c-.3 0-.4-.1-.5-.2zm.6-9.8v9.3h.6V7.9h-.6zm3.4 9.8c-.1.2-.3.2-.4.2h-.9c-.4 0-.5-.2-.5-.5V7.9c0-.5.1-.6.6-.6h.9c.2 0 .4.1.4.4v9.8c-.1 0-.1.1-.1.2zm-.7-.5V7.9h-.6v9.3h.6zM12.5 30.4c-.1.2-.3.2-.5.2H8.6c-.4 0-.5-.2-.5-.5V28c0-.3.1-.5.5-.5H12c.3 0 .5.1.5.5-.1.8 0 1.7 0 2.4zm-3.2-1.6v-.6h-.6v.6h.6zm.7-.6v.6h.6v-.6H10zm1.2 0v.6h.6v-.6h-.6zm-2.5 1.2v.6h.6v-.6h-.6zm1.3.6h.6v-.6H10v.6zm1.8 0v-.6h-.6v.6h.6zm4.5-9c.2.1.2.3.2.4v1.1c0 .3-.1.4-.4.4H9.3c-.2 0-.3-.1-.4-.2v-1.3c0-.3.2-.4.4-.4h7zm-6.7 1.2h6.3v-.6H9.6v.6zm6.7 1.8c.2.1.2.3.2.4v.9c0 .4-.2.5-.5.5H9.5c-.4 0-.5-.1-.5-.5v-1c0-.2.1-.4.4-.4 2.2 0 4.5 0 6.9.1zm-6.7 1.2h6.3v-.6H9.6v.6zM7 19.7c-.3 0-.6.1-.6-.3s.4-.3.7-.3c.1-.2 0-.4 0-.6-.3-.1-.7.1-.7-.4 0-.4.4-.2.7-.3.1-.6.1-.6.7-.6h1.4c.6 0 .6 0 .6.6h.5c.2.1.2.3.1.4-.2.2-.4.1-.7.2v.6c.2.1.4 0 .6.1.1.1.1.2.1.4-.2.2-.4.1-.7.2.1.5-.2.5-.6.5H7.8c-.6.1-.6.1-.8-.5zm.7-1.8v1.7H9v-1.7H7.7zm7.1 2.5c-.9 0-1.6-.7-1.6-1.7 0-.9.7-1.6 1.7-1.6.9 0 1.6.7 1.6 1.7-.1.8-.8 1.6-1.7 1.6zm0-2.7c-.6 0-1 .4-1 1s.5 1 1 1c.6 0 1-.5 1-1 0-.6-.4-1-1-1zM7 30c0 .5-.5.9-1 .9s-.9-.5-.9-1 .4-.9.9-.9c.6 0 1 .5 1 1zm-.6 0c0-.2-.1-.3-.3-.3-.2 0-.3.1-.3.3 0 .2.1.3.3.3.1 0 .2-.2.3-.3zM28.2 5.2c0 .5-.4.9-1 .9-.5 0-.9-.5-.9-1s.4-.9.9-.9c.6 0 1 .4 1 1zm-.6-.1c0-.2-.1-.3-.3-.3-.2.1-.3.2-.3.3 0 .2.1.3.3.3.2.1.3-.1.3-.3zm-1.3 24.8c0-.5.5-.9 1-.9s.9.5.9 1-.4.9-.9.9-1-.4-1-1zm1-.2c-.2 0-.3.1-.3.3 0 .2.1.3.3.3.2 0 .3-.1.3-.3 0-.2-.1-.3-.3-.3zM4 6.5c-.1-.2-.1-.4.1-.5.2 0 .3 0 .4.2C5.7 7.3 6.8 8.5 8 9.7c.1.1.2.3.1.5-.2.2-.3.1-.5 0C6.4 8.9 5.1 7.7 4 6.5zm4.2.5c0 .3-.3.4-.5.3-.1 0-.1-.1-.2-.2L4.2 3.8c-.1-.1-.2-.1-.2-.2-.1-.1-.1-.3 0-.4.1-.1.2-.1.4 0 .1 0 .1.1.1.1C5.7 4.4 6.8 5.6 8 6.7c.1.1.2.2.2.3zm-4 1.9c.1 0 .2.1.3.2l2.3 2.3c.2.2.3.3.1.5-.2.2-.3.1-.5 0-.8-.9-1.5-1.6-2.3-2.4-.1-.1-.2-.3-.1-.4 0-.1.1-.2.2-.2zM6 13.5c-.2.4-.3.4-.6.2l-1.3-1.3c-.1-.1-.2-.3 0-.5.1-.1.3-.1.4 0L6 13.4c-.1 0 0 0 0 .1z" fill="#3749bb"/><path d="M15.5 10.7v3.4h-3.4c-.1-.1-.1-.3-.1-.4v-2.6c0-.3.1-.5.5-.5h2.7c.1 0 .2 0 .3.1zm-2.9.5v2.3h2.3v-2.3h-2.3zm3.2 18c-.3 0-.5-.2-.5-.5s.2-.5.4-.5c.3 0 .5.2.5.5s-.1.5-.4.5zm6.5-.9c-.3 0-.5-.2-.5-.5s.2-.5.5-.5.5.2.5.5-.2.4-.5.5z" fill="#3749bb"/></svg>