<svg xmlns="http://www.w3.org/2000/svg" fill="none" viewBox="0 0 32 32">
  <path
    fill="#550A8A"
    d="M29.58 0c0 3.8363-.0011 2.847 0 3.0149.0426 3.0256-4.2932 4.596-5.7787 5.0449l-1.3514-1.3514c-2.9014-2.9015-7.6225-2.9016-10.5241 0l-9.1976 9.1975c-2.9082 2.9081-2.9087 7.6156 0 10.5242l3.3886 3.3886c2.908 2.9081 7.6156 2.9086 10.5242 0l9.1976-9.1976c2.9015-2.9015 2.9015-7.6227 0-10.5241l-.5529-.553c2.2696-.8299 6.2177-2.812 6.1704-6.5483V0H29.58ZM13.2523 8.035c2.1697-2.1697 5.7007-2.1705 7.8711 0l1.0752 1.0752-3.3804 3.3804c-1.0661-.5303-2.4245-.4054-3.4395.6094l-3.652-3.5395 1.5256-1.5256Zm5.0108 7.8407-1.0613 1.0613a1.0558 1.0558 0 0 1-.7517.3113c-.9449 0-1.4169-1.1496-.7517-1.8148l1.0612-1.0613a1.0626 1.0626 0 0 1 1.5035 0c.4145.4145.4145 1.089 0 1.5035Zm-2.9487 12.6164c-2.175 2.175-5.6957 2.1754-7.871 0l-3.3886-3.3886c-2.175-2.175-2.1753-5.6957 0-7.871L10.4 10.8872l3.6769 3.5638c-.8406 1.149-.7424 2.7752.2949 3.8125 1.0471 1.0472 2.6796 1.1357 3.8243.2868l3.53 3.53-6.4117 6.4118Zm9.1976-9.1976-1.4593 1.4593-3.5073-3.5073c1.0015-1.0016 1.124-2.3667.5984-3.4284l3.3814-3.3814.9868.9868c2.17 2.1701 2.17 5.7009 0 7.871Z"
  />
  <path
    fill="#6A0DAD"
    d="M29.58 0c0 3.8363-.0011 2.847 0 3.0149.0426 3.0256-4.2932 4.596-5.7787 5.0449l-1.3514-1.3514c-2.9014-2.9015-7.6225-2.9016-10.5241 0l-9.1976 9.1975c-2.9082 2.9081-2.9087 7.6156 0 10.5242l3.3886 3.3886c2.908 2.9081 7.6156 2.9086 10.5242 0l9.1976-9.1976c2.9015-2.9015 2.9015-7.6227 0-10.5241l-.5529-.553c2.2696-.8299 6.2177-2.812 6.1704-6.5483V0H29.58ZM13.2523 8.035c2.1697-2.1697 5.7007-2.1705 7.8711 0l1.0752 1.0752-3.3804 3.3804c-1.0661-.5303-2.4245-.4054-3.4395.6094l-3.652-3.5395 1.5256-1.5256Zm5.0108 7.8407-1.0613 1.0613a1.0558 1.0558 0 0 1-.7517.3113c-.9449 0-1.4169-1.1496-.7517-1.8148l1.0612-1.0613a1.0626 1.0626 0 0 1 1.5035 0c.4145.4145.4145 1.089 0 1.5035Zm-2.9487 12.6164c-2.175 2.175-5.6957 2.1754-7.871 0l-3.3886-3.3886c-2.175-2.175-2.1753-5.6957 0-7.871L10.4 10.8872l3.6769 3.5638c-.8406 1.149-.7424 2.7752.2949 3.8125 1.0471 1.0472 2.6796 1.1357 3.8243.2868l3.53 3.53-6.4117 6.4118Zm9.1976-9.1976-1.4593 1.4593-3.5073-3.5073c1.0015-1.0016 1.124-2.3667.5984-3.4284l3.3814-3.3814.9868.9868c2.17 2.1701 2.17 5.7009 0 7.871Z"
  />
</svg>
