<svg xmlns="http://www.w3.org/2000/svg" fill="none" viewBox="0 0 32 32">
  <path
    fill="#550A8A"
    d="M19 10h6c.5522 0 1-.4477 1-1V6.5a1 1 0 0 0-.2929-.707l-1.5-1.5A.9999.9999 0 0 0 23.5 4h-3a.9999.9999 0 0 0-.7071.293l-1.5 1.5A1.0001 1.0001 0 0 0 18 6.5V9c0 .5523.4478 1 1 1Zm1-3.0858L20.9142 6h2.1716L24 6.9142V8h-4V6.9142Z"
  />
  <path
    fill="#6A0DAD"
    d="M19 10h6c.5522 0 1-.4477 1-1V6.5a1 1 0 0 0-.2929-.707l-1.5-1.5A.9999.9999 0 0 0 23.5 4h-3a.9999.9999 0 0 0-.7071.293l-1.5 1.5A1.0001 1.0001 0 0 0 18 6.5V9c0 .5523.4478 1 1 1Zm1-3.0858L20.9142 6h2.1716L24 6.9142V8h-4V6.9142Z"
  />
  <path
    fill="#550A8A"
    d="M19 18h6c.5522 0 1-.4477 1-1v-2.5c0-.2652-.1054-.5196-.2929-.7071l-1.5-1.5A1.0001 1.0001 0 0 0 23.5 12h-3c-.2652 0-.5196.1054-.7071.2929l-1.5 1.5A1.0003 1.0003 0 0 0 18 14.5V17c0 .5523.4478 1 1 1Zm1-3.0858L20.9142 14h2.1716l.9142.9142V16h-4v-1.0858Z"
  />
  <path
    fill="#6A0DAD"
    d="M19 18h6c.5522 0 1-.4477 1-1v-2.5c0-.2652-.1054-.5196-.2929-.7071l-1.5-1.5A1.0001 1.0001 0 0 0 23.5 12h-3c-.2652 0-.5196.1054-.7071.2929l-1.5 1.5A1.0003 1.0003 0 0 0 18 14.5V17c0 .5523.4478 1 1 1Zm1-3.0858L20.9142 14h2.1716l.9142.9142V16h-4v-1.0858Z"
  />
  <path
    fill="#550A8A"
    d="M4.0001 9.991C3.9959 13.3284 6.7126 16 9.9991 16c3.2279 0 5.9741-2.5843 6.0007-5.991C16.0041 6.6684 13.2838 4 10 4 6.7772 4 4.0267 6.5803 4 9.991Zm2.4438 1.8369c1.1863.3418 2.2054.1637 3.2603-.4433.3937.7208.4714 1.4106-.2258 2.5803-1.3238-.1733-2.4456-.9958-3.0346-2.137Zm5.3846 1.7278c.3964-1.3758.0413-2.4166-.444-3.26.7208-.3937 1.4107-.4713 2.5803.2258-.1731 1.3236-.9954 2.4451-2.1363 3.0342Zm1.7272-5.3843c-1.3758-.3963-2.4167-.0413-3.26.444-.3937-.7208-.4713-1.4106.2258-2.5803 1.3236.1732 2.4451.9955 3.0342 2.1363ZM8.1714 6.4443c-.3964 1.3758-.0413 2.4166.444 3.26-.7208.3936-1.4107.4712-2.5803-.2259.1732-1.3235.9954-2.445 2.1363-3.0342Z"
  />
  <path
    fill="#6A0DAD"
    d="M4.0001 9.991C3.9959 13.3284 6.7126 16 9.9991 16c3.2279 0 5.9741-2.5843 6.0007-5.991C16.0041 6.6684 13.2838 4 10 4 6.7772 4 4.0267 6.5803 4 9.991Zm2.4438 1.8369c1.1863.3418 2.2054.1637 3.2603-.4433.3937.7208.4714 1.4106-.2258 2.5803-1.3238-.1733-2.4456-.9958-3.0346-2.137Zm5.3846 1.7278c.3964-1.3758.0413-2.4166-.444-3.26.7208-.3937 1.4107-.4713 2.5803.2258-.1731 1.3236-.9954 2.4451-2.1363 3.0342Zm1.7272-5.3843c-1.3758-.3963-2.4167-.0413-3.26.444-.3937-.7208-.4713-1.4106.2258-2.5803 1.3236.1732 2.4451.9955 3.0342 2.1363ZM8.1714 6.4443c-.3964 1.3758-.0413 2.4166.444 3.26-.7208.3936-1.4107.4712-2.5803-.2259.1732-1.3235.9954-2.445 2.1363-3.0342Z"
  />
  <path
    fill="#550A8A"
    d="M31 29h-2v-2h2c.5522 0 1-.4477 1-1s-.4478-1-1-1h-2c0-.5523-.4478-1-1-1h-1.9375c-1.6468 0-3 1.3371-3 3.0031C22.9832 26.9982 23.75 27 8.5 27 7.1215 27 6 25.8785 6 24.5V22h23c.5522 0 1-.4477 1-1V1c0-.5523-.4478-1-1-1H1C.4477 0 0 .4477 0 1v20c0 .5523.4477 1 1 1h3v2.5C4 26.9813 6.0187 29 8.5 29c12.6969 0 14.5625-.0064 14.5625 0 0 1.6542 1.3458 3 3 3H28c.5522 0 1-.4477 1-1h2c.5522 0 1-.4477 1-1s-.4478-1-1-1ZM2 20V2h26v18H6v-2c0-.5523-.4478-1-1-1s-1 .4477-1 1v2H2Zm24.0625 10c-.5514 0-1-.4486-1-1v-2c0-.5514.4486-1 1-1H27v4h-.9375Z"
  />
  <path
    fill="#6A0DAD"
    d="M31 29h-2v-2h2c.5522 0 1-.4477 1-1s-.4478-1-1-1h-2c0-.5523-.4478-1-1-1h-1.9375c-1.6468 0-3 1.3371-3 3.0031C22.9832 26.9982 23.75 27 8.5 27 7.1215 27 6 25.8785 6 24.5V22h23c.5522 0 1-.4477 1-1V1c0-.5523-.4478-1-1-1H1C.4477 0 0 .4477 0 1v20c0 .5523.4477 1 1 1h3v2.5C4 26.9813 6.0187 29 8.5 29c12.6969 0 14.5625-.0064 14.5625 0 0 1.6542 1.3458 3 3 3H28c.5522 0 1-.4477 1-1h2c.5522 0 1-.4477 1-1s-.4478-1-1-1ZM2 20V2h26v18H6v-2c0-.5523-.4478-1-1-1s-1 .4477-1 1v2H2Zm24.0625 10c-.5514 0-1-.4486-1-1v-2c0-.5514.4486-1 1-1H27v4h-.9375Z"
  />
</svg>
