<svg xmlns="http://www.w3.org/2000/svg" fill="none" viewBox="0 0 32 32">
  <g clip-path="url(#a)">
    <path
      fill="#550A8A"
      d="m31.7244 12.3998-1.3995-1.3995.1741-.1741c.7327-.7327.7329-1.9188 0-2.6516L24.3252 2.001l.3996-.3996c.3661-.366.3661-.9596 0-1.3257-.366-.366-.9596-.366-1.3257 0L.2756 23.399c-.5923.5923-.1646 1.6003.6629 1.6003a.9345.9345 0 0 0 .6628-.2746l.3996-.3996 6.1738 6.1738c.731.7309 1.9205.731 2.6514 0l.1742-.1742 1.3995 1.3995a.9345.9345 0 0 0 .6629.2746c.8276 0 1.2551-1.008.6628-1.6002L12.326 28.999 14 27.325l1.3371 1.337a.9345.9345 0 0 0 .6628.2746c.8276 0 1.2552-1.0081.6628-1.6003l-1.337-1.337 4.6739-4.6739 1.3369 1.3371a.935.935 0 0 0 .6629.2746c.8276 0 1.2551-1.0081.6628-1.6003l-1.337-1.337 1.6741-1.6741 1.337 1.337a.9343.9343 0 0 0 .6628.2746c.8276 0 1.2552-1.008.6628-1.6003L24.325 17l1.674-1.6741 1.337 1.3371a.9349.9349 0 0 0 .6628.2746c.8277 0 1.2552-1.0081.6629-1.6003l-1.337-1.337 1.6741-1.6741 1.3995 1.3995a.9341.9341 0 0 0 .6628.2746c.8281-.0002 1.2556-1.0082.6633-1.6005Zm-6.8008-7.149-2.674 2.674-1.9241-1.9241 2.6741-2.674 1.924 1.924ZM14.5001 11.826l1.924 1.9241-2.674 2.674-1.924-1.9241 2.674-2.674ZM3.3267 22.9996l2.674-2.6741 1.924 1.9241-2.674 2.674-1.924-1.924Zm3.2498 3.2497 3.3368-3.3369c.3661-.366.3661-.9596 0-1.3257l-2.5869-2.5869 3.174-3.174 2.5869 2.5869c.3661.3662.9596.3661 1.3257 0l3.9997-3.9997c.3661-.366.3661-.9596 0-1.3257l-2.5869-2.587 3.174-3.174 2.5869 2.587c.3661.3662.9596.3661 1.3257 0l3.3369-3.337 2.924 2.924-19.6729 19.673-2.924-2.924Z"
    />
    <path
      fill="#6A0DAD"
      d="m31.7244 12.3998-1.3995-1.3995.1741-.1741c.7327-.7327.7329-1.9188 0-2.6516L24.3252 2.001l.3996-.3996c.3661-.366.3661-.9596 0-1.3257-.366-.366-.9596-.366-1.3257 0L.2756 23.399c-.5923.5923-.1646 1.6003.6629 1.6003a.9345.9345 0 0 0 .6628-.2746l.3996-.3996 6.1738 6.1738c.731.7309 1.9205.731 2.6514 0l.1742-.1742 1.3995 1.3995a.9345.9345 0 0 0 .6629.2746c.8276 0 1.2551-1.008.6628-1.6002L12.326 28.999 14 27.325l1.3371 1.337a.9345.9345 0 0 0 .6628.2746c.8276 0 1.2552-1.0081.6628-1.6003l-1.337-1.337 4.6739-4.6739 1.3369 1.3371a.935.935 0 0 0 .6629.2746c.8276 0 1.2551-1.0081.6628-1.6003l-1.337-1.337 1.6741-1.6741 1.337 1.337a.9343.9343 0 0 0 .6628.2746c.8276 0 1.2552-1.008.6628-1.6003L24.325 17l1.674-1.6741 1.337 1.3371a.9349.9349 0 0 0 .6628.2746c.8277 0 1.2552-1.0081.6629-1.6003l-1.337-1.337 1.6741-1.6741 1.3995 1.3995a.9341.9341 0 0 0 .6628.2746c.8281-.0002 1.2556-1.0082.6633-1.6005Zm-6.8008-7.149-2.674 2.674-1.9241-1.9241 2.6741-2.674 1.924 1.924ZM14.5001 11.826l1.924 1.9241-2.674 2.674-1.924-1.9241 2.674-2.674ZM3.3267 22.9996l2.674-2.6741 1.924 1.9241-2.674 2.674-1.924-1.924Zm3.2498 3.2497 3.3368-3.3369c.3661-.366.3661-.9596 0-1.3257l-2.5869-2.5869 3.174-3.174 2.5869 2.5869c.3661.3662.9596.3661 1.3257 0l3.9997-3.9997c.3661-.366.3661-.9596 0-1.3257l-2.5869-2.587 3.174-3.174 2.5869 2.587c.3661.3662.9596.3661 1.3257 0l3.3369-3.337 2.924 2.924-19.6729 19.673-2.924-2.924Z"
    />
  </g>
  <defs>
    <clipPath id="a"><path fill="#fff" d="M0 0h32v32H0z" /></clipPath>
  </defs>
</svg>
