<?xml version="1.0" encoding="utf-8"?><svg
  xmlns="http://www.w3.org/2000/svg"
  viewBox="0 0 94.01 122.88"
>
  <g>
    <path
      fill="#6A0DAD"
      d="M5.16,0h83.68c1.42,0,2.7,0.58,3.64,1.51l0.01,0.01c0.93,0.93,1.52,2.22,1.52,3.64v91.57v20.98c0,1.42-0.58,2.7-1.52,3.64 l-0.01,0.01c-0.93,0.93-2.22,1.52-3.64,1.52H5.16c-1.42,0-2.71-0.58-3.65-1.52C0.58,120.43,0,119.14,0,117.72V96.73V5.16 c0-1.42,0.58-2.7,1.52-3.64l0.01-0.01C2.46,0.58,3.75,0,5.16,0L5.16,0z M34.24,30.06h-7.82v-2.4c0-1.12-0.1-1.84-0.3-2.14 c-0.2-0.31-0.53-0.46-0.99-0.46c-0.51,0-0.89,0.2-1.15,0.62c-0.26,0.41-0.39,1.03-0.39,1.87c0,1.08,0.15,1.89,0.44,2.44 c0.29,0.54,1.08,1.2,2.38,1.98c3.73,2.23,6.09,4.07,7.06,5.49c0.98,1.43,1.46,3.73,1.46,6.89c0,2.31-0.27,4.01-0.81,5.11 c-0.54,1.09-1.58,2.01-3.13,2.74c-1.54,0.74-3.34,1.11-5.39,1.11c-2.25,0-4.17-0.43-5.77-1.28c-1.59-0.85-2.63-1.94-3.13-3.26 c-0.49-1.32-0.74-3.2-0.74-5.62v-2.12h7.82v3.94c0,1.21,0.11,1.99,0.33,2.34c0.22,0.35,0.61,0.52,1.17,0.52 c0.56,0,0.98-0.22,1.25-0.66c0.27-0.44,0.41-1.09,0.41-1.95c0-1.9-0.26-3.15-0.78-3.73c-0.54-0.59-1.85-1.57-3.94-2.95 c-2.09-1.39-3.47-2.4-4.15-3.02c-0.68-0.63-1.24-1.49-1.69-2.6c-0.44-1.11-0.67-2.52-0.67-4.24c0-2.48,0.31-4.29,0.95-5.44 c0.63-1.15,1.65-2.04,3.06-2.69c1.41-0.65,3.11-0.97,5.11-0.97c2.18,0,4.04,0.36,5.58,1.06c1.54,0.71,2.55,1.6,3.05,2.68 c0.5,1.07,0.75,2.89,0.75,5.47V30.06L34.24,30.06z M55.42,30.06H47.6v-2.4c0-1.12-0.1-1.84-0.3-2.14c-0.2-0.31-0.53-0.46-0.99-0.46 c-0.51,0-0.89,0.2-1.15,0.62c-0.26,0.41-0.39,1.03-0.39,1.87c0,1.08,0.15,1.89,0.44,2.44c0.29,0.54,1.08,1.2,2.38,1.98 c3.73,2.23,6.09,4.07,7.06,5.49c0.98,1.43,1.46,3.73,1.46,6.89c0,2.31-0.27,4.01-0.81,5.11c-0.54,1.09-1.58,2.01-3.13,2.74 c-1.54,0.74-3.34,1.11-5.39,1.11c-2.25,0-4.17-0.43-5.77-1.28c-1.59-0.85-2.63-1.94-3.13-3.26c-0.49-1.32-0.74-3.2-0.74-5.62v-2.12 h7.82v3.94c0,1.21,0.11,1.99,0.33,2.34c0.22,0.35,0.61,0.52,1.17,0.52c0.56,0,0.98-0.22,1.25-0.66c0.27-0.44,0.41-1.09,0.41-1.95 c0-1.9-0.26-3.15-0.78-3.73c-0.54-0.59-1.85-1.57-3.94-2.95c-2.09-1.39-3.47-2.4-4.15-3.02c-0.68-0.63-1.24-1.49-1.69-2.6 c-0.44-1.11-0.67-2.52-0.67-4.24c0-2.48,0.31-4.29,0.95-5.44c0.63-1.15,1.65-2.04,3.06-2.69c1.41-0.65,3.11-0.97,5.11-0.97 c2.18,0,4.04,0.36,5.58,1.06c1.54,0.71,2.55,1.6,3.05,2.68c0.5,1.07,0.75,2.89,0.75,5.47V30.06L55.42,30.06z M58.79,20.23h6.3 c4.06,0,6.81,0.18,8.25,0.56c1.43,0.38,2.53,0.99,3.27,1.84c0.74,0.85,1.22,1.8,1.4,2.85c0.18,1.05,0.28,3.11,0.28,6.18v11.34 c0,2.91-0.14,4.85-0.41,5.83c-0.27,0.98-0.75,1.75-1.43,2.31c-0.68,0.55-1.52,0.93-2.53,1.16c-1,0.22-2.51,0.33-4.52,0.33H58.79 V20.23L58.79,20.23z M67.22,25.76V47.1c1.19,0,1.93-0.25,2.21-0.73c0.28-0.49,0.42-1.82,0.42-3.98v-12.6 c0-1.47-0.05-2.41-0.14-2.83c-0.1-0.42-0.3-0.72-0.63-0.91C68.74,25.86,68.13,25.76,67.22,25.76L67.22,25.76z M70.78,105.4h10.88 c0.55,0,1,0.45,1,1v3.83c0,0.55-0.45,1-1,1H70.78c-0.55,0-1-0.45-1-1v-3.83C69.79,105.85,70.24,105.4,70.78,105.4L70.78,105.4z M5.34,94.06h83.33V5.34H5.34V94.06L5.34,94.06z M88.67,99.4H5.34v18.14h83.33V99.4L88.67,99.4z"
    />
  </g>
</svg>
