<svg xmlns="http://www.w3.org/2000/svg" xml:space="preserve" viewBox="0 0 240 234"><path fill="#00005b" d="M43 0h155c23 0 42 19 42 43v149c0 23-19 42-42 42H43c-24 0-43-19-43-42V43C0 19 19 0 43 0z"/><path fill="#9999FF" d="M57 164V61l1-1h13l9-1h9c8 0 15 1 21 3 5 2 9 5 13 9 3 3 6 7 7 11a36 36 0 0 1-4 34c-3 6-9 10-15 12-7 3-15 4-23 4h-9v32l-1 1H58l-1-1zm22-85v34h9c4 0 8 0 12-2 3-1 6-2 8-5 2-2 3-6 3-10l-3-9c-1-3-4-5-6-6l-12-2H79zm68 6h18l2 2v2a33 33 0 0 1 1 7c3-4 6-6 11-9 4-2 9-4 15-4l1 2v19l-1 2a43 43 0 0 0-20 3l-5 4v51l-1 1h-20c-1 1-1 0-1-1v-63l-1-8v-7l1-1z" class="st1"/></svg>