<svg xmlns="http://www.w3.org/2000/svg" xml:space="preserve" viewBox="0 0 240 234"><path fill="#001e36" d="M43 0h155c23 0 42 19 42 43v149c0 23-19 42-42 42H43c-24 0-43-19-43-42V43C0 19 19 0 43 0z"/><path fill="#31A8FF" d="M54 164V61l1-1h22l9-1c8 0 15 1 21 4 5 1 9 4 13 8 3 3 6 7 7 11a36 36 0 0 1-4 34c-3 6-9 10-16 13-6 2-14 3-22 3h-9v32l-1 1H55l-1-1zm22-85v34h9c4 0 8 0 12-2 3 0 6-2 8-5 2-2 3-6 3-10l-3-9c-1-3-4-5-6-6l-12-2H76zm116 28c-3-2-6-3-10-3l-11-2-6 1-3 2-1 3 1 2 4 3 7 3 15 8c4 2 6 4 8 8 2 3 3 7 2 10a23 23 0 0 1-15 22c-5 2-11 4-18 4a69 69 0 0 1-24-5l-1-2v-17l1-1h1l12 5 12 1 8-1c2-1 3-2 3-4s-1-3-3-4c-1-2-4-3-9-5l-15-7c-3-2-5-5-7-9-2-3-3-6-2-10a24 24 0 0 1 13-21c5-3 11-4 18-4l13 1 8 3h1v19h-2z" class="st1"/></svg>