<svg xmlns="http://www.w3.org/2000/svg" viewBox="0 0 128 128"><path fill="none" d="M4.2 4.2h119.6v119.6H4.2z"/><path fill="#bfcedb" d="M109 28.6 71.3 6.2a14.3 14.3 0 0 0-14.6 0L19 28.6a15 15 0 0 0-7.3 13v44.8a15 15 0 0 0 7.3 13l37.7 22.4a14.2 14.2 0 0 0 14.6 0L109 99.4a15 15 0 0 0 7.3-13V41.6a15 15 0 0 0-7.3-13zm-29.2 70v3.2c0 .4-.2.8-.5 1l-2 1.1c-.2.1-.5 0-.5-.4v-3.2c-1.6.7-3.3.8-4.3.4-.2 0-.3-.3-.2-.7l.6-2.9.4-.6.2-.1h.3c1.1.3 2.6.2 4-.5 1.7-1 3-2.8 3-4.6-.1-1.6-1-2.3-3.1-2.3-2.8 0-5.3-.5-5.4-4.6 0-3.3 1.7-6.7 4.5-9v-3.2c0-.4.2-.8.5-1L79 70c.3-.1.6 0 .6.5v3.2a6 6 0 0 1 3.6-.4c.3 0 .4.4.3.7l-.8 3-.3.5a.8.8 0 0 1-.2.1H82c-.4 0-1.6-.3-3.4.6-2 1-2.6 2.7-2.6 4 0 1.4.8 1.8 3.4 1.9 3.5 0 5 1.6 5 5 0 3.5-1.8 7.2-4.6 9.5zM106 38 70.4 60c-4.4 2.6-7.7 5.6-7.7 11v44c0 3.1 1.3 5.2 3.3 5.8l-2 .2c-2 0-4.2-.6-6-1.6L20.3 97c-3.7-2.2-6-6.3-6-10.7V41.6c0-4.4 2.3-8.5 6-10.7L58.1 8.5a11.7 11.7 0 0 1 11.9 0L107.7 31c3.1 1.9 5.2 5 5.8 8.7-1.3-2.7-4-3.4-7.4-1.5z"/><path fill="#4FA847" d="m99.1 90.7-9.4 5.7c-.2.1-.4.3-.4.6v2.4c0 .3.2.4.4.3l9.6-5.8c.2-.1.3-.4.3-.7V91c0-.3-.2-.4-.5-.3z"/></svg>