<svg xmlns="http://www.w3.org/2000/svg" viewBox="0 0 128 128"><path fill="#1572B6" d="M18.8 114.1 8.8 1.4h110.4l-10 112.7-45.3 12.5-45-12.5z"/><path fill="#33A9DC" d="m64 117 36.6-10 8.6-96.4H64V117z"/><path fill="#fff" d="M64 51.4h18.3l1.3-14.1H64V23.4h34.7l-.3 3.7L95 65.3H64V51.4z"/><path fill="#EBEBEB" d="m64 87.3-15.4-4-1-11.1H33.8l1.9 21.7 28.3 7.9V87.2z"/><path fill="#fff" d="m81.1 64.7-1.6 18.5L64 87.4v14.4l28.4-8 .2-2.2 2.4-27H81.1z"/><path fill="#EBEBEB" d="M64 23.4v13.9H30.6l-.2-3.1-.7-7-.3-3.8H64zm0 28v13.9H48.8l-.3-3.1-.6-7-.3-3.8H64z"/></svg>