<svg xmlns="http://www.w3.org/2000/svg" viewBox="0 0 400 400"><path fill="#fad244" d="M254 72c-4 1-1 3 8 7 27 11 57 28 60 36 3 6 3 54 0 67-5 18-13 29-27 38-6 3-7 5-9 11-9 29-46 32-59 5-2-4-4-6-6-7l-2-1h-20c-26 0-24 0-28 8-12 23-34 25-54 6-5-5-5-5-8-5-7 0-19 17-17 25 1 11 39 31 68 37 46 9 91 3 140-19 11-5 14-5 12-1-3 6-19 17-32 22-12 5-12 6-3 17s10 12 18 11c27-1 56-14 75-33 10-10 11-12 11-21-1-49-18-118-41-165-4-9-9-13-27-22-20-11-53-20-59-16"/><path fill="#356fa1" d="M254 69c-6 1-7 6-1 8l6 3c28 10 60 29 63 37v57a60 60 0 0 1-31 47c-3 2-4 4-6 9-10 29-42 32-57 5l-6-7-2-1h-21c-27 0-25-1-30 8s-11 15-20 17c-10 3-20-1-31-11-5-5-6-6-9-6-9 0-22 22-18 30 3 8 26 22 47 29a209 209 0 0 0 153-8c15-6 17-7 15-4-2 5-16 14-28 19-12 4-12 6-2 18s11 12 22 11c29-3 55-15 73-33 11-11 11-13 11-29-3-48-14-97-34-143-9-23-11-25-27-34-21-13-54-24-67-22m-118 2c-17 2-41 11-59 22-13 8-14 9-21 23-22 49-35 104-37 155 0 11 0 14 6 20 17 21 48 36 80 39 7 0 9-1 17-11 10-12 10-14 0-18-15-7-25-14-35-23-9-10-10-14-6-24 4-14 11-22 23-31 4-3 5-5 6-8l1-5c9-31 47-33 60-4 4 8 3 8 27 8 25 0 24 0 28-8 13-26 39-28 56-4 5 7 8 7 15 0 13-13 16-26 16-63 0-20 0-20-11-27-24-16-54-26-83-29-34-2-68 2-104 12-16 5-19 5-16 2 5-4 16-10 33-17l14-7c0-2-4-3-10-2m129 1c19 2 38 10 57 21 14 8 15 10 23 27 21 49 35 109 36 155 0 9-1 11-11 21-19 19-48 32-75 33-8 1-9 0-18-11s-9-12 3-17c13-5 29-16 32-22 2-4-1-4-12 1-49 22-94 28-140 19-29-6-67-26-68-37-2-8 10-25 17-25 3 0 3 0 8 5 20 19 42 17 54-6 4-8 2-8 28-8h20l2 1c2 1 4 3 6 7 13 27 50 24 59-5 2-6 3-8 9-11 14-9 22-20 27-38 3-13 3-61 0-67-3-8-33-25-60-36-15-6-13-10 3-7"/></svg>