<svg xmlns="http://www.w3.org/2000/svg" xml:space="preserve" viewBox="0 0 2290 2130"><path fill="#185C37" d="M1438 1012 533 852v1180c0 54 43 98 97 98h1562c54 0 98-44 98-98v-434l-852-586z"/><path fill="#21A366" d="M1438 0H630c-54 0-97 44-97 98v435l905 532 479 160 373-160V533L1438 0z"/><path fill="#107C41" d="M533 533h905v532H533V533z"/><path d="M1180 426H533v1331h647c54 0 98-44 98-97V524c0-54-44-98-98-98z" opacity=".1"/><path d="M1127 479H533v1332h594c54-1 98-44 98-98V577c0-54-44-98-98-98z" opacity=".2"/><path d="M1127 479H533v1225h594c54 0 98-44 98-98V577c0-54-44-98-98-98z" opacity=".2"/><path d="M1074 479H533v1225h541c54 0 97-44 98-98V577c-1-54-44-98-98-98z" opacity=".2"/><linearGradient id="a" x1="203.5" x2="968" y1="1729" y2="405" gradientTransform="matrix(1 0 0 -1 0 2132)" gradientUnits="userSpaceOnUse"><stop offset="0" stop-color="#18884f"/><stop offset=".5" stop-color="#117e43"/><stop offset="1" stop-color="#0b6631"/></linearGradient><path fill="url(#a)" d="M98 479h976c54 0 97 44 97 98v976c0 54-43 98-97 98H98c-54 0-98-44-98-98V577c0-54 44-98 98-98z"/><path fill="#FFF" d="m302 1382 206-318-188-316h151l103 202 19 43h1l22-45 109-200h139l-193 314 198 320H721l-118-222c-6-9-11-19-14-30h-2c-4 11-8 20-14 29l-122 223H302z"/><path fill="#33C481" d="M2192 0h-754v533h852V98c0-54-44-98-98-98z"/><path fill="#107C41" d="M1438 1065h852v533h-852v-533z"/></svg>