<svg xmlns="http://www.w3.org/2000/svg" viewBox="0 0 128 128"><path fill="#0074BD" d="M47.6 98.1s-4.8 2.8 3.4 3.7c10 1.2 15 1 25.9-1 0 0 2.8 1.7 6.8 3.3-24.4 10.5-55.3-.6-36-6zm-3-13.6s-5.3 4 2.9 4.8c10.5 1 18.9 1.1 33.3-1.6 0 0 2 2 5.1 3-29.5 8.7-62.4.8-41.3-6.2z"/><path fill="#EA2D2E" d="M69.8 61.3c6 7-1.6 13.1-1.6 13.1s15.3-7.9 8.3-17.7C69.9 47.4 64.9 42.9 92 27c0 0-42.7 10.7-22.3 34.2z"/><path fill="#0074BD" d="M102.1 108.2s3.6 3-3.9 5.2c-14 4.3-58.7 5.5-71 .2-4.5-2 3.8-4.7 6.5-5.2 2.7-.6 4.3-.5 4.3-.5-5-3.5-32 6.8-13.8 9.8 49.8 8 90.8-3.6 78-9.5zM50 70.2s-22.7 5.5-8 7.4c6.2.9 18.5.7 30-.3 9.4-.8 18.8-2.5 18.8-2.5S87.4 76.3 85 78c-23 6-67.5 3.2-54.7-3 10.8-5.2 19.6-4.6 19.6-4.6zM90.6 93c23.4-12.1 12.6-23.8 5-22.2-1.8.3-2.6.7-2.6.7s.7-1.1 2-1.6c15-5.2 26.4 15.5-4.9 23.8l.5-.7z"/><path fill="#EA2D2E" d="M76.5 1.6s13 13-12.3 33c-20.3 16-4.6 25 0 35.5C52.3 59.4 43.7 50 49.5 41.3c8.5-12.9 32.2-19.1 27-39.7z"/><path fill="#0074BD" d="M52.2 126c22.5 1.5 57-.8 57.8-11.4 0 0-1.5 4-18.5 7.2a184.7 184.7 0 0 1-57 .9s3 2.4 17.7 3.3z"/></svg>