<svg xmlns="http://www.w3.org/2000/svg" viewBox="0 0 128 128"><path fill="#F0DB4F" d="M1.4 1.4h125.2v125.2H1.4z"/><path fill="#323330" d="M116.3 96.7c-.9-5.7-4.6-10.5-15.6-15-3.9-1.7-8.1-3-9.4-5.9-.5-1.7-.5-2.6-.2-3.6.8-3.4 4.8-4.4 7.9-3.4 2 .6 4 2.2 5 4.7l9.3-5.9a23.4 23.4 0 0 0-3-4c-3.3-3.7-7.7-5.5-14.8-5.4l-3.7.5c-3.5.9-7 2.7-8.9 5.2-6 6.7-4.2 18.5 3 23.4 7 5.3 17.5 6.5 18.9 11.5 1.3 6-4.5 8-10.3 7.4-4.2-1-6.6-3-9.1-7l-9.5 5.5c1.1 2.5 2.3 3.6 4.2 5.8 9.1 9.2 31.8 8.7 35.9-5.2.1-.5 1.2-3.6.3-8.6zM69.5 59H57.8v30.3c0 6.5.2 12.4-.8 14.2-1.7 3.5-6.2 3-8.2 2.4a10 10 0 0 1-4.3-4.5l-.7-1-9.5 5.8c1.6 3.2 4 6 7 7.9a22.7 22.7 0 0 0 16.6 2c4.1-1.2 7.6-3.6 9.5-7.4 2.7-4.9 2-10.8 2-17.4V58.9z"/></svg>