<svg xmlns="http://www.w3.org/2000/svg" viewBox="0 0 128 128"><path fill="#0074BD" d="M48 98s-5 3 3 4c10 1 15 1 26-1l7 3c-25 11-56-1-36-6zm-3-14s-6 5 3 5c10 1 18 1 33-1l5 3c-30 8-63 1-41-6z"/><path fill="#EA2D2E" d="M70 61c6 7-2 13-2 13s16-8 9-17c-7-10-12-14 15-30 0 0-43 11-22 34z"/><path fill="#0074BD" d="M102 108s4 3-4 5c-14 5-59 6-71 1-4-2 4-5 7-6h4c-5-4-32 7-14 10 50 8 91-4 78-10zM50 70s-23 6-8 8a160 160 0 0 0 49-3l-6 3c-23 6-67 3-55-3 11-5 20-5 20-5zm41 23c23-12 12-24 5-22h-3l2-1c15-5 26 15-5 24l1-1z"/><path fill="#EA2D2E" d="M77 2s13 13-13 33c-20 16-4 25 0 35-12-11-20-20-14-29 8-13 32-19 27-39z"/><path fill="#0074BD" d="M52 126c23 2 57-1 58-11 0 0-1 4-18 7a185 185 0 0 1-57 1s3 2 17 3z"/></svg>