<svg xmlns="http://www.w3.org/2000/svg" xmlns:xlink="http://www.w3.org/1999/xlink" viewBox="0 0 160 160"><defs><linearGradient id="a"><stop offset="0"/><stop offset="1" stop-color="#fff"/></linearGradient><linearGradient xlink:href="#a" id="c" x1="-553.3" x2="-666.1" y1="525.9" y2="413" gradientTransform="matrix(.99884 0 0 .9987 689 -389)" gradientUnits="userSpaceOnUse"/><linearGradient xlink:href="#a" id="b" x1="-666.1" x2="-553.3" y1="413" y2="525.9" gradientTransform="matrix(.99884 0 0 .9987 689 -389)" gradientUnits="userSpaceOnUse"/></defs><path fill="url(#b)" fill-rule="evenodd" d="M80 119c35 48 70-13 70-51 0-43-45-68-70-68A81 81 0 0 0 0 80c0 52 45 80 80 80-8-1-35-7-35-68 0-41 14-58 35-51 0 1 23 10 23 39 0 30-23 39-23 39z" color="#000" overflow="visible" style="marker:none"/><path fill="url(#c)" fill-rule="evenodd" d="M80 41c-24-8-52 12-52 50 0 63 47 69 52 69a81 81 0 0 0 80-80c0-51-45-80-80-80 10-1 53 11 53 69 0 38-32 59-53 50-1 0-24-9-24-39 0-29 24-39 24-39z" color="#000" overflow="visible" style="marker:none"/></svg>