<svg xmlns="http://www.w3.org/2000/svg" xmlns:xlink="http://www.w3.org/1999/xlink" id="svg-001" version="1.1" viewBox="0 0 160 160"><defs id="gradients-001"><linearGradient id="linearGradient8385"><stop id="stop8387" offset="0" style="stop-color:#000;stop-opacity:1"/><stop id="stop8389" offset="1" style="stop-color:#fff;stop-opacity:1"/></linearGradient><linearGradient xlink:href="#linearGradient8385" id="linearGradient3002" x1="-553.3" x2="-666.1" y1="525.9" y2="413" gradientTransform="matrix(.99884 0 0 .9987 689 -388.8)" gradientUnits="userSpaceOnUse"/><linearGradient xlink:href="#linearGradient8385" id="linearGradient3005" x1="-666.1" x2="-553.3" y1="413" y2="525.9" gradientTransform="matrix(.99884 0 0 .9987 689 -388.8)" gradientUnits="userSpaceOnUse"/></defs><path id="path7508" d="M79.9 119.1c35.4 48.3 70-13.5 70-50.6-.1-43.9-44.6-68.4-70-68.4A80.7 80.7 0 0 0 0 80.1C0 131.5 44.6 160 79.8 160c-8-1.1-34.5-6.8-34.8-68-.3-41.3 13.5-57.8 34.8-50.6.5.2 23.5 9.3 23.5 39 0 29.5-23.4 38.7-23.4 38.7z" style="color:#000;fill:url(#linearGradient3005);fill-opacity:1;fill-rule:evenodd;stroke:none;stroke-width:.5;marker:none;visibility:visible;display:inline;overflow:visible"/><path id="path7510" d="M79.8 41.4c-23.4-8-52 11.2-52 49.8 0 63 46.7 68.8 52.4 68.8A80.7 80.7 0 0 0 160 80C160 28.6 115.4 0 80.2 0c9.7-1.4 52.5 10.5 52.5 69 0 38.2-32 59-52.7 50-.5-.1-23.5-9.2-23.5-38.9 0-29.5 23.3-38.8 23.3-38.8z" style="color:#000;fill:url(#linearGradient3002);fill-opacity:1;fill-rule:evenodd;stroke:none;stroke-width:.5;marker:none;visibility:visible;display:inline;overflow:visible"/></svg>