<svg xmlns="http://www.w3.org/2000/svg" viewBox="0 0 128 128"><path d="M93.8 92.1c.8-6.5.6-7.5 5.4-6.4h1.3c3.7.3 8.6-.5 11.5-1.9 6.2-2.8 9.8-7.6 3.7-6.4-13.9 3-14.9-1.8-14.9-1.8 14.8-21.8 20.9-49.5 15.6-56.3-14.5-18.5-39.5-9.7-40-9.5-2.8-.6-6-.9-9.4-1a23 23 0 0 0-14.7 4.5S7.6-5.3 9.7 36.4c.5 8.8 12.7 66.9 27.3 49.4 5.3-6.4 10.5-11.9 10.5-11.9 2.5 1.7 5.6 2.6 8.8 2.3l.2-.2.1 2.5C53 82.7 54 83.4 46.5 85c-7.6 1.5-3.2 4.3-.2 5 3.5 1 11.7 2.2 17.2-5.6l-.2 1c1.5 1.1 1.4 8.4 1.6 13.6.2 5.2.5 10 1.6 13 1 2.8 2.3 10.2 12.2 8.1 8.2-1.8 14.5-4.3 15.1-28"/><path d="M75.5 125.3c-4.4 0-7.3-1.7-9-3.4-2.6-2.4-3.6-5.6-4.2-7.5l-.3-.8a51 51 0 0 1-2-14.4v-3l-.1-2.6a18.8 18.8 0 0 1-5 1.6c-3 .5-6.4.3-9.8-.5-2.4-.6-5-1.9-6.4-3.8a10.3 10.3 0 0 1-10.4 2.4c-3.9-1.3-7.3-4.9-10.5-11A159.6 159.6 0 0 1 5 36.7C4.2 23.6 7.7 14.3 15.2 9 27.2.8 45.1 5.7 51.7 8 56 5.3 61.3 4 67 4.1c3.2 0 6.1.3 9 .8 2.8-1 8.6-2.2 15.1-2.2 12 .2 22.1 4.9 29 13.7 4.9 6.2 2.4 19.3.6 26.6a119.2 119.2 0 0 1-13 30.6c1.5 0 3.8-.2 7-.8 6.2-1.3 8 2 8.6 3.5 2 6-6.7 10.6-9.4 11.9a32.9 32.9 0 0 1-13.8 2.4h-.2l-1.2-.2v1l-.2 1c-.3 12-2 19.7-5.6 24.7-3.7 5.2-8.8 6.7-13.3 7.7-1.6.3-3 .5-4.2.5zm-9.2-43.7c2.8 2.2 3 6.5 3.3 14.4v2.8a51.7 51.7 0 0 0 1.8 12.6c1 3.4 1.6 5 6.3 4 3.9-.8 6-1.6 7.5-3.8 2.3-3.3 3.6-9.9 3.8-19.6l4.8.1-4.7-.6.1-1.1c.5-4 .8-6.8 3.4-8.6 2-1.5 4.5-1.4 6.4-1a7.2 7.2 0 0 1-2.8-4.2l-.4-2 1-1.7a109 109 0 0 0 14.7-32.3c2.9-11.2 2-17.2 1.1-18.3-11.7-15-32-8.8-34.2-8.1l-.3.2-1.8.3-1-.2c-2.5-.5-5.3-.8-8.3-.9-4.8 0-8.6 1-11.8 3.5L53 18.7l-2.5-1c-5.4-2.2-21.3-6.7-29.7-.7-4.6 3.3-6.8 9.7-6.3 19.2.2 3 2.3 14.9 5.8 26.3 4.8 15.9 9.2 21.1 11 21.7.3.1 1.2-.5 2-1.5a270.7 270.7 0 0 1 10.7-12l2.8-3L50 70c1.4 1 2.9 1.5 4.4 1.5l8-6.8-1.2 11.8v1.3l.4 2.3-1.5 1.7-.2.2 4.4 2 1.9-2.3z"/><path fill="#336791" d="M115.7 77.4c-13.9 3-14.9-1.8-14.9-1.8 14.8-21.8 20.9-49.5 15.6-56.3-14.5-18.5-39.5-9.7-40-9.5-2.8-.6-6-.9-9.4-1a23 23 0 0 0-14.7 4.5S7.6-5.2 9.7 36.4c.5 8.8 12.7 66.9 27.3 49.4 5.3-6.4 10.5-11.9 10.5-11.9 2.5 1.7 5.6 2.6 8.8 2.3l.2-.2.1 2.5c-3.7 4.2-2.6 5-10.1 6.5-7.6 1.5-3.2 4.3-.2 5 3.5 1 11.7 2.2 17.2-5.6l-.2 1c1.4 1.1 2.5 7.6 2.3 13.5-.2 5.9-.3 9.9.9 13 1.1 3.2 2.3 10.3 12.2 8.2 8.2-1.8 12.5-6.4 13-14 .5-5.4 1.5-4.6 1.5-9.5l.8-2.3c.9-7.4.1-9.7 5.2-8.6h1.3c3.7.3 8.6-.5 11.5-1.9 6.2-2.8 9.8-7.6 3.7-6.4z"/><path fill="#fff" d="M76 122.3c-8.3 0-10.9-6.5-12-9.2-1.5-3.9-1.8-19-1.5-31.5a1.6 1.6 0 0 1 1.6-1.5 1.6 1.6 0 0 1 1.6 1.6A137 137 0 0 0 67 112c1.8 4.5 4.6 8.5 12.3 6.8 7.3-1.5 10-4.3 11.3-11.4 1-5.5 2.8-21 3-24a1.6 1.6 0 0 1 1.7-1.5 1.6 1.6 0 0 1 1.5 1.7c-.2 3.2-2 18.7-3 24.3-1.5 8.4-5.2 12.2-13.8 14-1.5.4-2.8.5-4 .5zM31.3 90.5a6.7 6.7 0 0 1-2.1-.4c-5.3-1.8-10.4-10.5-15.1-25.9-3.6-11.7-5.9-24-6-27.9-.7-11.8 2.4-20.1 9-24.8 13-9.2 34.8-.4 35.8 0a1.6 1.6 0 0 1-1.2 3c-.3-.2-21.2-8.6-32.8-.4-5.6 4-8.2 11.4-7.7 22 .2 3.4 2.3 15.3 6 27.2 4.1 13.7 8.9 22.4 13 23.8.7.2 2.6.9 5.5-2.5A245.3 245.3 0 0 1 45.9 73a1.6 1.6 0 0 1 2.3 2.3s-4.9 5-10 11.3c-2.6 3-5 3.9-6.9 3.9zM100.8 77a1.6 1.6 0 0 1-1.4-2.5c14.9-22 20.1-48.7 15.6-54.4A29.3 29.3 0 0 0 91.4 9a44.4 44.4 0 0 0-14.3 2l-.2.1c-1 .3-1.7-.2-2-.8a1.6 1.6 0 0 1 .6-2L76 8c1.7-.6 7.7-2.4 15.1-2.3 11.1 0 20.3 4.4 26.6 12.4 3 3.7 3 12.4 0 23.8-3 11.7-8.7 24.2-15.5 34.3-.3.5-.8.7-1.4.7zm.7 10.2a13 13 0 0 1-6.2-1.1c-1.4-.9-1.6-2-1.7-2.6-.3-6.7 3.4-8 5.2-8.4l-1-1.4c-1-1.4-2.6-3.2-3.8-6-.1-.5-.7-1.5-1.4-2.7-3.5-6.4-11-19.8-6.2-26.6 2.2-3.2 6.6-4.4 13.1-3.7-1.9-5.9-11-24-32.6-24.4a20.9 20.9 0 0 0-15.8 5.9c-9 9-8.7 25.4-8.6 25.6a1.6 1.6 0 1 1-3.2 0c0-.7-.4-17.8 9.5-27.8A24 24 0 0 1 67 7c13.8.3 22.7 7.3 27.7 13.2a36.7 36.7 0 0 1 8.4 15.7c.1 1.8-1.1 2.1-1.4 2.2h-.5c-6.4-1-10.5-.3-12.2 2.1-3.6 5.2 3.4 17.8 6.4 23.2l1.6 3c1 2.4 2.3 4 3.3 5.3a9 9 0 0 1 2 3.3c.1.2 2 3 13 .7 2.8-.6 4.4 0 5 1.5 1 3-4.7 6.5-7.8 8a29 29 0 0 1-11 2zm-4.7-4c.4.4 2.1 1 5.7.8 3.3-.1 6.7-.8 8.7-1.8 2.6-1.2 4.4-2.5 5.3-3.5l-.5.1c-7 1.5-12 1.3-14.9-.5a6.2 6.2 0 0 1-.5-.4l-.8.2c-1.6.4-3.2 1-3 5.1zm-45.5 9c-1.8 0-3.6-.3-5.5-.8-2-.5-5.3-2-5.2-4.4 0-2.7 4-3.5 5.5-3.8 5.3-1 5.7-1.5 7.3-3.6l2-2.4c1.2-1.3 2.5-2 4-2 1 0 1.8.3 2.3.5 1.7.7 3.1 2.4 3.7 4.5.5 1.8.3 3.6-.7 5a16 16 0 0 1-13.4 7zm-7.3-5c.5.4 1.5.9 2.5 1.1 1.7.4 3.3.6 4.8.6 4.5 0 8.1-1.8 10.8-5.6.6-.7.4-1.7.2-2.2-.3-1.1-1-2.1-1.8-2.4l-1.1-.3c-.2 0-.8 0-1.7 1a41.1 41.1 0 0 0-1.8 2.1c-2 2.7-3 3.6-9.2 4.8a10 10 0 0 0-2.7.9zm12.3-7.4a1.6 1.6 0 0 1-1.6-1.3 8.2 8.2 0 0 1 0-.8c-4.1-.1-8-1.9-11-5-3.8-3.9-5.5-9.3-4.7-14.9.8-6 .5-11.4.3-14.2v-1.8c0-.5 0-1.8 4.5-4A25 25 0 0 1 52 35c5.8-.6 9.6 2 10.7 7.3 3.1 14.2.3 20.5-1.8 25L60 70l-.3.7c-1 3-2 5.5-1.7 7.4a1.6 1.6 0 0 1-1.4 1.8h-.2zM42.5 42.3v1.1c.2 3 .5 8.5-.4 14.9-.6 4.5.8 9 3.9 12.2 2.4 2.6 5.6 4 9 4 .4-1.6 1-3.2 1.6-5l.3-.7 1.1-2.6c2-4.4 4.5-10 1.6-23.2-.5-2.6-2-4-4.2-4.6-4.6-1-11.5 2.5-13 3.9zm9.6-.7c0 .5 1 2 2.5 2.3 1.4.2 2.7-1 2.7-1.6.1-.5-1-1.2-2.4-1.4-1.5-.2-2.7.1-2.8.7zm2.8 2.8h-.4c-.9-.1-1.8-.7-2.4-1.5-.2-.3-.6-.9-.5-1.4 0-.7 1-1.2 2.4-1.2a7 7 0 0 1 3 .7c.8.5 1 1.1.9 1.4-.1.8-1.4 2-3 2zm-2.3-2.7c0 .3 1 1.5 2 1.6h.3c1 0 1.8-.8 2-1-.2-.2-.8-.7-2.1-.8a5.8 5.8 0 0 0-.8-.1c-.8 0-1.3.2-1.4.3zm43.6-1.3c.1.6-1 2.1-2.5 2.3-1.4.2-2.6-1-2.7-1.5-.1-.6 1-1.2 2.5-1.4 1.4-.2 2.6 0 2.7.6zM93.4 43c-1.4 0-2.6-1-2.7-1.8-.1-.8 1.3-1.5 2.7-1.7h1c1.2 0 2 .3 2 .9.1.4-.1 1-.6 1.5-.4.3-1 1-2 1h-.4zm1-3h-.9c-1.4.2-2.3.8-2.3 1.1 0 .4 1 1.4 2.2 1.4h.3a3 3 0 0 0 1.7-1c.4-.4.6-.9.6-1 0-.2-.6-.5-1.6-.5zm4 32.8a1.6 1.6 0 0 1-1.4-2.5c3.4-5 2.8-10.2 2.2-15.2-.3-2.1-.6-4.4-.5-6.5 0-2.1.4-4 .6-5.7.3-2 .6-4 .5-6.3a1.6 1.6 0 1 1 3.2-.2c.1 2.7-.2 4.9-.5 7-.3 1.6-.5 3.3-.6 5.3 0 2 .2 3.9.4 6 .7 5.3 1.4 11.4-2.7 17.4a1.6 1.6 0 0 1-1.3.7z"/></svg>