<svg xmlns="http://www.w3.org/2000/svg" viewBox="0 0 128 128"><path d="M94 92c1-6 0-7 5-6h2l11-2c6-3 10-8 4-7-14 3-15-1-15-1 15-22 21-50 15-57-14-18-39-9-40-9l-9-1a23 23 0 0 0-15 4S8-5 10 36c0 9 12 67 27 50 5-7 11-12 11-12 2 2 5 2 8 2l1 2c-4 5-3 5-10 7-8 2-4 4-1 5 4 1 12 2 17-6v1c2 2 2 9 2 14l1 13c1 3 3 10 13 8 8-2 14-4 15-28"/><path d="M76 125c-5 0-8-1-9-3l-5-8a51 51 0 0 1-2-15v-5a19 19 0 0 1-5 1H45c-2-1-5-2-6-4a10 10 0 0 1-11 2c-4-1-7-5-10-11A160 160 0 0 1 5 37C4 24 8 14 15 9c12-8 30-3 37-1 4-3 9-4 15-4l9 1 15-2c12 0 22 5 29 13 5 7 2 20 1 27a119 119 0 0 1-13 31l7-1c6-2 8 2 8 3 2 6-6 11-9 12a33 33 0 0 1-14 3l-1-1v1l-1 1c0 12-2 20-5 25-4 5-9 7-13 8h-5zM66 82c3 2 3 6 4 14v3a52 52 0 0 0 1 12c1 4 2 5 7 4 4 0 6-1 7-3 2-4 4-10 4-20h5l-5-1v-1c1-4 1-6 4-8 2-2 4-2 6-1a7 7 0 0 1-3-4v-2l1-2a109 109 0 0 0 14-32c3-12 2-18 2-19-12-15-32-8-35-8l-2 1h-1l-8-1c-5 0-9 1-12 3l-2 2-2-1c-6-3-22-7-30-1-5 3-7 10-6 19l5 27c5 15 10 21 11 21l2-1a271 271 0 0 1 11-12l3-3 3 2 4 2 8-7-1 12v1l1 2-2 2 4 2 2-2z"/><path fill="#336791" d="M116 77c-14 3-15-1-15-1 15-22 21-50 15-57-14-18-39-9-40-9l-9-1a23 23 0 0 0-15 4S8-5 10 36c0 9 12 67 27 50 5-7 11-12 11-12 2 2 5 2 8 2l1 2c-4 5-3 5-10 7-8 1-4 4-1 5 4 1 12 2 17-6v1c2 1 3 8 3 14v13c2 3 3 10 13 8 8-2 12-6 13-14l1-9 1-3c1-7 0-9 5-8h2l11-2c6-3 10-8 4-7z"/><path fill="#fff" d="M76 122c-8 0-11-6-12-9-1-4-2-19-1-31a2 2 0 0 1 1-2 2 2 0 0 1 2 2 137 137 0 0 0 1 30c2 5 5 9 12 7 8-2 10-5 12-12l3-24a2 2 0 0 1 1-1 2 2 0 0 1 2 2l-3 24c-2 8-5 12-14 14h-4zM31 91a7 7 0 0 1-2-1c-5-2-10-10-15-26-4-12-6-24-6-28-1-12 2-20 9-25 13-9 35 0 36 0a2 2 0 0 1-1 3c-1 0-22-8-33 0-6 4-8 11-8 22 0 3 2 15 6 27 4 14 9 23 13 24 1 0 3 1 6-2a245 245 0 0 1 10-12 2 2 0 0 1 2 2s-5 5-10 12c-2 3-5 3-7 3zm70-14a2 2 0 0 1-2-2c15-22 20-49 16-55A29 29 0 0 0 91 9a44 44 0 0 0-14 2l-2-1a2 2 0 0 1 1-2l15-2c11 0 20 4 27 12 3 4 3 13 0 24-3 12-9 24-16 34l-1 1zm0 10a13 13 0 0 1-6-1l-1-2c-1-7 3-8 5-9l-1-1-4-6-1-3c-4-6-11-20-7-27 3-3 7-4 13-3-1-6-11-24-32-25a21 21 0 0 0-16 6c-9 9-9 26-9 26a2 2 0 1 1-3 0c0-1 0-18 10-28a24 24 0 0 1 18-7c14 0 23 7 28 13a37 37 0 0 1 8 16l-1 2h-1c-6-1-10 0-12 2-4 5 3 18 6 23l2 3 3 6a9 9 0 0 1 2 3s2 3 13 1c3-1 5 0 5 1 1 3-4 7-8 8a29 29 0 0 1-10 2zm-4-4 5 1 9-2 6-3h-1c-7 1-12 1-15-1h-1c-2 0-3 1-3 5zm-46 9-5-1c-2 0-6-2-5-4 0-3 4-3 5-4 5-1 6-1 7-3l2-3 4-2 3 1c1 0 3 2 3 4v5a16 16 0 0 1-14 7zm-7-5 3 1 4 1c5 0 8-2 11-6v-2l-2-2-1-1-1 1a41 41 0 0 0-2 2c-2 3-3 4-9 5a10 10 0 0 0-3 1zm12-7a2 2 0 0 1-1-2c-4 0-8-2-11-5-4-4-6-10-5-15V42c0-1 0-2 5-4a25 25 0 0 1 8-3c6-1 10 2 11 7 3 14 0 21-2 25l-1 3v1l-2 7a2 2 0 0 1-1 2h-1zM43 42v1l-1 15c0 5 1 9 4 12 2 3 6 5 9 5l2-5v-1l1-3c2-4 5-10 2-23-1-3-2-4-5-5-4-1-11 3-13 4zm9 0s1 2 3 2l2-2-2-1-3 1zm3 2h-1l-2-1v-2l2-1a7 7 0 0 1 3 1l1 1-3 2zm-2-2 2 1 2-1-2-1a6 6 0 0 0-1 0l-1 1zm43-2-2 3c-2 0-3-1-3-2l3-1h2zm-3 3-2-2 2-1h3v2l-2 1h-1zm1-3-3 1 2 2h1a3 3 0 0 0 1-1l1-1-2-1zm4 33a2 2 0 0 1-1-3c3-5 3-10 2-15V43l1-6a2 2 0 1 1 3-1v7l-1 6v6c1 5 2 11-2 17a2 2 0 0 1-2 1z"/></svg>