<svg xmlns="http://www.w3.org/2000/svg" xml:space="preserve" viewBox="0 0 1920 1786"><path fill="#ED6C47" d="M1161 982 1027 0h-10a886 886 0 0 0-883 883v10l1027 89z"/><path fill="#FF8F6B" d="M1037 0h-10v893l446 179 447-179v-10A886 886 0 0 0 1037 0z"/><path fill="#D35230" d="M1920 893v10a886 886 0 0 1-883 883h-20a886 886 0 0 1-883-883v-10h1786z"/><path d="M1072 439v953a82 82 0 0 1-82 81H345a876 876 0 0 1-211-571v-19a873 873 0 0 1 175-526h681c45 1 81 37 82 82z" opacity=".1"/><path d="M1027 484v952a82 82 0 0 1-82 82H385a764 764 0 0 1-76-89 876 876 0 0 1-175-526v-20c0-171 50-338 144-481h667c45 0 82 37 82 82z" opacity=".2"/><path d="M1027 484v863c0 45-37 81-82 82H309a876 876 0 0 1-175-526v-20c0-171 50-338 144-481h667c45 0 82 37 82 82z" opacity=".2"/><path d="M982 484v863c0 45-36 81-81 82H309a876 876 0 0 1-175-526v-20c0-171 50-338 144-481h623c45 0 81 37 81 82z" opacity=".2"/><linearGradient id="a" x1="170.6" x2="811.7" y1="1450.1" y2="339.9" gradientTransform="matrix(1 0 0 -1 0 1788)" gradientUnits="userSpaceOnUse"><stop offset="0" stop-color="#ca4c28"/><stop offset=".5" stop-color="#c5401e"/><stop offset="1" stop-color="#b62f14"/></linearGradient><path fill="url(#a)" d="M82 402h818c46 0 82 36 82 82v818c0 46-36 82-82 82H82c-45 0-82-36-82-82V484c0-46 37-82 82-82z"/><path fill="#FFF" d="M500 620c53-3 106 12 149 44 36 32 55 78 52 126a171 171 0 0 1-98 159c-34 16-72 24-109 23H390v192H284V620h216zM390 889h91c29 2 58-7 81-24 19-19 29-44 27-71 0-60-35-90-104-90h-95v185z"/></svg>