<svg xmlns="http://www.w3.org/2000/svg" viewBox="0 0 128 128"><linearGradient id="python-original-a" x1="70.3" x2="170.7" y1="1237.5" y2="1151.1" gradientTransform="matrix(.563 0 0 -.568 -29.2 707.8)" gradientUnits="userSpaceOnUse"><stop offset="0" stop-color="#5A9FD4"/><stop offset="1" stop-color="#306998"/></linearGradient><linearGradient id="python-original-b" x1="209.5" x2="173.6" y1="1098.8" y2="1149.5" gradientTransform="matrix(.563 0 0 -.568 -29.2 707.8)" gradientUnits="userSpaceOnUse"><stop offset="0" stop-color="#FFD43B"/><stop offset="1" stop-color="#FFE873"/></linearGradient><path fill="url(#python-original-a)" d="M63.4 2c-4.2 0-8.3.4-11.8 1C41 4.8 39.2 8.7 39.2 15.8v9.4H64v3.2H30c-7.1 0-13.4 4.3-15.3 12.5a46.1 46.1 0 0 0 0 25.1c1.7 7.3 5.9 12.5 13 12.5h8.6V67.2c0-8.1 7-15.3 15.4-15.3h24.7c6.8 0 12.3-5.7 12.3-12.6V15.8C88.6 9.1 83 4.1 76.3 3c-4.3-.7-8.7-1-13-1zM50 9.6c2.6 0 4.7 2 4.7 4.7a4.7 4.7 0 1 1-9.3 0c0-2.6 2-4.7 4.6-4.7z" transform="translate(0 10.3)"/><path fill="url(#python-original-b)" d="M91.7 28.4v11c0 8.4-7.2 15.6-15.4 15.6H51.6c-6.8 0-12.4 5.8-12.4 12.5v23.6c0 6.7 5.9 10.6 12.4 12.5a41.3 41.3 0 0 0 24.7 0c6.2-1.8 12.3-5.4 12.3-12.5v-9.4H63.9v-3.2h37c7.2 0 9.9-5 12.4-12.5a42.4 42.4 0 0 0 0-25.1c-1.8-7.1-5.2-12.5-12.3-12.5h-9.3zM77.8 87.9c2.6 0 4.6 2.1 4.6 4.7s-2 4.7-4.6 4.7a4.7 4.7 0 0 1-4.6-4.7c0-2.6 2-4.7 4.6-4.7z" transform="translate(0 10.3)"/><radialGradient id="python-original-c" cx="1825.7" cy="444.4" r="26.7" gradientTransform="matrix(0 -.24 -1.055 0 533 557.6)" gradientUnits="userSpaceOnUse"><stop offset="0" stop-color="#B8B8B8" stop-opacity=".5"/><stop offset="1" stop-color="#7F7F7F" stop-opacity="0"/></radialGradient><path fill="url(#python-original-c)" d="M97.3 119.6c0 3.5-14.8 6.4-33 6.4-18.4 0-33.2-2.9-33.2-6.4 0-3.5 14.8-6.4 33.1-6.4s33.1 2.9 33.1 6.4z" opacity=".4"/></svg>