<svg xmlns="http://www.w3.org/2000/svg" viewBox="0 0 128 128"><linearGradient id="a" x1="70.3" x2="170.7" y1="1237.5" y2="1151.1" gradientTransform="matrix(.563 0 0 -.568 -29 708)" gradientUnits="userSpaceOnUse"><stop offset="0" stop-color="#5A9FD4"/><stop offset="1" stop-color="#306998"/></linearGradient><linearGradient id="b" x1="209.5" x2="173.6" y1="1098.8" y2="1149.5" gradientTransform="matrix(.563 0 0 -.568 -29 708)" gradientUnits="userSpaceOnUse"><stop offset="0" stop-color="#FFD43B"/><stop offset="1" stop-color="#FFE873"/></linearGradient><path fill="url(#a)" d="M63 2 52 3C41 5 39 9 39 16v9h25v3H30c-7 0-13 5-15 13a46 46 0 0 0 0 25c1 7 6 13 13 13h8V67c0-8 7-15 16-15h24c7 0 13-6 13-13V16c0-7-6-12-13-13L63 2zm-13 8c3 0 5 2 5 4a5 5 0 1 1-10 0c0-2 2-4 5-4z" transform="translate(0 10)"/><path fill="url(#b)" d="M92 28v11c0 9-7 16-16 16H52c-7 0-13 6-13 13v23c0 7 6 11 13 13a41 41 0 0 0 24 0c6-2 13-6 13-13v-9H64v-4h37c7 0 10-5 12-12a42 42 0 0 0 0-25c-1-7-5-13-12-13h-9zM78 88c2 0 4 2 4 5s-2 4-4 4a5 5 0 0 1-5-4c0-3 2-5 5-5z" transform="translate(0 10)"/><radialGradient id="c" cx="1825.7" cy="444.4" r="26.7" gradientTransform="matrix(0 -.24 -1.055 0 533 558)" gradientUnits="userSpaceOnUse"><stop offset="0" stop-color="#B8B8B8" stop-opacity=".5"/><stop offset="1" stop-color="#7F7F7F" stop-opacity="0"/></radialGradient><path fill="url(#c)" d="M97 120c0 3-15 6-33 6s-33-3-33-6c0-4 15-7 33-7s33 3 33 7z" opacity=".4"/></svg>