<svg xmlns="http://www.w3.org/2000/svg" viewBox="0 150 215 184.1"><path stroke-width="0" d="M364 207.7c4.5-.6 16.1-.8 20 0 .8.1 1.4.3 1.9.5-.4-.2-.9-.2-1.4-.2h-2a47.2 47.2 0 0 1-.2 0c.3 0 .5 0 .8.2.3 0 .6 0 .8.2 1 .3 2.1 1 2.8 1.8.7.7 1.2 1.7 1.5 2.7.3 1 .3 2 .2 3.1 0 1.2-.3 2.6-.8 3.6a6.7 6.7 0 0 1-.4.7c.3 0 .5-.2.7-.3-.4 3.2 1.1 10.4.3 14-.6 3-1.9 5.6-3.6 6.7-1.4 1-3.1.6-5.6.7-3.4.1-10.5-.6-13.7-.3-2.1.1-3.2 1.2-4.7.9a6.9 6.9 0 0 1-4.2-3c-1.4-2.2-2-6.7-2.5-10-.4-3.1-.3-6.7 0-9.3.2-2.2.5-4 1.2-5.6.8-1.8 1.8-3.8 3.3-4.9 1.5-1 3-1.2 5.6-1.5Z" style="stroke-width:2px;stroke:transparent;fill:#ffcb37" transform="translate(-196.3 62.2) scale(.81485)"/><path stroke-width="0" d="M315 140.6a8 8 0 0 1 5 .4c1.3.6 2.5 1.5 3.1 2.7.8 1.4 1.2 3.9.9 5.4-.3 1.4-1 2.4-2.3 3.5-1.6 1.5-6.2 3.2-7.2 4l-.7.6c-.5.6-2 2-2.2 3.1-.3 1.2 1.3 2.5 1.2 4.1-.2 2.2-1.3 6.2-3.1 7.7s-5.6 1.8-7.9 1.2c-2-.5-4.1-2.1-5.2-3.9a12 12 0 0 1-.8-7c.4-2.8 1.7-6 3.3-8.7a34 34 0 0 1 16-13Zm107.8-1c1.4 0 3.9 0 6.2 1.3 3.3 1.8 8.5 6.5 11.4 10.6 2.8 4 6 10.6 5.8 14a7 7 0 0 1-3.5 5.7c-2.1 1.2-6.3 1.2-8.7.8-2-.3-4-1-5.2-2.3a10 10 0 0 1-1.7-6.2c.2-1.6 2.6-2.5 2.1-4.1-.7-2.5-8.6-6.6-10.4-9.1-1-1.6-1.4-2.7-1.2-4.2.2-1.7 2-4.6 3.1-5.6.7-.6 1.1-.8 2-.8ZM301 219.9c1.5 0 5.3 1 7 2.8 1.7 2 2.2 6.6 2.6 9.4.2 2.4-.7 3.5-.4 6.4.4 4.3 3.4 12.8 4.1 18 .6 4.4.5 8.3.4 11.7-.1 2.7-1.5 5.2-.8 7.1.7 1.8 2 3.1 4.4 4 3.7 1.3 11 .7 18 .7 8.6 0 20.9-1.1 30-1.1 8.3 0 14.4 1 22.6 1.1 9.4.1 25.3-2 30.9-.7l1.5.5c.3-1.2.9-2.4 1.7-3.3.7-.8 2-1.5 3.2-2 0-.4 0-.8.2-1.2.6-2.8 2.7-5.2 3.3-8.6.8-4.2-.2-10.2.4-15 .6-4.9 2.6-9.9 3-14 .4-3.5-.7-6.8 0-9.4a13 13 0 0 1 3.2-5.4c.7-.6 1-.7 1.9-.8 1.2-.2 3.6-.2 4.9.4 1.2.5 2.2 1 2.8 2.4 1 2.3 1 7.6.8 11.7-.4 4.4-2.4 8.8-3 13.9-.8 5.6.1 13.5-.8 18.4-.7 3.8-2.9 6.3-3.4 9-.4 2.4.7 4.1 0 6.4-.8 3-4 7.8-5.8 9.6a6.3 6.3 0 0 1-3.8 1.9c-2.2.5-6.5.5-8.6 0a12.3 12.3 0 0 1-1.1-.3c-3.6 1.1-10.1.5-14.7.4-4.7 0-8.8-1-13.6-1-5-.2-9.7.7-16.1.7-8 0-20.7-1.6-29-1.5-6.8 0-11.8 1-17.6 1-5.8 0-13.5 0-17-1-2-.7-3-1.9-3.9-2.9-.8-.8-1-1.5-1.7-2.4-1-1.1-2.9-2.2-4-3.6-1-1.3-1.8-3-2.2-4.5-.3-1.5 0-2.4 0-4.5.1-3.4 1.2-10.2.8-15-.5-4.7-2.6-8.4-3.4-13.6-1-6-2.8-16.5-2-20.6.6-2.4 2.3-3.6 3.3-4.4.7-.5 1-.8 1.9-.7Z" style="stroke-width:2px;fill:#8d8d8d;stroke:transparent" transform="translate(-196.3 62.2) scale(.81485)"/><path stroke-width="0" d="M367.7 179c1.1 0 2 0 3 .2 1 .3 2.2 1 3 1.7.7.8 1.2 1.9 1.5 2.9.3 1 .2 2.6.1 3.3 0 .3-.6.5-.3.7.9.6 10.5-.6 13.4.1 1.9.5 3.2 1.7 3.8 2.2.3.3.1.5.4.6.5.2 1.9-.2 2.8 0 .9.1 1 .7 2.6 1 3.6.4 18.7-.4 22.1 0 1.4 0 1.5.2 2.2.5.8.5 1.6 1 2.4 2 1 1.3 1.3 4.7 2.8 5.8 1.5 1 4.3-.1 6 .6 1.9.7 3.8 2.3 4.8 3.5.8.9 1.1 1.8 1.4 2.8a7 7 0 0 1 .2 2.9c-.2 1.6-1 4.6-1.7 6-.6 1.1-1 1.8-1.8 2.4a7 7 0 0 1-2.7 1.4 7.3 7.3 0 0 1-3 .2c-1.2-.2-2-1.1-3.6-1.4-2-.4-5.6-.3-7.9 0-2 .2-3.5 1.2-5 1.4a11.5 11.5 0 0 1-3.4 0c-1-.2-1.9-.7-3.2-1-1.8-.3-5-.7-6.8-.6-1.4.1-2.1.9-3.3.8-1.2 0-3.3-1.3-4-1.4l-.6.2c-.5 0-1.5-.2-2.2-.5l-.3-.2h.1a7.6 7.6 0 0 0 1.6 0 4.2 4.2 0 0 0 1.6-.6 5.8 5.8 0 0 1-1 0 7.3 7.3 0 0 1-2.4-.6c-.7-.3-1.3-.8-1.8-1.2l-.8-1a9 9 0 0 1-.8-1.6 5 5 0 0 1-.2-1.2v-2.2c-.2-.4-1.1-.8-1.6-1.2a7 7 0 0 1-1-1.5 5 5 0 0 1-.4-1 7.2 7.2 0 0 1-.2-.8 6.8 6.8 0 0 0-.4 1.2 6 6 0 0 0-.1.8v.2c-2-.6-6.9-.2-8.5-.5-1-.2-.9-.7-1.7-.7-1.4 0-3.9 1.8-6.4 2.2-3 .5-9.2-1-10.6.2-.8.7.3 2.3.2 3.4-.1 1.3-.3 2.7-.8 3.8a7.4 7.4 0 0 1-2 2.5c-.6.6-1.5 1-2.4 1.2-.9.3-1.9.3-2.8.2-.8-.1-1.5-1-2.5-1-1 .2-1.4 1.6-3.7 2-4.7 1-22.8 1-27.5 0-2.3-.4-3-1.2-3.8-2-.7-.6-1-1.2-1.2-2-.4-.9-.6-2-.5-3a6.4 6.4 0 0 1 .8-2.6c.4-.8 1.2-1.7 1.9-2.2.7-.5 1.7-.4 2.2-1 .6-.6.5-2 1-2.7a5 5 0 0 1 1.6-1.7c1-.7 2.3-1.2 3.7-1.4 1.7-.4 5.3.5 6.1-.4.7-.7-.8-2.6-.6-3.9a9.7 9.7 0 0 1 2-4.1c.8-.7 2-.7 2.3-1.4.4-.6-.2-1.6-.1-2.4 0-.8.2-1.8.6-2.6.4-1 .9-2 1.8-2.7a15 15 0 0 1 5-2.7c1.3-.3 2.5-.2 3.8-.1 1.4.1 3 .4 4.2 1 1 .4 2 1.2 2.5 1.8.5.6.9 1 1.1 1.8.3.8.5 2 .5 2.9 0 .7-.7 1.6-.3 2 .4.4 2 .1 3.1 0 1.3-.3 3.5-.6 4.1-1.5.7-.7-.1-2.1.2-3.3.4-1.3 1.3-3.2 2.3-4.2 1-1 2.3-1.5 3.7-2 1.5-.3 3.9-.2 5.4-.2Z" style="stroke-width:2px;stroke:#fff6a9;fill:#fff6a9" transform="translate(-196.3 62.2) scale(.81485)"/><path d="M316.4 218.6c4.6-.4 23 1.8 28 1.8 2.3 0 2.9-.8 4.1-.5 1.3.3 2.8 1.4 3.6 2.3.8.8 1.1 1.7 1.4 2.6.2 1 .1 2.1 0 3.1-.2 1-1 2-1.1 2.8-.1.7.2 1.1.2 1.8-.1.8-1 1.8-.9 2.8.2 1.4.6 3.6 2.4 4.7 2.8 1.8 10.9 1.8 15.9 2.2 4.6.4 9.8.6 13 .2 2.5-.3 4.5-.1 5.7-1.6 1.4-1.8 1.6-7.3 1.3-9.6-.3-1.6-1.7-2.4-2-3.5-.3-1-.2-1.9 0-2.9a6 6 0 0 1 1.5-3.1c1.1-1 3.2-1.8 5.2-2.2 2.2-.5 4.2-.2 7.6 0 5 .2 16.4 2.3 20.6 2 2.3-.2 3-1.6 4.6-1.6 1.5 0 3.4 1 4.4 2 1 .9 1.5 3 2 3.5 0 .2 0 0 .2.3l.2.2-.6 1a39.5 39.5 0 0 0-1 9.6c-.2 0-.4.2-.5.6-1.5 3.4-2.4 26.5-4 32.6-.8 3-1.6 4-2.6 5.4-.8 1.2-1.7 2-2.7 2.8-1 .6-1.4 1-3.5 1.3-4.7.7-19.4.5-27.6.2-7-.3-11.8-1.5-18.8-1.8-8-.2-18 .7-26.6.7-8.5 0-20.5-.2-24.8-.9-1.9-.3-2.3-.5-3.2-1a8 8 0 0 1-2.3-2.1 7.6 7.6 0 0 1-1.3-2.7c-.4-1.2-.4-3.5-.5-4.1v-.5c0-.2.3-.4.2-.6l-.2-.5v-.4l-.4-3c0-.4.2-.5.2-.7l-.2-.4v-.5c0-.8-.3-3.7-.2-6.3 0-3.7 1-10.6.6-14.2-.3-2.7-1.7-4.6-2-6.4a11 11 0 0 1 0-3.3c.1-.2.3-.2.3-.4-.1-.4-1.4-1.2-1.8-2.2a8 8 0 0 1-.4-4.4 8.7 8.7 0 0 1 2.7-4c1-.7 1.3-1 3.3-1Z" style="opacity:1;mix-blend-mode:normal;isolation:auto;fill:#925711" transform="translate(-196.3 62.2) scale(.81485)"/><path stroke-width="0" d="M303 169.3a9 9 0 0 1 3.4.2c1 .3 1.8 1.2 3 1.5 1.4.3 3.1-.3 5.1-.2 2.6 0 6.4.8 9.2.8 2.3-.1 3.9-.8 6.2-1 2.8-.2 5.3-.1 9.3 0 5.8.2 17.2 1.5 23.2 1.5 4.3 0 7-.6 10.3-.5 3.2 0 6.4.7 9.5.7 2.9 0 4.3-.5 8.3-.7 7.1-.4 25.2-.9 33-.6 5 .2 8.2 1.3 11 1.1 1.8 0 2.7-1 4.1-1 1.5.2 3.3 1 4.3 2a6 6 0 0 1 1.5 3l.2.7c-.9 1.1-1.7 3-2 3.4l-.2.2c-.3.4-1.8 1.8-2.3 2.7-.4.6-.6 1.1-.7 1.8l-1.3.5c-1.4.8-3.2 1.8-3.7 3-.6 1.2.5 2.8.3 4.2a9.8 9.8 0 0 1-1.1 3.6c-.4.7-1 1.1-1.6 1.6-.8.5-1.8 1-2.7 1.1-.9.2-1.7.4-2.6 0a7.8 7.8 0 0 1-1-.4 9.3 9.3 0 0 0 .2-.6c.3-1 .2-1.8 0-2.7a6 6 0 0 0-1.1-2.6c-.8-1-2-2-3.4-2.4-.9-.3-2-.4-3.1-.4l-1-.2c-1.3-.3-3-.6-4.5-.6-1.6.1-2.8 1-4.8 1.2a88 88 0 0 1-22.8-2c-1.6-.6-2-1.7-3.2-1.8-1.3-.2-3.1 1.1-4.6 1-1.2-.2-2.1-1.5-3.5-2l.2-.5c.3-1 .2-1.8 0-2.7-.3-1-.8-2.2-1.5-3-.9-1-2-1.7-3.4-2a15 15 0 0 0-5.9-.2c-1.4.3-2.8.8-3.8 1.7-1 .9-1.6 2.4-2 3.5a5.2 5.2 0 0 0 .1 3c-.1-.1-.1-.2-.3-.1-.6.1-1.6 1.6-2.7 2-1 .5-2.4.7-3.6.4-.7-.1-1.6-.6-2.4-1.1a9.4 9.4 0 0 0-1.3-3.4c-.6-1-1.5-1.8-2.7-2.2-1.4-.5-3.5-.4-5.2-.4-1.4 0-2.9-.1-4.1.2-1.2.3-2.2.7-3 1.5a8 8 0 0 0-1.3 1.6c-.2 0-.3 0-.4.2-.2.2-.2.6-.2 1l-.4 1.1v1.8a43 43 0 0 1-6 9.6 6.9 6.9 0 0 1-.2.2 10 10 0 0 1-2.4 3.6c-.8.7-1.7 1-2.6 1.1-.9.2-1.7.3-2.7 0a9.7 9.7 0 0 1-3.7-2.2 11 11 0 0 1-2.3-3.8 9.7 9.7 0 0 1-.3-1.2c-1.5-2.2-3.6-6.5-4.9-8-.8-1-1.3-.7-2-1.6a23.7 23.7 0 0 1-4.2-5.5 9.5 9.5 0 0 1-1-5.3 9.5 9.5 0 0 1 2.8-4.5c.7-.6 1.5-.8 2.4-1Z" style="stroke-width:2px;stroke:#6e400c;fill:#6e400c" transform="translate(-196.3 62.2) scale(.81485)"/><path stroke-width="0" d="M361.1 146.1c14.5-.1 45.7-1.8 55.8 1 5.4 1.4 5.1 5 7.3 7.2 1.9 2 2.9 4.3 3.6 6.3.6 1.7 1 3.3.7 5-.4 1.9-1.6 4.4-3.4 5.6-.6.3-1.2.6-2 .7a75 75 0 0 0-9.2 0c-2.6-.4-5.5-1.2-9.5-1.5-8.3-.6-21.4-.8-34.4-.7-15.3.1-44 3.5-52.2 1.8-3.6-.7-4.5-1.9-5.5-3.4-1-1.3-1-3-.7-5 .2-2.4 1.5-6.3 2.8-8.6 1.2-2 2.9-3.5 4.5-4.8 1.5-1.2 3-2.4 4.6-2.9 1.6-.4 3.3-.1 5 0 1.8.2 2.6 1 5.4 1.1 5.4.2 16.2-1.7 27.2-1.8Z" style="stroke-width:2px;fill:#925711;stroke:transparent" transform="translate(-196.3 62.2) scale(.81485)"/><g data-name="17-pirate treasure"><path d="M151.5 303.3H61.2a14 14 0 0 1-14-12.6l-4.9-49.3a2 2 0 0 1 2-2.2h48v4H46.5l4.7 47a10 10 0 0 0 10 9h90.3a10 10 0 0 0 10-9l4.6-47h-45.8v-4h48a2 2 0 0 1 2 2.2l-4.9 49.3a14 14 0 0 1-14 12.6Z"/><path d="M116.3 261.2h-20a6 6 0 0 1-6-6v-20a6 6 0 0 1 6-6h20a6 6 0 0 1 6 6v20a6 6 0 0 1-6 6Zm-20-28a2 2 0 0 0-2 2v20a2 2 0 0 0 2 2h20a2 2 0 0 0 2-2v-20a2 2 0 0 0-2-2Zm50.5 58h-4.5v-4h4.5a4 4 0 0 0 4-3.6l3.5-42.5 4 .3-3.5 42.5a8 8 0 0 1-8 7.4Zm-12.5-4h4v4h-4zm-4 4H65.8a8 8 0 0 1-8-7.3l-3.5-42.5 4-.3 3.5 42.5a4 4 0 0 0 4 3.7h64.5Z"/><path d="M56.3 249.2h22v4h-22zm26 0h4v4h-4zm44 0h30v4h-30zm-12 6h-16a2 2 0 0 1-2-2v-16a2 2 0 0 1 2-2h16a2 2 0 0 1 2 2v16a2 2 0 0 1-2 2Zm-14-4h12v-12h-12Z"/><path d="M104.3 241.2h4v8h-4zm-48 50h4v4h-4zm96 0h4v4h-4zm8-46h4v4h-4zm-112 2h4v4h-4zM82.2 290l-3.8-1.5c2-4.9 6.8-8.9 13.3-11a60.8 60.8 0 0 1 12.3-2.2l3.6-.5a29.5 29.5 0 0 0 14-4.6c.8-.6 2.8-2.3 2.8-4.3v-.2a3.4 3.4 0 0 1 3.2-4 144.2 144.2 0 0 1 26.7-2.5v4a140 140 0 0 0-26 2.5v.1a9.4 9.4 0 0 1-4.4 7.6 33.6 33.6 0 0 1-15.8 5.4l-3.6.4a57.4 57.4 0 0 0-11.6 2.1c-2.5.8-8.7 3.3-10.7 8.7Zm-23.6-12.8-.6-4a116.1 116.1 0 0 0 25-6.3l1.8-.8a53.7 53.7 0 0 0-13.1-2.4 58.4 58.4 0 0 1-14-2.6l1.3-3.7a54.7 54.7 0 0 0 13 2.3 49.6 49.6 0 0 1 16.4 3.5 2.7 2.7 0 0 1 .9 4.7 16.2 16.2 0 0 1-4.8 2.7 120 120 0 0 1-25.9 6.6Zm93.7 6c-7 0-12.7 0-19.8-.5a4.4 4.4 0 0 1-1.8-8.3 46.9 46.9 0 0 1 23.6-5.2v4c-9 0-15.5 1.4-21.6 4.7-.2.1-.4.2-.4.5a.4.4 0 0 0 .4.3c7.1.6 12.6.6 19.6.6ZM45.7 242.7l-2.8-2.8 16-16a2 2 0 0 1 1.4-.6h12v4H61.1ZM159 234.6l2.8-2.8 8 8-2.9 2.8zM168.3 203.2h-14a2 2 0 0 1-2-2c0-10.8-4.2-14.3-6.7-15.4a5.6 5.6 0 0 1-3.3-5 5.5 5.5 0 0 1 5.6-5.6h.4c12.6 0 22 11.2 22 26a2 2 0 0 1-2 2Zm-12-4h10c-.8-11.5-8.2-20-18-20h-.4a1.5 1.5 0 0 0-1.6 1.5 1.6 1.6 0 0 0 1 1.4c3.2 1.5 8.4 5.6 9 17.1Zm-98 4h-14a2 2 0 0 1-2-2c0-14.8 9.5-26 22-26h.5a5.5 5.5 0 0 1 5.5 5.5 5.6 5.6 0 0 1-3.3 5c-2.5 1.2-6.7 4.7-6.7 15.5a2 2 0 0 1-2 2Zm-12-4h10c.6-11.5 5.8-15.6 9-17a1.6 1.6 0 0 0 1-1.5 1.5 1.5 0 0 0-1.5-1.5h-.5c-9.7 0-17.2 8.5-18 20Z"/><path d="M148.3 199.2h6v4h-6zm-90 0h86v4h-86zm10-20h76v4h-76zM153.1 222.1l13.6-22 3.4 2.1-13.6 22zM53.7 220.3l3.4-2.1 2.4 4-3.4 2zM42.6 202.3l3.4-2.1 8.6 14-3.4 2z"/><path d="M112.3 203.2h-12a2 2 0 0 1-2-2v-20a2 2 0 0 1 2-2h12a2 2 0 0 1 2 2v20a2 2 0 0 1-2 2Zm-10-4h8v-16h-8Z"/><path d="M154.3 197.2c-5.8 0-6.7 0-12-.2h-.5a16.7 16.7 0 0 1-4.2-.6 2.8 2.8 0 0 1-1.6-1.2 2.5 2.5 0 0 1-.3-1.7 2.8 2.8 0 0 1 1.5-1.7l1.1-.6h-26v-4h28.1a9 9 0 0 1 2.4.2 3.2 3.2 0 0 1 2.8 3.3 3.3 3.3 0 0 1-1.7 2.3c4 .2 5.2.2 10.4.2Zm-96 0v-4c6 0 10.7 0 16-.3a12.4 12.4 0 0 1-1.8-1.3 3.9 3.9 0 0 1-1.4-2.5 3.6 3.6 0 0 1 2.6-3.6 7.3 7.3 0 0 1 2.5-.3h26.1v4H76.1l1.3.8a20.5 20.5 0 0 1 2.2 1.3 2.7 2.7 0 0 1 1.2 3.4 2.9 2.9 0 0 1-1.6 1.4 13.3 13.3 0 0 1-4.4.7c-5.6.4-10.3.4-16.5.4Zm100 46h-26a6 6 0 0 1 0-12v4a2 2 0 0 0 0 4h26a2 2 0 0 0 0-4 2 2 0 0 1 0-4 2 2 0 0 0 0-4h-12a2 2 0 0 1 0-4 2 2 0 0 0 0-4h-16a2 2 0 0 0-1.7 1 2 2 0 0 1-1.7 1h-.6a2 2 0 0 1-2-2 2 2 0 0 0-2-2h-16a2 2 0 0 1 0-4 2 2 0 0 0 0-4h-8a2 2 0 0 0 0 4 2 2 0 0 1 0 4h-4a2 2 0 0 0-1.9 1.4 2 2 0 0 1-3 1 2 2 0 0 0-1-.4h-4a2 2 0 0 1 0-4 2 2 0 0 0 0-4h-8a2 2 0 0 0 0 4 2 2 0 0 1 0 4h-4a2 2 0 0 0 0 4 2 2 0 0 1 0 4H62.2a2 2 0 0 0 0 4 2 2 0 0 1 0 4h-4a2 2 0 0 0 0 4h8a2 2 0 0 0 .5 0 2 2 0 0 1 1 0 2 2 0 0 0 .5 0h16a2 2 0 0 0 0-4h-6v-4h6a6 6 0 0 1 0 12h-16a5.6 5.6 0 0 1-1 0 5.6 5.6 0 0 1-1 0h-8a6 6 0 0 1-1.6-11.8 6 6 0 0 1 5.6-8.2h4.3a6 6 0 0 1 4.1-7.8 6 6 0 0 1 5.6-8.2h8A6 6 0 0 1 90 215a6 6 0 0 1 2.7-1.6 6 6 0 0 1-.4-2.2 6 6 0 0 1 6-6h8a6 6 0 0 1 5.7 8h10.3a6 6 0 0 1 5 2.8 6 6 0 0 1 3-.8h16a6 6 0 0 1 5.7 8h6.3a6 6 0 0 1 4.5 10 6 6 0 0 1-4.5 10Z"/></g><path stroke-width="0" d="M48 160.7a3.1 3.1 0 0 1 1.8.3 5 5 0 0 1 2 1.6c.4.6.4 1.8.7 2.5.4.6.7 1 1.3 1.5.9.8 3 1.4 3.7 2.4.6.9.8 2.3.7 3.2a4 4 0 0 1-1.4 2.3c-.8.6-2 1-3 1-1.2 0-2.8-1-3.9-1.6-1-.6-1.7-1-2.5-1.8a15 15 0 0 1-2.8-4.3 7.3 7.3 0 0 1-.4-3.8c.2-.9.8-1.8 1.4-2.3a5 5 0 0 1 2.5-1Zm-10.7 29.7a13 13 0 0 1 4.7 0c1.1.3 1.8 1.3 2.8 1.6.9.2 1.6.1 2.7 0 1.3-.1 3.1-.7 4.8-.8 1.7-.1 3.8-.2 5.2 0 1 .1 1.8.3 2.6.7.7.3 1.4.8 1.9 1.4.4.5.7 1.1.8 1.7.1.6.2 1.2 0 1.9-.3 1-.9 2.3-2 3.1a15 15 0 0 1-5.7 2.2 32.5 32.5 0 0 1-10.4-.3c-1.2-.4-3-1.8-3.5-2.1-.1-.2 0-.2-.2-.3-.2-.2-.7-.8-1.3-1-.7-.3-2 0-2.8-.2-.7-.2-1.4-.7-1.8-1.3-.5-.7-1-1.8-1-2.8.1-1 1-2.4 1.6-3 .5-.5.8-.6 1.6-.8Zm54 11.4c1.4-.1 3.7 0 5.7.8a22 22 0 0 1 7.3 4.8c.7 1 .8 2 .6 3-.1 1-1 2.3-1.8 2.9a5 5 0 0 1-2.7.6c-.6 0-.6-.3-1.6-.4-2-.2-8.8.2-11 0a5.1 5.1 0 0 1-2.2-.9 4.1 4.1 0 0 1-1.8-2.6 4.2 4.2 0 0 1 0-1.9c.2-.8.5-1.6 1.2-2.5.9-1 3.2-2.5 4.3-3.2.8-.4 1.1-.6 2-.6Zm43.5 18.4c1.6-.3 3.3-.3 4.4 0 .9.2 1.6.5 2 1 .7.8 1.2 2.2 1.3 3 0 .8-.2 1.5-.5 2a5 5 0 0 1-1.3 1.5l-.5.1.2.9c-.2.7-.5 2.2-1.6 3.1a28.1 28.1 0 0 1-9 4c-2.2.6-4.5.8-6.1.5-1.3-.3-2.4-1-3-1.8a3.7 3.7 0 0 1-.7-2.9 9.4 9.4 0 0 1 2.5-4c1.5-1.7 4.5-3.9 6.7-5.1 1.9-1.1 3.8-2 5.6-2.3Zm-95.3.8c1 0 1.5 0 2.4.3 1.3.5 3.6 2 4.6 3.2.9.8 1.3 1.6 1.6 2.6.4 1.1.3 2.6.2 3.7a6.9 6.9 0 0 1-.8 2.4c-.3.5-.6 1-1.2 1.2a8 8 0 0 1-3.2.7c-.7 0-.9-.4-1.7-.5-1.3-.1-4.3.6-6 .4a8.7 8.7 0 0 1-5.2-3c-.6-.9-1.6-2.6-2-3l-.3-.3-1-1.6c-.1-.5-.2-1.2 0-1.8.1-.8.9-2 1.5-2.6.5-.5 1.1-.7 1.7-.9h1.6c.6.2 1 .8 1.8.9 1.3 0 4.5-1.5 6-1.7Z" style="stroke-width:2px;fill:#0084ff;stroke:rgba(129,151,57,.02)" transform="translate(58.6 166.4) scale(.65633)"/><path d="M96.7 105.8c1-.3 1.8-.3 2.7 0 1.2.3 2.9 1.3 3.7 2.1.7.6.8 1.9 1.2 1.9.6 0 1-1.5 1.8-2 .8-.6 2-1.1 3-1.4 1-.2 1.9-.2 3 0 1.7.4 4.1 1.7 5.7 2.7 1.3 1 2.2 2 3.2 3.3 1 1.3 2.2 2.8 2.7 4.4.5 1.8.6 4 .2 6-.4 2.3-1.5 4.7-2.7 6.8a24.8 24.8 0 0 1-12.6 11c-2.1.7-4.3.5-6 .3a11.9 11.9 0 0 1-7.5-4.4 69 69 0 0 1-6.3-9.8c-.7-1.5-.9-2-1.1-3.4-.2-1.6-.6-3.4 0-5.6.8-2.8 3.9-8.2 5.7-10.1a6.3 6.3 0 0 1 3.3-1.8Zm3.7 35.8c1.4 0 3.6 1.2 5.1 1.2 1.4 0 2.5-1.3 3.8-1.2a8 8 0 0 1 4.6 2.2c1 1.1 1.6 3.2 1.8 4.7.1 1.2-.5 1.7-.7 3.3-.2 2.8 0 8.2 0 13.2.1 5.9 1.5 16.2.7 20.1-.5 2.2-1.2 3-2.4 4-1.3 1-3.5 1.6-5.3 2l-3 .2c2.3.6 3.1 1.9 4.8 2.3 1.7.3 3.7-.2 5.2 0 1.1.1 1.8.3 2.9.9 1.2.6 3 1.6 4.1 2.7a8.7 8.7 0 0 1 2 3.6 9 9 0 0 1 .2 4.7c-.4 1.7-2 4-3.2 5a7 7 0 0 1-3.6 1.4c-1.6.3-4 .2-5.8 0-1.6-.2-3.1-.7-4.2-1.4-1-.5-1.6-1.2-2.2-2-.6-1-.8-2.6-1.5-3.3-.7-.7-1-.8-2.4-1.1a48 48 0 0 0-12.5-1c-2.9.4-6 1.4-7.3 2.8-1 1-.5 2.9-1 3.9-.6.8-1.1 1.4-2 1.9-1 .6-2.9 1.1-4.2 1-1.3 0-2.1-1.4-3.8-1.3-2.6.2-7.1 3.8-10.5 4.5a49.5 49.5 0 0 1-20.1-2c-3.4-1.1-8.1-3.7-9.3-4.6-.5-.3-.4-.5-.6-.8-.2-.2-.5-.3-.8-.7-.4-.7-1.5-2-1.8-3-.2-1-.2-2 0-3a8 8 0 0 1 1.6-3.3c.7-.8 1.6-1.3 2.6-1.6 1-.3 2.5-.6 3.8-.2 1.6.4 3.2 2.5 4.9 3.3a45 45 0 0 0 16.8 3c2.6-.4 4.9-1.7 6.3-2.8 1.2-1 1.5-2.6 2.2-3.3.5-.5 1-.5 1.4-1 .6-.5 1-1.6 1.7-2.1a9 9 0 0 1 3.6-1.4c1.5-.2 3.9 0 5.3 0 1.2 0 1.7.5 3 .3 1.6-.3 3.5-2.3 6.4-2.7a63 63 0 0 1 13.6.6c-1.5-.6-3-1.4-4-2.4-.9-1-1-1.5-1.3-4a222 222 0 0 1-.6-36.6c.5-2.9 1.5-3.6 2.5-4.6a5 5 0 0 1 3.2-1.4ZM24.6 156c1.7-.2 7.7-.7 10.5 0 2.3.6 4.3 1.5 5.5 3 1.2 1.6.7 4 1.5 6.3 1 2.8 2.7 7.6 4.3 9.5 1.1 1.3 2.2 1.5 3.7 2 1.6.6 4.2.6 5.8 1.3 1.5.7 2.8 1.4 3.7 2.6 1 1.3 1.6 3.9 1.6 5.2-.1.9-.5 1.6-1.2 2-1 .8-2.5 1-4.6 1.2a54 54 0 0 1-12.7-.7c-1.3-.4-1.7-1-2.3-1.6a6.7 6.7 0 0 1-1.8-3c-.5-1.8.4-4.8-.3-7.3-.7-2.8-3.5-6.3-4.2-8.5-.5-1.5.4-3-.6-3.7-1.3-1-7 .3-8.9-.2a3.8 3.8 0 0 1-2.3-1.7c-.6-.8-1-2.2-.7-3.1.2-1 1.3-2.3 1.9-2.8.4-.4.4-.4 1.1-.5Zm104.5 59c1.5 0 2.3 0 3.1.2a3.5 3.5 0 0 1 1.7 1.5c.4.7.8 1.8.7 2.7-.2 1-1.1 2.5-2 3.2-.7.7-1.5 1-2.8 1.4-2 .6-6.8 0-8.9 1.3-1.8 1.3-2.7 5.3-3.2 6l-.3.4c-.4.3-1 1.4-1.7 1.9a7.6 7.6 0 0 1-3.2 1.3c-1.8.4-5.5.2-7.1 0-1 0-1.6-.6-2.1-.4-.6.2-.4 1.2-1.3 1.5-1.5.7-4.8.5-8.7.5-5.7 0-16.5-1.3-23.7-1.6-6.2-.2-13.8.5-17-.2-1.6-.4-2-.8-2.8-1.7-.5-.6-1-1.9-1.5-3a6 6 0 0 0 1.4-.5c.5-.3.8-.7 1.1-1.2a4 4 0 0 0 .7-2 5.2 5.2 0 0 0-1-3.1c-1.1-1.3-3.6-3.2-5.4-3.8-1.7-.6-3.7-.6-5-.3-1 .2-1.8.5-2.3 1-.6.6-1 1.4-1.1 2.2-.1.5 0 1.2.1 1.8H35c-2.4.2-6.5-.1-8 .5-.8.4-.9 1.6-1.2 1.8-.1.1-.4 0-.3.1.1.3 3.5 1.4 4.2 2.5.7 1 .7 2.4.5 3.4-.3.9-.8 1.8-1.7 2.3a9 9 0 0 1-4.5.7c-1-.1-1.9-1-2.9-1.1-1-.2-2.2.6-3.1.4-1-.2-1.7-.8-2.4-1.7-.8-1.2-1.6-3.8-2-5.3-.3-1.3-.6-2.1-.2-3.4a16 16 0 0 1 4-6.4c1.2-1 3.3-1.2 4.2-1.3.4 0 .2.2.9.2 2.2.1 14.6-1.2 19-.9 2.8.2 4.4 1.3 6 1.4 1.3 0 1.7-.6 3.1-.7 2.3-.1 8 1.2 9.9.9.9-.2.6-.7 1.5-1 2-.3 5.8 0 11.2 0 9.3.2 33.2 1.4 43 .8 6-.4 10.1-2 12.9-2.3Z" style="fill:#fae742" transform="translate(58.6 166.4) scale(.65633)"/><path d="M145 304.4h-2.6a9.8 9.8 0 0 0 1.6-5.2c0-4.2-2.7-7.8-6.4-9.2v-33.4l3.4-4.7a11 11 0 0 0 2.2-6.5V244c0-6.1-5-11-11-11h-8.9c-6 0-11 4.9-11 11v1.4c0 2.4.7 4.6 2 6.5l3.5 4.7v32.8H102v-1.1c0-7-3-13.4-8.4-17.7a22.9 22.9 0 0 0-14.3-5h-4.6a5.6 5.6 0 1 0 0 11.2c1.6 0 3.2.5 4.4 1.5l.3.2a7.8 7.8 0 0 1 2.9 6.1v4.9a9.9 9.9 0 0 0-6.7 15H73a9.8 9.8 0 0 0 0 19.6H145a9.8 9.8 0 0 0 0-19.7Zm-28.1-59V244c0-2.8 1.8-5.2 4.3-6v1.8a1.6 1.6 0 0 0 3.3 0v-2.2h1.6v4.2a1.6 1.6 0 0 0 3.3 0v-4.2h1.6v2.2a1.6 1.6 0 0 0 3.2 0v-1.9c2.6.9 4.4 3.3 4.4 6v1.5a6.3 6.3 0 0 1-1.3 3.8l-4.4 6a6.5 6.5 0 0 1-5.2 2.7c-2 0-4-1-5.2-2.7l-4.4-6a6.3 6.3 0 0 1-1.2-3.8ZM124 272a1.6 1.6 0 0 0 2.3-.2l1.3-1.5 1.3 1.5a1.6 1.6 0 0 0 2.4.2 1.6 1.6 0 0 0 .1-2.3l-2.1-2.4v-5a11 11 0 0 0 3.6-1.2v28.3h-10.6V261a11 11 0 0 0 3.7 1.2v5l-2.2 2.4a1.6 1.6 0 0 0 .2 2.3Zm-33.5 2.2a18 18 0 0 1 5 6.4h-.8a7 7 0 0 1-5.9-6.2l-.2-1.5 1.9 1.3Zm-8.5.7-.2-.1a11.7 11.7 0 0 0-7.3-2.6 1 1 0 0 1-1-1c0-.6.4-1 1-1h4.6c2 0 4 .3 6 1l.5 3.6c.5 4.6 4.1 8.3 8.6 9l2.6.4c.3 1.3.4 2.7.4 4v1.2H86.8v-4.8c0-3.8-1.7-7.3-4.7-9.7Zm1.7 19h15.8a10 10 0 0 1-13 3.1l-4.9-2.6a5.3 5.3 0 0 1 2.1-.4Zm-4.6 2.8L85 300a13.4 13.4 0 0 0 6.4 1.6c4.4 0 8.8-2.2 11.3-6.3l.8-1.3H134c2.9 0 5.3 2.4 5.3 5.3a5.3 5.3 0 0 1-5.3 5.2h-3.7a9.5 9.5 0 0 0-4.5-6l-1.3-.8a9.5 9.5 0 0 0-7.8-.7 9.4 9.4 0 0 0-6.2 7.5H83.8a5.3 5.3 0 0 1-5.2-5.2c0-.9.2-1.7.6-2.5Zm47.8 7.7h-13.1a6.2 6.2 0 0 1 4-4.4 6.2 6.2 0 0 1 5.1.5l1.2.7a6.1 6.1 0 0 1 2.8 3.2ZM89.5 318l-.6 1.5h-7.8l-2.6-2.4a1.8 1.8 0 0 1-.6-1.4c0-.9.7-1.6 1.6-1.8l6.1-.8a3.7 3.7 0 0 1 3.1 1 3.6 3.6 0 0 1 .8 3.9Zm44.4 1.5H92.4l.2-.4a7 7 0 0 0-1.6-7.3 7 7 0 0 0-5.8-2l-6.1.9a5.1 5.1 0 0 0-4.5 5c0 1.5.6 2.8 1.7 3.8H73a5.2 5.2 0 0 1-5.3-5.2A5.3 5.3 0 0 1 73 309H145a5.1 5.1 0 0 1 2 .4l-.4.1a18.7 18.7 0 0 0-12.8 10Zm11.2 0h-7.5a15.4 15.4 0 0 1 9.8-6.8l2.5-.5c.2.6.4 1.3.4 2a5.2 5.2 0 0 1-5.2 5.3Z"/><path d="M124 247.3c0 1-.8 2-1.8 2a1.9 1.9 0 0 1-2-2 1.9 1.9 0 0 1 3.8 0Zm10.4.1c0 1-.8 1.9-1.9 1.9a1.9 1.9 0 0 1-1.8-1.9 1.9 1.9 0 0 1 3.7 0Z"/></svg>