<svg xmlns="http://www.w3.org/2000/svg" viewBox="0 150 215 184"><path fill="#ffcb37" stroke="transparent" stroke-width="1.6" d="M100 231a78 78 0 0 1 18 1h-3 2a5 5 0 0 1 3 4v5a5 5 0 0 1-1 1l1-1v12c0 2-2 4-3 5l-4 1H98a6 6 0 0 1-4-2l-2-8a34 34 0 0 1 1-12l3-4 4-2Z"/><path fill="#8d8d8d" stroke="transparent" stroke-width="1.6" d="M60 177a7 7 0 0 1 4 0l3 2 1 5-2 3-6 3h-1l-1 3c-1 1 1 2 1 3-1 2-1 5-3 6l-6 1c-2 0-4-1-5-3a10 10 0 0 1 0-5l2-8a28 28 0 0 1 13-10Zm88-1 5 1c3 1 7 5 10 9 2 3 4 8 4 11a6 6 0 0 1-3 5h-7c-1 0-3 0-4-2a8 8 0 0 1-1-5c0-1 2-2 1-3 0-2-7-5-8-7l-1-4 3-4 1-1Zm-99 65 6 3 2 7-1 6 4 14v10l-1 6 4 3h15l24-1 19 1h26l1-2 3-2v-1l3-7v-12l3-12v-7a11 11 0 0 1 2-5h6l2 2 1 9-3 12v15l-3 7v5c-1 3-3 7-5 8a5 5 0 0 1-3 2h-7a10 10 0 0 1-1-1l-12 1-11-1h-13l-24-1-14 1-14-1c-2 0-2-1-3-2l-1-2-4-3-2-4v-3l1-13-3-11c0-5-2-13-1-16l2-4 2-1Z"/><path fill="#fff6a9" stroke="#fff6a9" stroke-width="1.6" d="M103 208h3l2 2 1 2 1 3h-1 11l3 2 1 1h22l2 1 2 1 2 5 5 1 4 3 1 2a6 6 0 0 1 0 2l-1 5-2 2a6 6 0 0 1-2 1 6 6 0 0 1-2 0l-3-1h-7l-4 1a9 9 0 0 1-3 0l-2-1h-6l-2 1-4-1-2-1a6 6 0 0 0 1 0 3 3 0 0 0 2 0 5 5 0 0 1-1 0 6 6 0 0 1-2-1l-2-1v-1a7 7 0 0 1-1-1 4 4 0 0 1 0-1v-2l-2-1a6 6 0 0 1 0-1 4 4 0 0 1-1-1 6 6 0 0 0 0 1h-7l-2-1-5 2h-8v3l-1 3a6 6 0 0 1-1 2l-2 1h-5l-3 1H60l-3-1-1-2-1-2a5 5 0 0 1 1-3l2-1 1-1 1-2a4 4 0 0 1 1-2l3-1h5v-3a8 8 0 0 1 2-4l1-1v-2l1-2 1-2a12 12 0 0 1 4-2h7l2 2 1 1v4h3l3-1v-3l2-3 3-2h4Z"/><path fill="#925711" d="M316 219c5-1 23 1 28 1h4l4 2 2 3v3l-2 3 1 2-1 2c0 2 0 4 2 5 3 2 11 2 16 2h13l6-1 1-10-2-3v-3a6 6 0 0 1 1-3l6-2h7l21 2 4-2 5 2 2 3v2a40 40 0 0 0-1 10h-1c-1 4-2 27-4 33l-2 5-3 3-4 1h-27l-19-1h-27a237 237 0 0 1-28-2 8 8 0 0 1-2-2 8 8 0 0 1-1-2l-1-4v-28l-2-6a11 11 0 0 1 0-3l1-1-2-2a8 8 0 0 1-1-4 9 9 0 0 1 3-4l3-1Z" style="mix-blend-mode:normal;isolation:auto" transform="translate(-196 62) scale(.81485)"/><path fill="#6e400c" stroke="#6e400c" stroke-width="1.6" d="M51 200a7 7 0 0 1 2 0l3 2 4-1 7 1 6-1h7l19 1h8l8 1 7-1h39l4 1a5 5 0 0 1 1 3l-2 3-2 2v2h-1l-3 3v3a8 8 0 0 1-1 3l-1 1-2 1h-3a8 8 0 0 0 0-1v-2a5 5 0 0 0-1-2l-3-2h-3l-4-1-4 1a72 72 0 0 1-18-1l-3-2-4 1-3-2h1v-2l-2-3-2-1a12 12 0 0 0-5-1l-3 2-2 3a4 4 0 0 0 0 2l-2 2h-3l-2-1a8 8 0 0 0-1-3l-3-1-4-1h-3l-3 2a7 7 0 0 0-1 1v3a35 35 0 0 1-5 8 8 8 0 0 1-2 3l-3 1h-2a8 8 0 0 1-3-2 9 9 0 0 1-2-3 8 8 0 0 1 0-1l-4-6-1-2a19 19 0 0 1-4-4 8 8 0 0 1-1-4 8 8 0 0 1 3-4l2-1Z"/><path fill="#925711" stroke="transparent" stroke-width="1.6" d="M98 181c12 0 37-1 45 1 5 1 5 4 6 6 2 2 3 3 3 5l1 4c0 2-1 4-3 5h-2a61 61 0 0 0-7 0l-8-1-28-1c-12 1-36 3-42 2l-5-3v-4l2-7 4-4 3-2h4l5 1 22-2Z"/><g data-name="17-pirate treasure"><path d="M152 303H61a14 14 0 0 1-14-12l-5-50a2 2 0 0 1 2-2h48v4H47l4 47a10 10 0 0 0 10 9h91a10 10 0 0 0 10-9l4-47h-46v-4h48a2 2 0 0 1 2 2l-5 50a14 14 0 0 1-14 12Z"/><path d="M116 261H96a6 6 0 0 1-6-6v-20a6 6 0 0 1 6-6h20a6 6 0 0 1 6 6v20a6 6 0 0 1-6 6Zm-20-28a2 2 0 0 0-2 2v20a2 2 0 0 0 2 2h20a2 2 0 0 0 2-2v-20a2 2 0 0 0-2-2Zm51 58h-5v-4h5a4 4 0 0 0 4-3l3-43h4l-3 43a8 8 0 0 1-8 7Zm-13-4h4v4h-4zm-4 4H66a8 8 0 0 1-8-7l-4-43h4l4 43a4 4 0 0 0 4 3h64Z"/><path d="M56 249h22v4H56zm26 0h4v4h-4zm44 0h30v4h-30zm-12 6H98a2 2 0 0 1-2-2v-16a2 2 0 0 1 2-2h16a2 2 0 0 1 2 2v16a2 2 0 0 1-2 2Zm-14-4h12v-12h-12Z"/><path d="M104 241h4v8h-4zm-48 50h4v4h-4zm96 0h4v4h-4zm8-46h4v4h-4zm-112 2h4v4h-4zm34 43-4-1c2-5 7-9 14-11a61 61 0 0 1 12-3h4a30 30 0 0 0 14-5l2-4a3 3 0 0 1 4-4 144 144 0 0 1 26-3v4a140 140 0 0 0-26 3 9 9 0 0 1-4 7 34 34 0 0 1-16 6h-4a57 57 0 0 0-11 2c-3 1-9 4-11 9Zm-23-13-1-4a116 116 0 0 0 25-6l2-1a54 54 0 0 0-13-2 58 58 0 0 1-14-3l1-4a55 55 0 0 0 13 3 50 50 0 0 1 16 3 3 3 0 0 1 1 5 16 16 0 0 1-4 3 120 120 0 0 1-26 6Zm93 6h-19a4 4 0 0 1-2-9 47 47 0 0 1 23-5v4c-9 0-15 2-21 5h-1l1 1h19ZM46 243l-3-3 16-16a2 2 0 0 1 1-1h12v4H61Zm113-8 3-3 8 8-3 3zm9-32h-14a2 2 0 0 1-2-2c0-11-4-14-6-15a6 6 0 0 1-4-5 6 6 0 0 1 6-6c13 0 22 11 22 26a2 2 0 0 1-2 2Zm-12-4h10c0-11-8-20-18-20a2 2 0 0 0-2 2 2 2 0 0 0 1 1c4 2 9 6 9 17Zm-98 4H44a2 2 0 0 1-2-2c0-15 10-26 22-26h1a6 6 0 0 1 5 6 6 6 0 0 1-3 5c-2 1-7 4-7 15a2 2 0 0 1-2 2Zm-12-4h10c1-11 6-15 9-17a2 2 0 0 0 1-1 2 2 0 0 0-1-2h-1c-9 0-17 9-18 20Z"/><path d="M148 199h6v4h-6zm-90 0h86v4H58zm10-20h76v4H68zm85 43 14-22 3 2-14 22zm-99-2 3-2 3 4-4 2zm-11-18 3-2 9 14-4 2z"/><path d="M112 203h-12a2 2 0 0 1-2-2v-20a2 2 0 0 1 2-2h12a2 2 0 0 1 2 2v20a2 2 0 0 1-2 2Zm-10-4h8v-16h-8Z"/><path d="M154 197h-12a17 17 0 0 1-4-1 3 3 0 0 1-2-1 3 3 0 0 1 0-1 3 3 0 0 1 1-2l1-1h-26v-4h28a9 9 0 0 1 3 0 3 3 0 0 1 3 4 3 3 0 0 1-2 2h10Zm-96 0v-4h16a12 12 0 0 1-1-1 4 4 0 0 1-2-3 4 4 0 0 1 3-4 7 7 0 0 1 2 0h26v4H76l1 1a21 21 0 0 1 3 1 3 3 0 0 1 1 4 3 3 0 0 1-2 1 13 13 0 0 1-4 1H58Zm100 46h-26a6 6 0 0 1 0-12v4a2 2 0 0 0 0 4h26a2 2 0 0 0 0-4 2 2 0 0 1 0-4 2 2 0 0 0 0-4h-12a2 2 0 0 1 0-4 2 2 0 0 0 0-4h-16a2 2 0 0 0-1 1 2 2 0 0 1-2 1h-1a2 2 0 0 1-2-2 2 2 0 0 0-2-2h-16a2 2 0 0 1 0-4 2 2 0 0 0 0-4h-8a2 2 0 0 0 0 4 2 2 0 0 1 0 4h-4a2 2 0 0 0-2 2 2 2 0 0 1-3 1 2 2 0 0 0-1-1h-4a2 2 0 0 1 0-4 2 2 0 0 0 0-4h-8a2 2 0 0 0 0 4 2 2 0 0 1 0 4h-4a2 2 0 0 0 0 4 2 2 0 0 1 0 4H62a2 2 0 0 0 0 4 2 2 0 0 1 0 4h-4a2 2 0 0 0 0 4h8a2 2 0 0 0 1 0 2 2 0 0 1 1 0h16a2 2 0 0 0 0-4h-6v-4h6a6 6 0 0 1 0 12H68a6 6 0 0 1-1 0 6 6 0 0 1-1 0h-8a6 6 0 0 1-1-12 6 6 0 0 1 5-8h5a6 6 0 0 1 4-8 6 6 0 0 1 5-8h8a6 6 0 0 1 6 8 6 6 0 0 1 3-2 6 6 0 0 1-1-2 6 6 0 0 1 6-6h8a6 6 0 0 1 6 8h10a6 6 0 0 1 5 3 6 6 0 0 1 3-1h16a6 6 0 0 1 6 8h6a6 6 0 0 1 5 10 6 6 0 0 1-5 10Z"/></g><path fill="#0084ff" stroke="rgba(129,151,57,.02)" stroke-width="1.3" d="M90 272a2 2 0 0 1 1 0 3 3 0 0 1 2 1v2l1 1 2 1 1 2a3 3 0 0 1-1 2l-2 1-3-1-1-2a10 10 0 0 1-2-2 5 5 0 0 1 0-3l1-1a3 3 0 0 1 1-1Zm-7 19a9 9 0 0 1 3 0l2 1h10l1 1 1 1v2l-1 2a10 10 0 0 1-4 1 21 21 0 0 1-7 0l-2-1v-1h-3l-1-1-1-2 1-2 1-1Zm36 8h3a14 14 0 0 1 5 4v1l-1 2a3 3 0 0 1-2 1h-8a3 3 0 0 1-1-1 3 3 0 0 1-1-2 3 3 0 0 1 0-1v-2l3-2h2Zm28 12h3l1 1 1 2v1a3 3 0 0 1-1 1v1l-1 2a18 18 0 0 1-6 2h-4l-2-1a2 2 0 0 1-1-2 6 6 0 0 1 2-2 19 19 0 0 1 8-5Zm-62 0 1 1 3 2 1 1v3a5 5 0 0 1 0 1l-1 1a5 5 0 0 1-2 1l-1-1-4 1a6 6 0 0 1-4-2l-1-2-1-2v-1l1-1 1-1h1l2 1 4-2Z"/><path fill="#fae742" d="M122 236h2l2 1 1 1 1-1 2-1h2l4 2 2 2 2 3v4l-2 4a16 16 0 0 1-8 8h-4a8 8 0 0 1-5-3 45 45 0 0 1-4-6l-1-3v-3l4-7a4 4 0 0 1 2-1Zm2 23 4 1 2-1a5 5 0 0 1 3 2l2 3-1 2v9l1 13-2 3-4 1h-1l3 1h3l2 1 3 2a6 6 0 0 1 1 2 6 6 0 0 1 0 3l-2 4a5 5 0 0 1-2 0h-7l-1-2-1-2-2-1a32 32 0 0 0-8 0l-5 2-1 2-1 1-3 1-2-1-7 3a32 32 0 0 1-13-1l-6-3-1-1-1-2v-2a5 5 0 0 1 1-2l1-1h3l3 2a30 30 0 0 0 11 2l4-2 2-2 1-1 1-1a6 6 0 0 1 2-1h6l4-2a41 41 0 0 1 9 0l-3-1-1-3a146 146 0 0 1 0-24l1-3a3 3 0 0 1 2-1Zm-49 10h7l3 2 1 4 3 6 2 1 4 1 3 2 1 3-1 2-3 1a35 35 0 0 1-8-1l-2-1a4 4 0 0 1-1-2v-5l-3-5v-3h-6a2 2 0 0 1-2-1v-2l1-2h1Zm68 39h2a2 2 0 0 1 1 1l1 1-1 2-2 1-6 1-2 4-1 2a5 5 0 0 1-3 1h-4l-2-1v1l-6 1-16-1-11-1-2-1-1-2a4 4 0 0 0 1 0l1-1a3 3 0 0 0 0-1 3 3 0 0 0 0-2l-4-3h-3l-2 1v2h-1l-6 1v1h-1l3 2v2l-1 1a6 6 0 0 1-3 1l-2-1h-2l-1-1-1-3-1-2a11 11 0 0 1 3-5h3l13-1 4 1h8l1-1h8l28 1 8-1Z"/><path d="M145 304h-3a10 10 0 0 0 2-5c0-4-3-8-6-9v-33l3-5a11 11 0 0 0 2-7v-1c0-6-5-11-11-11h-9c-6 0-11 5-11 11v1l2 7 4 5v32h-16v-1c0-7-3-13-8-17a23 23 0 0 0-15-5h-4a6 6 0 1 0 0 11l4 1v1a8 8 0 0 1 3 6v5a10 10 0 0 0-6 15h-3a10 10 0 0 0 0 19h72a10 10 0 0 0 0-20Zm-28-59v-1c0-3 2-5 4-6v2a2 2 0 0 0 4 0v-2h1v4a2 2 0 0 0 3 0v-4h2v2a2 2 0 0 0 3 0v-2c3 1 5 3 5 6v1a6 6 0 0 1-2 4l-4 6a7 7 0 0 1-5 3l-6-3-4-6a6 6 0 0 1-1-4Zm7 27a2 2 0 0 0 2 0l2-2 1 2a2 2 0 0 0 2 0 2 2 0 0 0 0-2l-2-3v-5a11 11 0 0 0 4-1v28h-11v-28a11 11 0 0 0 4 1v5l-2 3a2 2 0 0 0 0 2Zm-33 2a18 18 0 0 1 5 7h-1a7 7 0 0 1-6-7v-1l1 1Zm-9 1a12 12 0 0 0-8-3 1 1 0 0 1 0-1l1-1h4l6 1 1 4c0 4 4 8 8 9h3v5H87v-4c0-4-2-8-5-10Zm2 19h16a10 10 0 0 1-13 3l-5-3a5 5 0 0 1 2 0Zm-5 3 6 3a13 13 0 0 0 6 2c5 0 9-3 12-7l1-1h30c3 0 5 2 5 5a5 5 0 0 1-5 6h-4a10 10 0 0 0-4-6l-1-1a10 10 0 0 0-8-1 9 9 0 0 0-6 8H84a5 5 0 0 1-5-6v-2Zm48 7h-13a6 6 0 0 1 4-4 6 6 0 0 1 5 1h1a6 6 0 0 1 3 3Zm-37 14-1 2h-8l-2-3a2 2 0 0 1-1-1l2-2 6-1a4 4 0 0 1 3 1 4 4 0 0 1 1 4Zm44 2H92l1-1a7 7 0 0 0-2-7 7 7 0 0 0-6-2l-6 1a5 5 0 0 0-4 5l1 3h-3a5 5 0 0 1-5-5 5 5 0 0 1 5-5h72a5 5 0 0 1 2 0 19 19 0 0 0-13 11Zm11 0h-7a15 15 0 0 1 9-7l3-1v2a5 5 0 0 1-5 5Z"/><path d="m124 247-2 2a2 2 0 0 1-2-2 2 2 0 0 1 4 0Zm10 0-1 2a2 2 0 0 1-2-2 2 2 0 0 1 3 0Z"/></svg>