<svg viewBox="0 150 215 184.069" xmlns="http://www.w3.org/2000/svg"><path stroke-width="0" d="M364.044 207.651c4.429-.528 16.087-.801 19.98 0 .767.158 1.371.312 1.872.499-.44-.104-.886-.149-1.363-.188-.648-.053-1.356-.08-2.061 0a47.23 47.23 0 0 1-.18.021c.267.044.524.095.79.178.289.046.576.115.85.215.945.347 2.094 1.059 2.816 1.828.695.741 1.201 1.705 1.482 2.668.285.978.285 2.076.198 3.162-.093 1.15-.324 2.536-.791 3.558a6.7 6.7 0 0 1-.391.727c.216-.112.434-.233.641-.357-.364 3.253 1.15 10.466.351 14.069-.638 2.882-1.909 5.536-3.59 6.712-1.492 1.044-3.195.532-5.619.624-3.458.132-10.485-.558-13.736-.312-2.131.162-3.22 1.25-4.683.937-1.509-.324-3.143-1.315-4.215-2.966-1.413-2.178-2.089-6.705-2.497-9.99-.393-3.163-.277-6.708 0-9.366.228-2.187.499-3.88 1.249-5.619.754-1.749 1.794-3.772 3.278-4.839 1.482-1.065 2.913-1.238 5.619-1.561Z" style="stroke-width:2px;stroke:transparent;fill:#ffcb37" transform="matrix(.81485 0 0 .81485 -196.27 62.194)"/><path stroke-width="0" d="M315.072 140.631c1.888-.462 3.592-.156 4.97.414 1.274.527 2.442 1.461 3.106 2.691.742 1.378 1.141 3.848.828 5.384-.282 1.383-1.05 2.422-2.278 3.52-1.61 1.44-6.187 3.194-7.247 3.934-.433.303-.338.284-.621.622-.512.609-2.083 1.932-2.278 3.105-.204 1.229 1.357 2.504 1.242 4.142-.148 2.122-1.251 6.182-3.106 7.661-1.827 1.457-5.636 1.784-7.868 1.242-2.058-.499-4.168-2.153-5.176-3.934-1.045-1.843-1.151-4.574-.829-7.04.36-2.75 1.643-5.976 3.313-8.697 1.776-2.893 4.538-5.882 7.247-8.075 2.624-2.124 6.202-4.36 8.697-4.969Zm107.704-.941c1.454-.088 3.902-.013 6.212 1.243 3.306 1.796 8.52 6.432 11.388 10.56 2.846 4.095 5.946 10.605 5.798 14.08-.107 2.488-1.677 4.49-3.52 5.591-2.061 1.23-6.257 1.193-8.697.828-2.05-.307-4.036-.93-5.176-2.278-1.201-1.418-1.818-4.405-1.657-6.212.142-1.583 2.527-2.532 2.071-4.141-.706-2.49-8.617-6.59-10.353-9.111-1.092-1.584-1.428-2.662-1.243-4.141.216-1.729 2.061-4.598 3.106-5.591.686-.651 1.113-.77 2.071-.828Zm-121.807 80.092c1.527.084 5.36.989 6.954 2.819 1.771 2.034 2.31 6.597 2.632 9.398.271 2.366-.657 3.547-.376 6.39.429 4.348 3.427 12.762 4.135 18.044.588 4.39.486 8.313.376 11.652-.091 2.751-1.446 5.258-.752 7.143.639 1.736 1.951 3.081 4.323 3.947 3.722 1.358 11.06.751 18.043.751 8.566.001 20.889-1.173 30.072-1.127 8.187.04 14.308 1.031 22.554 1.127 9.34.109 25.319-2.056 30.824-.751.603.143 1.123.306 1.576.488.263-1.184.827-2.412 1.643-3.277.732-.776 1.994-1.461 3.254-1.974.008-.419.046-.827.131-1.215.609-2.778 2.718-5.198 3.383-8.645.806-4.181-.204-10.162.376-15.036.567-4.768 2.547-9.78 3.007-13.909.389-3.497-.674-6.806 0-9.397.575-2.211 2.177-4.504 3.195-5.451.646-.6 1.04-.641 1.88-.752 1.196-.158 3.564-.162 4.886.376 1.186.483 2.183.991 2.82 2.444 1.005 2.293 1.066 7.577.751 11.653-.34 4.411-2.373 8.845-3.007 13.908-.703 5.615.183 13.545-.752 18.419-.721 3.76-2.865 6.283-3.383 9.022-.439 2.323.689 4.073 0 6.39-.862 2.902-3.936 7.744-5.826 9.586-1.277 1.243-2.118 1.521-3.759 1.879-2.191.478-6.499.531-8.646 0a12.257 12.257 0 0 1-1.108-.322c-3.542 1.18-10.095.548-14.705.473-4.692-.077-8.775-1.046-13.533-1.128-5.103-.088-9.779.787-16.163.752-8.061-.045-20.656-1.529-28.945-1.504-6.805.021-11.855 1.134-17.667 1.128-5.713-.007-13.436-.021-16.916-1.128-2.109-.671-2.977-1.851-3.947-2.819-.797-.796-.916-1.572-1.691-2.443-.979-1.1-2.908-2.206-3.947-3.571-1.017-1.337-1.888-2.973-2.256-4.511-.351-1.472-.059-2.4 0-4.511.096-3.419 1.219-10.208.752-15.036-.453-4.684-2.528-8.392-3.383-13.533-1.002-6.026-2.804-16.574-1.879-20.674.538-2.388 2.213-3.521 3.195-4.323.664-.543.975-.801 1.879-.752Z" style="stroke-width:2px;fill:#8d8d8d;stroke:transparent" transform="matrix(.81485 0 0 .81485 -196.27 62.194)"/><path stroke-width="0" d="M367.671 179.084c1.171-.006 1.979-.129 2.94.155 1.027.303 2.254.927 3.018 1.702.745.757 1.264 1.844 1.547 2.863.284 1.019.249 2.571.155 3.25-.054.394-.596.577-.309.773.869.596 10.441-.643 13.385.078 1.888.462 3.201 1.743 3.791 2.244.278.235.116.426.387.541.481.205 1.883-.154 2.785 0 .903.155 1.041.713 2.631.929 3.64.493 18.732-.368 22.128 0 1.362.147 1.453.242 2.167.619.809.426 1.645.949 2.398 1.934 1.012 1.322 1.278 4.739 2.786 5.803 1.479 1.044 4.294-.08 6.112.619 1.785.686 3.696 2.301 4.72 3.481.795.917 1.136 1.82 1.393 2.786.25.944.303 1.745.154 2.94-.201 1.617-1.002 4.56-1.702 6.035-.52 1.096-1.044 1.766-1.779 2.399a6.996 6.996 0 0 1-2.631 1.392 7.252 7.252 0 0 1-3.095.155c-1.153-.193-2.038-1.127-3.559-1.393-2.033-.355-5.626-.299-7.892 0-1.909.252-3.47 1.18-4.952 1.393a11.546 11.546 0 0 1-3.404 0c-1.107-.155-1.896-.685-3.25-.928-1.794-.323-5.011-.727-6.808-.619-1.35.08-2.103.838-3.25.773-1.264-.072-3.296-1.319-4.023-1.392-.341-.035-.325.158-.619.154-.485-.005-1.447-.152-2.167-.464l-.36-.156c.058.006.115.01.173.014a7.621 7.621 0 0 0 1.572-.09c.428-.068.724-.121 1.168-.314.135-.059.288-.132.449-.215a5.789 5.789 0 0 1-1.024.027 7.265 7.265 0 0 1-2.38-.629c-.681-.312-1.363-.839-1.819-1.257-.367-.338-.559-.614-.808-1.011a8.96 8.96 0 0 1-.763-1.571 5.019 5.019 0 0 1-.27-1.168c-.06-.476-.062-1.166-.045-1.572.013-.293.21-.451.09-.696-.181-.369-1.132-.74-1.572-1.19-.421-.43-.779-.987-1.032-1.437a4.977 4.977 0 0 1-.449-1.077 7.154 7.154 0 0 1-.192-.776 6.81 6.81 0 0 0-.357 1.188 5.973 5.973 0 0 0-.11.801c-.03.069-.058.137-.086.207-1.9-.629-6.807-.219-8.433-.529-.907-.173-.88-.649-1.702-.619-1.388.05-3.854 1.753-6.345 2.166-2.991.497-9.269-.969-10.6.155-.852.72.252 2.304.155 3.482-.099 1.219-.292 2.645-.774 3.714a7.386 7.386 0 0 1-1.934 2.553c-.72.602-1.6 1.006-2.476 1.238-.878.233-1.9.289-2.785.155-.867-.132-1.56-1.012-2.476-.929-1.105.1-1.482 1.557-3.714 2.012-4.725.964-22.785.988-27.544 0-2.27-.471-2.941-1.304-3.791-2.089-.668-.616-.955-1.235-1.238-2.012-.311-.852-.524-1.997-.465-2.94a6.392 6.392 0 0 1 .774-2.63c.453-.828 1.204-1.711 1.934-2.244.675-.493 1.718-.36 2.244-.929.562-.607.479-1.943.929-2.708.419-.713.87-1.282 1.624-1.779.921-.607 2.259-1.101 3.714-1.393 1.731-.347 5.313.584 6.113-.309.673-.754-.833-2.643-.619-3.946.226-1.38 1.26-3.171 2.089-4.101.663-.745 1.904-.742 2.244-1.393.327-.626-.225-1.581-.155-2.398.073-.857.246-1.772.619-2.631.401-.924.86-1.894 1.779-2.708 1.145-1.014 3.385-2.193 4.952-2.631 1.352-.378 2.555-.274 3.869-.154 1.367.124 3.016.399 4.178.928 1.034.471 1.929 1.269 2.553 1.934.518.553.828 1.01 1.083 1.703.299.809.46 2.078.464 2.94.005.729-.647 1.581-.309 1.934.409.428 2.045.192 3.172 0 1.277-.218 3.423-.525 4.101-1.393.61-.781-.181-2.166.155-3.327.39-1.348 1.276-3.227 2.321-4.255.976-.96 2.236-1.487 3.636-1.857 1.569-.415 3.922-.301 5.416-.31Z" style="stroke-width:2px;stroke:#fff6a9;fill:#fff6a9" transform="matrix(.81485 0 0 .81485 -196.27 62.194)"/><path opacity=".996" d="M316.4 218.609c4.58-.411 22.994 1.776 27.985 1.749 2.33-.012 2.866-.741 4.154-.437 1.301.307 2.778 1.395 3.607 2.296.714.774 1.092 1.685 1.312 2.623.225.955.183 2.076 0 3.061-.182.983-.981 2.018-1.093 2.842-.09.663.284 1.083.219 1.749-.081.822-.995 1.763-.875 2.843.151 1.358.591 3.563 2.405 4.7 2.826 1.772 10.853 1.796 15.851 2.187 4.616.361 9.79.627 13.118.218 2.403-.295 4.391-.166 5.575-1.64 1.454-1.809 1.68-7.321 1.312-9.619-.259-1.615-1.662-2.374-1.968-3.499-.266-.979-.224-1.884 0-2.842.244-1.044.606-2.318 1.531-3.17 1.112-1.025 3.174-1.799 5.138-2.186 2.227-.44 4.275-.178 7.652 0 5.023.263 16.34 2.316 20.551 1.967 2.358-.195 3.083-1.6 4.592-1.53 1.515.07 3.415.992 4.482 1.968.98.896 1.493 2.97 1.858 3.498.155.224.181.077.328.328l.124.21c-.19.303-.362.63-.509.982-.582 1.389-.726 3.431-.875 5.247-.108 1.319-.207 2.95-.159 4.315-.185.062-.368.205-.549.615-1.484 3.371-2.354 26.541-3.935 32.576-.805 3.071-1.631 4.042-2.624 5.466-.829 1.189-1.685 2.057-2.733 2.733-1.033.666-1.412 1-3.498 1.312-4.637.693-19.383.549-27.548.218-7.02-.284-11.848-1.526-18.802-1.749-7.986-.256-17.986.701-26.673.656-8.427-.043-20.48-.233-24.706-.874-1.924-.292-2.336-.546-3.279-1.094-.903-.524-1.692-1.283-2.296-2.077a7.645 7.645 0 0 1-1.312-2.623c-.337-1.183-.395-3.499-.437-4.154-.017-.266-.028-.275 0-.438.033-.194.229-.464.219-.655-.01-.167-.183-.289-.219-.438-.034-.142.021-.191 0-.437-.046-.539-.471-2.442-.437-3.061.018-.34.229-.464.218-.656-.009-.166-.183-.288-.218-.437-.034-.143.006-.144 0-.437-.019-.856-.243-3.675-.219-6.341.033-3.682 1.075-10.55.656-14.211-.309-2.698-1.686-4.605-1.968-6.34-.212-1.309-.106-2.719 0-3.28.05-.262.267-.219.219-.437-.096-.438-1.376-1.235-1.749-2.186-.447-1.139-.791-2.996-.438-4.373.369-1.436 1.639-3.193 2.733-4.045.954-.741 1.297-.915 3.28-1.093Z" style="opacity:1;mix-blend-mode:normal;isolation:auto;fill:#925711" transform="matrix(.81485 0 0 .81485 -196.27 62.194)"/><path stroke-width="0" d="M302.938 169.283a9.047 9.047 0 0 1 3.42.19c1.075.286 1.827 1.271 3.041 1.521 1.432.294 3.11-.244 5.131-.19 2.548.067 6.415.839 9.123.76 2.338-.069 3.917-.78 6.271-.95 2.746-.199 5.284-.144 9.313 0 5.807.207 17.192 1.461 23.185 1.52 4.325.043 6.922-.609 10.263-.57 3.242.038 6.455.773 9.502.76 2.897-.012 4.269-.559 8.362-.76 7.067-.347 25.126-.852 32.879-.57 5.017.182 8.32 1.261 11.022 1.14 1.849-.082 2.796-1.09 4.182-.95 1.434.144 3.301 1.003 4.276 1.9.849.782 1.236 1.911 1.52 2.946.069.252.131.506.182.764-.882 1.133-1.696 2.966-2.002 3.367-.123.162-.082.068-.21.21-.347.385-1.809 1.878-2.313 2.734-.368.624-.556 1.105-.668 1.751-.479.157-.945.334-1.356.581-1.344.807-3.171 1.718-3.706 2.946-.509 1.17.521 2.859.381 4.181-.135 1.269-.607 2.707-1.141 3.611-.436.739-.949 1.169-1.615 1.615-.733.492-1.758.954-2.661 1.141-.872.18-1.685.326-2.66 0a7.841 7.841 0 0 1-.942-.393 9.3 9.3 0 0 0 .198-.629c.258-.935.181-1.788 0-2.661-.187-.902-.487-1.865-1.14-2.66-.749-.913-2.048-1.942-3.326-2.376-.95-.323-2.067-.456-3.193-.383-.301-.068-.606-.134-.91-.211-1.365-.347-3.028-.657-4.561-.57-1.571.089-2.824.927-4.751 1.141-2.474.274-5.706.27-9.122 0-4.037-.32-10.841-1.221-13.684-2.091-1.669-.511-2.01-1.548-3.231-1.71-1.345-.179-3.118 1.157-4.561.95-1.273-.183-2.169-1.413-3.53-1.995.069-.17.128-.332.174-.482.297-.969.219-1.758 0-2.661-.241-.995-.748-2.213-1.52-3.04-.814-.872-1.964-1.611-3.326-1.996-1.61-.455-4.2-.51-5.892-.19-1.473.279-2.832.83-3.801 1.711-.956.869-1.69 2.41-1.995 3.515-.258.935-.2 1.773 0 2.661.024.104.049.21.076.317-.125-.074-.137-.173-.331-.121-.549.149-1.634 1.677-2.66 2.091-1.056.426-2.397.651-3.611.38-.711-.158-1.609-.622-2.404-1.124-.188-1.242-.719-2.57-1.279-3.434-.671-1.033-1.583-1.743-2.756-2.185-1.365-.515-3.523-.355-5.131-.38-1.48-.023-2.939-.127-4.181.19-1.142.292-2.197.703-3.041 1.52-.427.415-.86.988-1.232 1.613-.198-.009-.261-.004-.407.189-.146.193-.178.544-.189.99-.159.38-.283.756-.357 1.104-.125.586-.118 1.223-.038 1.838-.984 2.48-4.299 7.842-5.972 9.561a6.881 6.881 0 0 1-.192.191c-.476 1.302-1.54 2.801-2.406 3.566-.801.708-1.758.953-2.66 1.14-.873.181-1.714.272-2.661 0-1.148-.329-2.711-1.197-3.706-2.186-1.007-1-1.85-2.583-2.281-3.801a9.684 9.684 0 0 1-.362-1.223c-1.441-2.203-3.576-6.481-4.832-7.949-.821-.96-1.292-.789-2.09-1.616-1.174-1.214-3.336-3.611-4.182-5.511-.766-1.722-1.26-3.682-.95-5.321.307-1.62 1.744-3.587 2.756-4.466.77-.669 1.55-.811 2.471-.951Z" style="stroke-width:2px;stroke:#6e400c;fill:#6e400c" transform="matrix(.81485 0 0 .81485 -196.27 62.194)"/><path stroke-width="0" d="M361.095 146.119c14.481-.134 45.691-1.796 55.77.919 5.397 1.454 5.147 5.027 7.362 7.308 1.853 1.909 2.876 4.261 3.577 6.26.608 1.735 1.077 3.337.715 5.007-.399 1.847-1.62 4.421-3.398 5.545-.576.364-1.256.61-2.008.774-3.354-.173-7.084-.18-9.211.018-2.65-.423-5.482-1.203-9.527-1.508-8.319-.628-21.393-.817-34.338-.715-15.31.12-43.984 3.425-52.222 1.788-3.579-.711-4.528-1.891-5.544-3.398-.919-1.363-.917-3.074-.716-5.007.254-2.441 1.515-6.273 2.862-8.585 1.186-2.035 2.887-3.521 4.471-4.829 1.47-1.213 3.009-2.393 4.65-2.861 1.585-.453 3.31-.17 5.008 0 1.758.175 2.549.947 5.365 1.073 5.351.24 16.145-1.686 27.184-1.789Z" style="stroke-width:2px;fill:#925711;stroke:transparent" transform="matrix(.81485 0 0 .81485 -196.27 62.194)"/><g data-name="17-pirate treasure"><path d="M54.57 64H9.43a6.977 6.977 0 0 1-6.965-6.3L.005 33.1A1 1 0 0 1 1 32h24v2H2.105l2.35 23.5A4.985 4.985 0 0 0 9.43 62h45.14a4.985 4.985 0 0 0 4.975-4.5L61.9 34H39v-2h24a1 1 0 0 1 1 1.1l-2.46 24.6a6.977 6.977 0 0 1-6.97 6.3Z" transform="translate(42.292 175.203) scale(2.00092)"/><path d="M37 43H27a3 3 0 0 1-3-3V30a3 3 0 0 1 3-3h10a3 3 0 0 1 3 3v10a3 3 0 0 1-3 3ZM27 29a1 1 0 0 0-1 1v10a1 1 0 0 0 1 1h10a1 1 0 0 0 1-1V30a1 1 0 0 0-1-1ZM52.239 58H50v-2h2.239a2.013 2.013 0 0 0 1.994-1.834L56 32.917l2 .166-1.77 21.249A4.024 4.024 0 0 1 52.239 58ZM46 56h2v2h-2zM44 58H11.761a4.024 4.024 0 0 1-3.987-3.668L6 33.083l2-.166 1.767 21.249A2.013 2.013 0 0 0 11.761 56H44Z" transform="translate(42.292 175.203) scale(2.00092)"/><path d="M7 37h11v2H7zM20 37h2v2h-2zM42 37h15v2H42zM36 40h-8a1 1 0 0 1-1-1v-8a1 1 0 0 1 1-1h8a1 1 0 0 1 1 1v8a1 1 0 0 1-1 1Zm-7-2h6v-6h-6Z" transform="translate(42.292 175.203) scale(2.00092)"/><path d="M31 33h2v4h-2zM7 58h2v2H7zM55 58h2v2h-2zM59 35h2v2h-2zM3 36h2v2H3zM19.933 57.361l-1.866-.722c.948-2.443 3.358-4.453 6.612-5.516a30.39 30.39 0 0 1 6.178-1.118c.6-.067 1.2-.133 1.8-.21a14.746 14.746 0 0 0 6.953-2.3c.437-.322 1.446-1.176 1.413-2.145l-.005-.1a1.722 1.722 0 0 1 1.621-2A72.089 72.089 0 0 1 55.954 42H56v2h-.046a69.974 69.974 0 0 0-12.934 1.208v.071A4.706 4.706 0 0 1 40.8 49.1a16.791 16.791 0 0 1-7.887 2.679c-.61.078-1.224.146-1.838.213a28.673 28.673 0 0 0-5.775 1.031c-1.269.415-4.332 1.667-5.367 4.338ZM8.153 50.988l-.306-1.976a58.029 58.029 0 0 0 12.505-3.2c.311-.125.618-.252.9-.393a26.86 26.86 0 0 0-6.556-1.19 29.187 29.187 0 0 1-7.037-1.288l.674-1.882a27.33 27.33 0 0 0 6.56 1.18 24.8 24.8 0 0 1 8.14 1.75 1.347 1.347 0 0 1 .442 2.358 8.081 8.081 0 0 1-2.375 1.321 59.943 59.943 0 0 1-12.947 3.32ZM54.964 54c-3.526 0-6.309 0-9.886-.271a2.189 2.189 0 0 1-.889-4.133C47.578 47.77 51.1 47 56 47v2c-4.548 0-7.784.7-10.822 2.335-.095.051-.2.107-.174.245a.2.2 0 0 0 .2.153c3.526.267 6.277.267 9.76.267ZM1.707 33.707.293 32.293l8-8A1 1 0 0 1 9 24h6v2H9.414Z" transform="translate(42.292 175.203) scale(2.00092)"/><path transform="rotate(-44.997 354.704 98.574) scale(2.00092)" d="M60 28.171h2v5.657h-2z"/><path d="M63 14h-7a1 1 0 0 1-1-1c0-5.392-2.1-7.15-3.35-7.719A2.791 2.791 0 0 1 50 2.757 2.76 2.76 0 0 1 52.757 0H53c6.271 0 11 5.589 11 13a1 1 0 0 1-1 1Zm-6.023-2h4.99C61.579 6.233 57.854 2 53 2h-.243a.758.758 0 0 0-.757.757.777.777 0 0 0 .478.7c1.599.73 4.222 2.795 4.499 8.543ZM8 14H1a1 1 0 0 1-1-1C0 5.589 4.729 0 11 0h.243A2.76 2.76 0 0 1 14 2.757a2.79 2.79 0 0 1-1.651 2.524C11.1 5.85 9 7.608 9 13a1 1 0 0 1-1 1Zm-5.967-2h4.99c.274-5.748 2.9-7.813 4.5-8.54a.776.776 0 0 0 .479-.7.758.758 0 0 0-.759-.76H11C6.146 2 2.421 6.233 2.033 12Z" transform="translate(42.292 175.203) scale(2.00092)"/><path d="M53 12h3v2h-3zM8 12h43v2H8zM13 2h38v2H13z" transform="translate(42.292 175.203) scale(2.00092)"/><path transform="rotate(-58.407 297.131 86.793) scale(2.0014)" d="M53.157 17.5h12.916v2H53.157z"/><path transform="rotate(-31.612 344.914 58.927) scale(2.00092)" d="M6.155 21.832h2v2.338h-2z"/><path transform="rotate(-31.608 336.952 45.909) scale(2.00092)" d="M2.154 12.39h2v8.221h-2z"/><path d="M35 14h-6a1 1 0 0 1-1-1V3a1 1 0 0 1 1-1h6a1 1 0 0 1 1 1v10a1 1 0 0 1-1 1Zm-5-2h4V4h-4Z" transform="translate(42.292 175.203) scale(2.00092)"/><path d="M56 11c-2.92 0-3.387-.019-5.978-.126l-.278-.012a8.326 8.326 0 0 1-2.089-.274 1.386 1.386 0 0 1-.827-.588 1.256 1.256 0 0 1-.126-.873 1.4 1.4 0 0 1 .737-.851c.184-.1.373-.191.562-.275L35 8V6c4 0 10 0 13.884.007h.171a4.474 4.474 0 0 1 1.193.1 1.588 1.588 0 0 1 1.365 1.637 1.672 1.672 0 0 1-.822 1.156C52.772 8.984 53.4 9 56 9ZM8 11V9c3.03 0 5.328-.029 8.027-.173a6.176 6.176 0 0 1-.916-.64 1.937 1.937 0 0 1-.727-1.258 1.785 1.785 0 0 1 1.292-1.772 3.631 3.631 0 0 1 1.267-.149h.172C21 5 26 5 30 5v2c-4 0-9 0-12.88.009h-.236c.2.125.419.244.643.368a10.223 10.223 0 0 1 1.142.692 1.328 1.328 0 0 1 .559 1.661 1.426 1.426 0 0 1-.8.709 6.67 6.67 0 0 1-2.158.379C13.467 10.97 11.115 11 8 11ZM58 34H45a3 3 0 0 1 0-6v2a1 1 0 0 0 0 2h13a1 1 0 0 0 0-2 1 1 0 0 1 0-2 1 1 0 0 0 0-2h-6a1 1 0 0 1 0-2 1 1 0 0 0 0-2h-8a.988.988 0 0 0-.858.5 1 1 0 0 1-.865.5H42a1 1 0 0 1-1-1 1 1 0 0 0-1-1h-8a1 1 0 0 1 0-2 1 1 0 0 0 0-2h-4a1 1 0 0 0 0 2 1 1 0 0 1 0 2h-2a1 1 0 0 0-.938.674 1 1 0 0 1-1.5.5A.993.993 0 0 0 23 22h-2a1 1 0 0 1 0-2 1 1 0 0 0 0-2h-4a1 1 0 0 0 0 2 1 1 0 0 1 0 2h-2a1 1 0 0 0 0 2 1 1 0 0 1 0 2h-5a1 1 0 0 0 0 2 1 1 0 0 1 0 2H8a1 1 0 0 0 0 2h4a1.02 1.02 0 0 0 .251-.039 1 1 0 0 1 .5 0A1.02 1.02 0 0 0 13 32h8a1 1 0 0 0 0-2h-3v-2h3a3 3 0 0 1 0 6h-8a2.805 2.805 0 0 1-.5-.047A2.805 2.805 0 0 1 12 34H8a3 3 0 0 1-.789-5.895A3 3 0 0 1 10 24h2.171a3 3 0 0 1 2.04-3.895A3 3 0 0 1 17 16h4a3 3 0 0 1 2.86 3.907 3.01 3.01 0 0 1 1.352-.8A2.967 2.967 0 0 1 25 18a3 3 0 0 1 3-3h4a3 3 0 0 1 2.829 4H40a3 3 0 0 1 2.531 1.391A2.972 2.972 0 0 1 44 20h8a3 3 0 0 1 2.829 4H58a3 3 0 0 1 2.234 5A3 3 0 0 1 58 34Z" transform="translate(42.292 175.203) scale(2.00092)"/></g><path stroke-width="0" d="M48.051 160.747a3.145 3.145 0 0 1 1.742.268c.657.294 1.486.875 1.943 1.541.47.686.426 1.841.804 2.546.337.627.648 1.002 1.273 1.541.853.735 2.973 1.341 3.684 2.344.635.895.824 2.264.67 3.216-.143.885-.71 1.799-1.407 2.344-.731.574-1.888.995-2.947.938-1.198-.064-2.781-.993-3.886-1.607-.974-.542-1.68-.955-2.479-1.809-.98-1.05-2.293-2.867-2.813-4.288-.461-1.256-.623-2.693-.402-3.751.194-.93.759-1.797 1.407-2.345.633-.536 1.676-.849 2.411-.938Zm-10.767 29.651c1.101-.234 3.382-.333 4.69 0 1.128.288 1.862 1.35 2.813 1.608.882.239 1.624.093 2.68 0 1.344-.118 3.172-.668 4.823-.804 1.696-.139 3.839-.167 5.226 0 1.053.127 1.787.312 2.545.67.731.344 1.481.851 1.943 1.407.423.508.671 1.136.804 1.741.132.601.213 1.175 0 1.876-.28.92-.882 2.309-1.943 3.149-1.3 1.029-3.689 1.735-5.761 2.144-2.196.433-5.231.367-7.101.268-1.392-.075-2.259-.122-3.35-.536-1.168-.444-2.977-1.775-3.416-2.144-.163-.137-.078-.146-.201-.268-.238-.235-.748-.859-1.34-1.072-.722-.259-2.019.132-2.814-.134-.721-.242-1.358-.656-1.808-1.273-.506-.694-1.015-1.868-.938-2.813.08-.997.927-2.382 1.54-3.015.476-.492.858-.645 1.608-.804Zm54.052 11.353c1.349-.09 3.674.033 5.627.804 2.325.917 6.134 3.335 7.302 4.89.762 1.015.836 1.998.67 2.948-.175.996-1.014 2.294-1.809 2.88-.731.54-1.916.661-2.68.67-.622.008-.694-.304-1.607-.402-1.947-.208-8.794.2-10.987-.134-1.196-.182-1.687-.439-2.278-.804-.501-.309-.837-.704-1.138-1.138-.302-.436-.555-.935-.67-1.474a4.222 4.222 0 0 1 0-1.876c.185-.774.498-1.656 1.205-2.479.927-1.077 3.186-2.586 4.355-3.215.803-.433 1.101-.609 2.01-.67Zm43.458 18.44c1.557-.313 3.275-.259 4.421 0 .889.202 1.544.47 2.077 1.072.609.687 1.139 2.121 1.206 3.015.056.748-.224 1.433-.536 2.01-.301.555-.947 1.185-1.273 1.406-.189.129-.397.008-.469.134-.091.16.214.466.134.871-.138.704-.443 2.164-1.541 3.149-1.658 1.488-6.267 3.323-8.976 4.019-2.25.578-4.552.763-6.164.402-1.286-.288-2.406-.992-3.014-1.809a3.699 3.699 0 0 1-.67-2.813c.221-1.244 1.229-2.728 2.479-4.087 1.567-1.703 4.517-3.837 6.699-5.091 1.915-1.1 3.859-1.922 5.627-2.278Zm-95.291.851c1.037-.096 1.483-.098 2.412.268 1.297.511 3.564 2.056 4.622 3.149.839.866 1.312 1.668 1.608 2.679.314 1.073.278 2.562.134 3.618a6.874 6.874 0 0 1-.804 2.411c-.31.545-.565.959-1.139 1.273-.745.409-2.332.698-3.215.67-.698-.022-.913-.458-1.742-.536-1.328-.124-4.304.626-5.895.402-1.262-.177-2.201-.676-3.082-1.206-.818-.492-1.42-1.067-2.077-1.808-.736-.831-1.682-2.607-2.076-3.015-.162-.167-.204-.057-.335-.201-.245-.268-.759-1.028-.938-1.608-.18-.581-.302-1.208-.134-1.875.203-.809.927-2.042 1.541-2.613.511-.476 1.164-.675 1.741-.804.539-.12 1.07-.12 1.608 0 .578.129.903.767 1.742.804 1.345.058 4.516-1.467 6.029-1.608Z" style="stroke-width:2px;fill:#0084ff;stroke:rgba(129,151,57,.02)" transform="matrix(.65633 0 0 .65633 58.597 166.382)"/><path d="M96.749 105.779c.93-.241 1.73-.267 2.682 0 1.146.322 2.854 1.356 3.689 2.124.648.597.749 1.874 1.229 1.9.515.028 1.044-1.463 1.789-2.012.798-.587 1.895-1.119 2.906-1.341 1.002-.221 1.925-.294 3.129 0 1.584.386 4.067 1.616 5.589 2.682 1.349.946 2.274 1.998 3.241 3.242 1.019 1.309 2.189 2.783 2.683 4.471.524 1.79.586 3.99.223 6.036-.389 2.197-1.463 4.593-2.682 6.706-1.257 2.179-2.801 4.348-4.806 6.147-2.146 1.926-5.337 4.12-7.824 4.918-2.098.674-4.274.465-6.036.224-1.53-.209-2.792-.635-4.024-1.341-1.272-.73-2.195-1.501-3.465-3.018-1.843-2.202-5.09-7.469-6.259-9.836-.726-1.469-.915-2.039-1.118-3.353-.244-1.579-.604-3.443 0-5.589.811-2.88 3.892-8.28 5.701-10.171 1.155-1.208 2.283-1.511 3.353-1.789Zm3.623 35.861c1.457-.119 3.583 1.162 5.142 1.117 1.39-.04 2.476-1.227 3.8-1.117 1.458.121 3.521.985 4.582 2.123 1.06 1.137 1.654 3.271 1.789 4.695.115 1.221-.53 1.704-.671 3.353-.242 2.831-.086 8.213 0 13.189.103 5.893 1.504 16.212.671 20.119-.46 2.158-1.159 2.939-2.347 3.912-1.302 1.067-3.508 1.676-5.365 2.012-.96.174-1.976.288-2.99.297 2.361.575 3.163 1.852 4.839 2.217 1.661.361 3.714-.203 5.141 0 1.157.164 1.865.386 2.906.894 1.27.619 3.097 1.677 4.136 2.794a8.71 8.71 0 0 1 2.012 3.577c.4 1.408.651 3.15.223 4.694-.471 1.702-1.972 3.976-3.241 5.03-1.061.882-2.18 1.099-3.577 1.342-1.652.286-4.066.261-5.812 0-1.57-.236-3.148-.689-4.247-1.342-.939-.557-1.524-1.272-2.124-2.123-.646-.915-.847-2.511-1.565-3.242-.631-.642-1.064-.819-2.347-1.118-2.409-.559-9.023-1.354-12.519-.894-2.882.379-5.937 1.341-7.265 2.683-1.026 1.037-.542 2.909-1.118 3.912-.487.849-1.027 1.414-1.9 1.9-1.062.591-2.885 1.17-4.247 1.118-1.317-.051-2.12-1.463-3.8-1.342-2.55.184-7.092 3.716-10.507 4.471-3.128.692-5.958.516-9.165.224-3.473-.316-7.537-1.069-10.954-2.236-3.313-1.131-8.068-3.67-9.277-4.582-.468-.353-.344-.529-.559-.783-.228-.268-.475-.382-.783-.782-.482-.627-1.495-1.881-1.788-2.906-.283-.991-.24-2.097 0-3.13.254-1.092.837-2.43 1.565-3.241.678-.755 1.573-1.26 2.571-1.565 1.096-.335 2.486-.609 3.8-.224 1.571.461 3.255 2.524 4.918 3.354 1.544.77 2.618 1.129 4.694 1.564 2.974.624 8.809 1.79 12.072 1.342 2.611-.359 4.933-1.621 6.371-2.795 1.137-.928 1.442-2.52 2.124-3.241.498-.527.974-.551 1.453-1.006.567-.54.894-1.564 1.676-2.124.898-.642 2.213-1.102 3.577-1.341 1.563-.273 3.886-.053 5.365 0 1.159.042 1.709.44 2.906.224 1.701-.308 3.534-2.278 6.483-2.683 3.123-.429 9.095-.008 13.625.606-1.54-.554-3.121-1.39-3.962-2.337-.968-1.092-.998-1.55-1.341-4.024-.811-5.862-1.877-30.536-.67-36.661.554-2.816 1.505-3.596 2.57-4.583.896-.829 1.906-1.241 3.13-1.341Zm-75.771 14.274c1.661-.249 7.697-.683 10.507 0 2.283.555 4.302 1.488 5.477 3.018 1.189 1.549.75 3.934 1.564 6.259.987 2.816 2.625 7.633 4.248 9.501 1.129 1.3 2.247 1.472 3.688 2.012 1.658.621 4.171.623 5.812 1.341 1.466.641 2.818 1.358 3.689 2.571.935 1.303 1.644 3.855 1.565 5.142-.058.932-.402 1.599-1.118 2.123-.938.688-2.523.955-4.583 1.118-3.067.242-10.318.062-12.742-.671-1.337-.404-1.673-.95-2.347-1.676-.721-.777-1.422-1.583-1.788-2.906-.5-1.802.423-4.87-.224-7.377-.715-2.773-3.51-6.282-4.247-8.495-.508-1.523.419-2.946-.559-3.689-1.387-1.054-7.031.343-8.942-.223-1.215-.36-1.843-.902-2.347-1.677-.526-.808-.864-2.151-.671-3.129.198-1 1.309-2.288 1.9-2.795.391-.335.42-.342 1.118-.447Zm104.488 59.011c1.545-.104 2.301-.109 3.13.223a3.468 3.468 0 0 1 1.676 1.453c.426.704.815 1.76.671 2.683-.163 1.043-1.061 2.472-1.9 3.241-.787.721-1.545.955-2.906 1.342-2.052.583-6.804-.049-8.83 1.341-1.822 1.25-2.723 5.279-3.242 6.036-.178.26-.164.151-.335.335-.334.359-.944 1.378-1.676 1.9a7.572 7.572 0 0 1-3.13 1.341c-1.822.346-5.537.149-7.154 0-1.003-.092-1.56-.648-2.123-.447-.545.195-.393 1.2-1.23 1.565-1.512.66-4.854.498-8.718.447-5.766-.076-16.557-1.276-23.696-1.565-6.244-.252-13.871.516-16.989-.223-1.611-.382-1.975-.753-2.795-1.677-.559-.631-1.099-1.908-1.566-3.06.533-.11 1.04-.273 1.389-.447.57-.285.876-.68 1.182-1.183.342-.56.717-1.309.696-2.086a5.223 5.223 0 0 0-1.113-3.061c-1.048-1.318-3.531-3.168-5.356-3.825-1.637-.59-3.717-.514-5.008-.278-.985.179-1.725.559-2.295 1.112-.559.543-1.013 1.331-1.113 2.157-.06.494.003 1.142.148 1.76-.588.029-1.195.063-1.829.081-2.378.069-6.518-.237-7.936.447-.844.407-.94 1.542-1.23 1.789-.14.119-.38.01-.335.111.129.292 3.499 1.383 4.247 2.459.645.928.683 2.382.447 3.354-.22.911-.805 1.836-1.676 2.347-1.043.612-3.177.799-4.471.67-1.115-.111-1.904-1.004-2.906-1.117-1.009-.114-2.205.669-3.13.447-.892-.214-1.682-.772-2.347-1.677-.875-1.19-1.661-3.8-2.012-5.365-.283-1.264-.579-2.057-.224-3.353.49-1.785 2.367-5.115 3.913-6.371 1.256-1.021 3.39-1.277 4.247-1.341.456-.034.231.186.894.223 2.225.124 14.609-1.206 19.001-.894 2.802.199 4.394 1.311 6.036 1.341 1.262.023 1.68-.608 3.13-.67 2.276-.099 8.05 1.184 9.836.894.904-.147.629-.693 1.565-.894 1.942-.418 5.746-.048 11.177 0 9.303.082 33.155 1.321 42.921.67 6.085-.405 10.224-2.051 12.965-2.235Z" style="fill:#fae742" transform="matrix(.65633 0 0 .65633 58.597 166.382)"/><path d="M145.069 304.438h-2.645a9.812 9.812 0 0 0 1.53-5.244c0-4.2-2.659-7.79-6.374-9.195v-33.355l3.466-4.738a10.921 10.921 0 0 0 2.12-6.485v-1.444c0-6.077-4.962-11.013-11.053-11.013h-8.801c-6.09 0-11.046 4.936-11.046 11.013v1.444c0 2.35.735 4.588 2.12 6.485l3.459 4.738v32.712h-15.916v-1.097c0-6.884-3.085-13.31-8.46-17.635a22.87 22.87 0 0 0-14.295-5.04H74.56c-3.085 0-5.599 2.507-5.599 5.585s2.514 5.585 5.599 5.585c1.621 0 3.216.558 4.483 1.575l.21.177a7.797 7.797 0 0 1 2.94 6.117v4.877c-4.653.781-8.217 4.824-8.217 9.694 0 1.93.57 3.721 1.529 5.244H72.86c-5.428 0-9.838 4.417-9.838 9.838 0 5.428 4.41 9.839 9.838 9.839h72.209c5.428 0 9.838-4.41 9.838-9.839 0-5.421-4.41-9.838-9.838-9.838Zm-28.209-59.017v-1.444c0-2.802 1.812-5.185 4.332-6.058v1.87a1.641 1.641 0 0 0 3.281 0v-2.23h1.602v4.246a1.641 1.641 0 0 0 3.282 0v-4.247h1.601v2.232a1.641 1.641 0 0 0 3.282 0v-1.87c2.513.872 4.331 3.255 4.331 6.057v1.444a6.35 6.35 0 0 1-1.233 3.774l-4.404 6.025a6.497 6.497 0 0 1-5.218 2.645c-2.061 0-4.01-.991-5.218-2.645l-4.404-6.025a6.35 6.35 0 0 1-1.234-3.774Zm7.207 26.555c.315.282.702.42 1.09.42.452 0 .905-.19 1.226-.551l1.333-1.497 1.326 1.497c.321.36.774.551 1.227.551.387 0 .774-.138 1.09-.42a1.639 1.639 0 0 0 .137-2.31l-2.14-2.409v-4.929c1.28-.19 2.508-.604 3.63-1.214v28.242H122.44v-28.242a11.06 11.06 0 0 0 3.636 1.214v4.929l-2.14 2.409a1.632 1.632 0 0 0 .132 2.31Zm-33.48 2.225a18.054 18.054 0 0 1 5.06 6.439l-.8-.119c-3.105-.479-5.533-2.98-5.92-6.077l-.184-1.53c.637.394 1.26.814 1.844 1.287Zm-8.453.722-.217-.17a11.748 11.748 0 0 0-7.357-2.593 1.001 1.001 0 0 1-1.004-.991c0-.545.453-.991 1.004-.991h4.614c2.067 0 4.115.36 6.051 1.037l.446 3.63c.565 4.554 4.129 8.216 8.677 8.919l2.514.387c.308 1.332.472 2.71.472 4.108v1.097H86.787v-4.733c0-3.787-1.7-7.318-4.653-9.7Zm1.687 19.027h15.778c-2.921 4.154-8.533 5.513-13.055 3.052l-4.81-2.619a5.254 5.254 0 0 1 2.087-.433Zm-4.634 2.79 5.789 3.15a13.395 13.395 0 0 0 6.38 1.62c4.482 0 8.847-2.25 11.36-6.307l.775-1.253h30.617c2.895 0 5.251 2.35 5.251 5.244a5.252 5.252 0 0 1-5.25 5.244h-3.715a9.479 9.479 0 0 0-4.53-6.104l-1.233-.702a9.497 9.497 0 0 0-7.856-.709 9.45 9.45 0 0 0-6.21 7.515H83.822a5.252 5.252 0 0 1-5.251-5.244c0-.886.223-1.726.617-2.455Zm47.78 7.698H113.9a6.19 6.19 0 0 1 3.964-4.417 6.211 6.211 0 0 1 5.14.46l1.233.708a6.133 6.133 0 0 1 2.73 3.249Zm-37.436 13.52-.591 1.562h-7.79l-2.646-2.441a1.835 1.835 0 0 1-.59-1.34c0-.911.689-1.686 1.595-1.81l6.11-.847a3.705 3.705 0 0 1 3.085 1.03 3.63 3.63 0 0 1 .827 3.846Zm44.36 1.562H92.446l.157-.4a6.926 6.926 0 0 0-1.581-7.331 6.996 6.996 0 0 0-5.848-1.956l-6.11.84c-2.528.348-4.431 2.527-4.431 5.067 0 1.418.604 2.783 1.647 3.748l.04.032h-3.46a5.246 5.246 0 0 1-5.243-5.244 5.25 5.25 0 0 1 5.244-5.244h72.209a5.13 5.13 0 0 1 1.962.387l-.374.08a18.686 18.686 0 0 0-12.765 10.021Zm11.178 0h-7.423a15.406 15.406 0 0 1 9.72-6.812l2.494-.552c.289.65.453 1.366.453 2.12a5.246 5.246 0 0 1-5.244 5.244Z"/><path d="M124.04 247.338c0 1.03-.84 1.87-1.877 1.87a1.875 1.875 0 0 1-1.877-1.87c0-1.03.84-1.871 1.877-1.871s1.877.84 1.877 1.87ZM134.414 247.414c0 1.03-.84 1.87-1.878 1.87a1.875 1.875 0 0 1-1.877-1.87c0-1.03.84-1.87 1.877-1.87s1.878.84 1.878 1.87Z"/></svg>