<svg xmlns="http://www.w3.org/2000/svg" fill="none" viewBox="0 0 100 100"><mask id="a" width="100" height="100" x="0" y="0" mask-type="alpha" maskUnits="userSpaceOnUse"><path fill="#fff" fill-rule="evenodd" d="M71 99h5l21-10c2-1 3-3 3-5V16c0-2-1-4-3-5L76 1a6 6 0 0 0-7 1L29 38 12 25a4 4 0 0 0-5 0l-6 5a4 4 0 0 0 0 6l15 14L1 64a4 4 0 0 0 0 6l6 5a4 4 0 0 0 5 0l17-13 40 36 2 1Zm4-72L45 50l30 23V27Z" clip-rule="evenodd"/></mask><g mask="url(#a)"><path fill="#0065A9" d="M97 11 76 1a6 6 0 0 0-7 1L1 64a4 4 0 0 0 0 6l6 5a4 4 0 0 0 5 0l81-62c3-2 7 0 7 4v-1c0-2-1-4-4-5Z"/><g filter="url(#b)"><path fill="#007ACC" d="M97 89 76 99a6 6 0 0 1-7-1L1 36a4 4 0 0 1 0-6l6-5a4 4 0 0 1 5 0l81 62c3 2 7 0 7-4v1c0 2-1 4-4 5Z"/></g><g filter="url(#c)"><path fill="#1F9CF0" d="M76 99a6 6 0 0 1-7-1c2 2 6 1 6-3V5c0-4-4-5-6-3a6 6 0 0 1 7-1l21 10c2 1 3 3 3 5v68c0 2-1 4-3 5L76 99Z"/></g><path fill="url(#d)" fill-rule="evenodd" d="M71 99h5l20-10c3-1 4-3 4-5V16c0-2-1-4-4-5L76 1a6 6 0 0 0-7 1L29 38 12 25a4 4 0 0 0-5 0l-6 5a4 4 0 0 0 0 6l15 14L1 64a4 4 0 0 0 0 6l6 5a4 4 0 0 0 5 0l17-13 40 36 2 1Zm4-72L45 50l30 23V27Z" clip-rule="evenodd" opacity=".3" style="mix-blend-mode:overlay"/></g><defs><filter id="b" width="116.7" height="92.2" x="-8" y="16" color-interpolation-filters="sRGB" filterUnits="userSpaceOnUse"><feFlood flood-opacity="0" result="BackgroundImageFix"/><feColorMatrix in="SourceAlpha" values="0 0 0 0 0 0 0 0 0 0 0 0 0 0 0 0 0 0 127 0"/><feOffset/><feGaussianBlur stdDeviation="4.2"/><feColorMatrix values="0 0 0 0 0 0 0 0 0 0 0 0 0 0 0 0 0 0 0.25 0"/><feBlend in2="BackgroundImageFix" mode="overlay" result="effect1_dropShadow"/><feBlend in="SourceGraphic" in2="effect1_dropShadow" result="shape"/></filter><filter id="c" width="47.9" height="116.2" x="60" y="-8" color-interpolation-filters="sRGB" filterUnits="userSpaceOnUse"><feFlood flood-opacity="0" result="BackgroundImageFix"/><feColorMatrix in="SourceAlpha" values="0 0 0 0 0 0 0 0 0 0 0 0 0 0 0 0 0 0 127 0"/><feOffset/><feGaussianBlur stdDeviation="4.2"/><feColorMatrix values="0 0 0 0 0 0 0 0 0 0 0 0 0 0 0 0 0 0 0.25 0"/><feBlend in2="BackgroundImageFix" mode="overlay" result="effect1_dropShadow"/><feBlend in="SourceGraphic" in2="effect1_dropShadow" result="shape"/></filter><linearGradient id="d" x1="49.9" x2="49.9" y1=".3" y2="99.7" gradientUnits="userSpaceOnUse"><stop stop-color="#fff"/><stop offset="1" stop-color="#fff" stop-opacity="0"/></linearGradient></defs></svg>