<svg xmlns="http://www.w3.org/2000/svg" xml:space="preserve" viewBox="0 0 1881 1750"><path fill="#41A5EE" d="M1801 0H518c-45 0-80 36-80 80v358l743 218 700-218V80c0-44-36-80-80-80z"/><path fill="#2B7CD3" d="M1881 438H438v437l743 131 700-131V438z"/><path fill="#185ABD" d="M438 875v438l700 87 743-87V875H438z"/><path fill="#103F91" d="M518 1750h1283c44 0 80-36 80-80v-357H438v357c0 44 35 80 80 80z"/><path d="M970 350H438v1094h532c44 0 80-36 80-80V430c0-44-36-80-80-80z" opacity=".1"/><path d="M926 394H438v1094h488c44-1 80-36 80-81V474c0-44-36-80-80-80z" opacity=".2"/><path d="M926 394H438v1006h488c44 0 80-36 80-80V474c0-44-36-80-80-80z" opacity=".2"/><path d="M882 394H438v1006h444c45 0 80-36 81-80V474c-1-44-36-80-81-80z" opacity=".2"/><linearGradient id="a" x1="167.2" x2="795.3" y1="1420.9" y2="333.1" gradientTransform="matrix(1 0 0 -1 0 1752)" gradientUnits="userSpaceOnUse"><stop offset="0" stop-color="#2368c4"/><stop offset=".5" stop-color="#1a5dbe"/><stop offset="1" stop-color="#1146ac"/></linearGradient><path fill="url(#a)" d="M80 394h802c45 0 80 36 80 80v802c0 44-35 80-80 80H80c-44 0-80-36-80-80V474c0-44 36-80 80-80z"/><path fill="#FFF" d="m329 1009 3 32h2a334 334 0 0 1 10-63l85-364h109l87 359c5 22 9 45 11 67h2c1-22 4-44 9-65l70-361h99l-123 522H577l-83-346a808 808 0 0 1-14-74h-1a785 785 0 0 1-13 75l-78 345H270L147 614h101l76 365c2 7 4 17 5 30z"/></svg>